<?xml version="1.0" encoding="UTF-8" standalone="no"?>
<svg width="82px" height="180px" viewBox="0 0 82 180" version="1.1" xmlns="http://www.w3.org/2000/svg" xmlns:xlink="http://www.w3.org/1999/xlink" xmlns:sketch="http://www.bohemiancoding.com/sketch/ns">
    <!-- Generator: Sketch 3.1.1 (8761) - http://www.bohemiancoding.com/sketch -->
    <title>Rectangle 165</title>
    <desc>Created with Sketch.</desc>
    <defs></defs>
    <g id="Page-1" stroke="none" stroke-width="1" fill="none" fill-rule="evenodd" sketch:type="MSPage">
        <g id="Artboard-3" sketch:type="MSArtboardGroup" transform="translate(-119.000000, -158.000000)" fill="#FFFFFF">
            <path d="M119,158 L119,338 L201,338 L201,158 L119,158 Z M185.5,228 L193.99308,228 C197.30719,228 200,230.685942 200,233.99922 L200,262.00078 C200,265.313376 197.310194,268 193.992151,268 C193.992151,268 195.962984,268 193.944475,268 C193.205633,268 191.7075,267.885282 190.379281,266.717159 L141.318989,217.652637 C140.57928,216.670778 140,215.621341 140,214.742606 L140,214.002741 C140,210.681177 142.685942,208 145.99922,208 L174.00078,208 C177.313376,208 180,210.686608 180,214.000707 C180,214.000707 180,217.285765 180,222.400024 L180,222.400024 L180.00089,222.400024 C180.000298,222.433278 180,222.466604 180,222.5 C180,225.537566 182.462434,228 185.5,228 L185.5,228 Z M129.443822,229.134153 C128.16165,228.104808 126.761736,228 126.055525,228 C124.037016,228 126.007849,228 126.007849,228 C122.689806,228 120,230.686624 120,233.99922 L120,262.00078 C120,265.314058 122.69281,268 126.00692,268 L134.5,268 L134.5,268 C137.537566,268 140,270.462434 140,273.5 C140,273.533396 139.999702,273.566722 139.99911,273.599976 L140,273.599976 L140,273.599976 C140,278.714235 140,281.999293 140,281.999293 C140,285.313392 142.686624,288 145.99922,288 L174.00078,288 C177.314058,288 180,285.318823 180,281.997259 L180,281.257394 C180,280.381971 179.425079,279.337132 178.68937,278.35847 L129.443822,229.134153 L129.443822,229.134153 Z" id="Rectangle-165" sketch:type="MSShapeGroup"></path>
        </g>
    </g>
</svg>