<?xml version="1.0" standalone="no"?>
<!DOCTYPE svg PUBLIC "-//W3C//DTD SVG 1.1//EN" "http://www.w3.org/Graphics/SVG/1.1/DTD/svg11.dtd" >
<svg xmlns="http://www.w3.org/2000/svg" xmlns:xlink="http://www.w3.org/1999/xlink" version="1.1">
<metadata>
Created by FontForge 20141024 at Thu Nov 20 18:12:42 2014
 By System Administrator
Copyright (c) The Font Bureau, Inc., 2008. All rights reserved.
</metadata>
<defs>
<font id="BentonSans-ExtraLight" horiz-adv-x="500" >
  <font-face 
    font-family="BentonSans ExtraLight"
    font-weight="200"
    font-stretch="normal"
    units-per-em="1000"
    panose-1="2 0 5 3 0 0 0 2 0 4"
    ascent="787"
    descent="-213"
    x-height="525"
    cap-height="740"
    bbox="-84 -205 1266 948"
    underline-thickness="50"
    underline-position="-50"
    unicode-range="U+0020-FB02"
  />
<missing-glyph horiz-adv-x="214" 
 />
    <glyph glyph-name="fi" unicode="fi" horiz-adv-x="533" 
d="M124 0v491h-92v34h92v95c0 82 49 118 136 120c8 1 18 1 26 1v-34h-29c-62 -2 -97 -25 -97 -84v-98h121v-34h-121v-491h-36zM406 0v525h37v-525h-37zM403 660v53h43v-53h-43z" />
    <glyph glyph-name="fl" unicode="fl" horiz-adv-x="533" 
d="M124 0v491h-92v34h92v95c0 82 49 118 136 120c8 1 18 1 26 1v-34h-29c-62 -2 -97 -25 -97 -84v-98h121v-34h-121v-491h-36zM406 0v740h37v-740h-37z" />
    <glyph glyph-name="f_f_l" unicode="ffl" horiz-adv-x="816" 
d="M124 0v491h-92v34h92v95c0 82 49 118 136 120c8 1 18 1 26 1v-34h-29c-62 -2 -97 -25 -97 -84v-98h247v95c0 82 49 118 136 120c8 1 18 1 26 1v-34h-29c-62 -2 -97 -25 -97 -84v-98h121v-34h-121v-491h-36v491h-247v-491h-36zM689 0v740h37v-740h-37z" />
    <glyph glyph-name="f_f_i" unicode="ffi" horiz-adv-x="816" 
d="M124 0v491h-92v34h92v95c0 82 49 118 136 120c8 1 18 1 26 1v-34h-29c-62 -2 -97 -25 -97 -84v-98h247v95c0 82 49 118 136 120c8 1 18 1 26 1v-34h-29c-62 -2 -97 -25 -97 -84v-98h121v-34h-121v-491h-36v491h-247v-491h-36zM689 0v525h37v-525h-37zM686 660v53h43v-53
h-43z" />
    <glyph glyph-name="f_f" unicode="ff" horiz-adv-x="601" 
d="M124 0v491h-92v34h92v95c0 82 49 118 136 120c8 1 18 1 26 1v-34h-29c-62 -2 -97 -25 -97 -84v-98h247v95c0 82 49 118 136 120c8 1 18 1 26 1v-34h-29c-62 -2 -97 -25 -97 -84v-98h121v-34h-121v-491h-36v491h-247v-491h-36z" />
    <glyph glyph-name="f_j" unicode="fj" horiz-adv-x="533" 
d="M124 0v491h-92v34h92v95c0 82 49 118 136 120c8 1 18 1 26 1v-34h-29c-62 -2 -97 -25 -97 -84v-98h121v-34h-121v-491h-36zM360 -200c-9 0 -23 1 -29 2v34c8 -2 18 -4 28 -4c26 0 47 14 47 55v638h37v-632c0 -70 -35 -93 -83 -93zM403 660v53h43v-53h-43z" />
    <glyph glyph-name=".notdef" horiz-adv-x="214" 
 />
    <glyph glyph-name=".notdef" horiz-adv-x="214" 
 />
    <glyph glyph-name="zero" unicode="0" horiz-adv-x="642" 
d="M322 -14c-169 0 -262 157 -262 384s93 384 262 384s260 -157 260 -384s-91 -384 -260 -384zM322 21c143 0 222 136 222 349s-81 350 -222 350c-144 0 -223 -137 -223 -350s81 -349 223 -349z" />
    <glyph glyph-name="one" unicode="1" horiz-adv-x="424" 
d="M67 0v36h144v659c-36 -23 -95 -37 -141 -37v34c53 2 105 14 145 48h35v-704h129v-36h-312z" />
    <glyph glyph-name="two" unicode="2" horiz-adv-x="579" 
d="M55 0c0 2 1 20 1 20c2 117 50 192 256 322c114 71 160 128 160 210c0 101 -63 168 -174 168c-96 0 -158 -54 -196 -136l-33 15c43 92 123 155 231 155c130 0 211 -80 211 -200c0 -101 -56 -164 -190 -248c-173 -107 -223 -177 -225 -270h415v-36h-456z" />
    <glyph glyph-name="three" unicode="3" horiz-adv-x="582" 
d="M281 -14c-118 0 -201 60 -246 141l31 19c45 -75 112 -126 215 -126c118 0 196 73 196 175c0 114 -67 183 -243 183h-36v34h38c143 0 226 48 226 155c0 89 -55 153 -176 153c-88 0 -145 -47 -183 -101l-31 20c42 60 113 115 214 115c149 0 214 -84 214 -186
c0 -95 -65 -160 -162 -173c116 -18 177 -86 177 -199c0 -120 -92 -210 -234 -210z" />
    <glyph glyph-name="four" unicode="4" horiz-adv-x="587" 
d="M396 0v196h-356v29l346 515h48v-509h127v-35h-127v-196h-38zM85 231h311v462z" />
    <glyph glyph-name="five" unicode="5" horiz-adv-x="574" 
d="M278 -14c-118 0 -199 74 -233 140l33 19c31 -58 95 -124 201 -124c141 0 207 107 207 221c0 132 -82 205 -187 205c-86 0 -145 -44 -182 -103l-33 13l29 383h369l-3 -37h-331l-25 -303c33 43 91 82 176 82c126 0 225 -88 225 -238c0 -143 -88 -258 -246 -258z" />
    <glyph glyph-name="six" unicode="6" horiz-adv-x="599" 
d="M314 -14c-130 0 -253 105 -253 371c0 215 105 397 275 397c79 0 125 -21 167 -54l-23 -31c-39 33 -76 51 -144 51c-148 0 -236 -163 -238 -355v-18c44 51 124 112 223 112c164 0 232 -108 232 -229c0 -135 -91 -244 -239 -244zM315 20c121 0 199 86 199 210
c0 106 -57 194 -195 194c-95 0 -175 -62 -219 -125c16 -198 115 -279 215 -279z" />
    <glyph glyph-name="seven" unicode="7" horiz-adv-x="549" 
d="M134 0l326 703h-399v37h439v-35l-326 -705h-40z" />
    <glyph glyph-name="eight" unicode="8" horiz-adv-x="598" 
d="M301 -14c-155 0 -256 81 -256 191c0 112 91 167 213 217c-102 42 -176 88 -176 183c0 99 90 177 219 177c131 0 219 -78 219 -177c0 -94 -74 -137 -179 -181c123 -52 213 -106 213 -219c0 -109 -98 -191 -253 -191zM301 21c124 0 215 60 215 158c0 99 -94 148 -218 198
c-129 -54 -215 -101 -215 -198c0 -96 94 -158 218 -158zM302 412c112 46 180 81 180 165c0 78 -68 143 -181 143c-110 0 -180 -64 -180 -141c0 -83 69 -120 181 -167z" />
    <glyph glyph-name="nine" unicode="9" horiz-adv-x="599" 
d="M263 -14c-79 0 -134 24 -185 68l22 29c51 -43 92 -63 163 -63c149 0 236 163 238 356v17c-44 -51 -125 -112 -223 -112c-165 0 -232 108 -232 229c0 135 90 244 239 244c130 0 253 -105 253 -371c0 -215 -105 -397 -275 -397zM280 316c95 0 174 62 219 125
c-16 198 -116 279 -216 279c-121 0 -198 -86 -198 -210c0 -106 57 -194 195 -194z" />
    <glyph glyph-name="A" unicode="A" horiz-adv-x="656" 
d="M40 0l266 743h44l265 -743h-41l-90 256h-313l-91 -256h-40zM183 291h288l-144 408z" />
    <glyph glyph-name="B" unicode="B" horiz-adv-x="673" 
d="M102 0v740h227c174 0 256 -64 256 -187c0 -106 -78 -157 -151 -172c83 -13 181 -63 181 -185c0 -114 -78 -196 -249 -196h-264zM140 35h229c140 0 207 61 207 161c0 112 -88 166 -233 166h-203v-327zM140 398h199c125 0 207 49 207 153c0 111 -71 153 -216 153h-190v-306
z" />
    <glyph glyph-name="C" unicode="C" horiz-adv-x="692" 
d="M366 -14c-183 0 -301 162 -301 389c0 217 121 379 298 379c147 0 223 -95 259 -223l-37 -10c-34 117 -93 198 -222 198c-154 0 -259 -142 -259 -343c0 -213 105 -355 262 -355c133 0 200 92 232 206l36 -8c-29 -117 -112 -233 -268 -233z" />
    <glyph glyph-name="D" unicode="D" horiz-adv-x="695" 
d="M101 0v740h159c248 0 370 -128 370 -370c0 -241 -124 -370 -370 -370h-159zM140 36h127c210 0 324 106 324 334c0 227 -115 334 -325 334h-126v-668z" />
    <glyph glyph-name="E" unicode="E" horiz-adv-x="589" 
d="M101 0v740h424v-36h-385v-293h290v-36h-290v-339h400v-36h-439z" />
    <glyph glyph-name="F" unicode="F" horiz-adv-x="560" 
d="M101 0v740h416v-36h-377v-293h282v-36h-282v-375h-39z" />
    <glyph glyph-name="G" unicode="G" horiz-adv-x="709" 
d="M363 -14c-172 0 -300 149 -300 389c0 216 120 379 299 379c144 0 223 -92 260 -224l-37 -10c-38 124 -98 199 -223 199c-157 0 -260 -146 -260 -342c0 -224 112 -356 262 -356c136 0 228 108 223 278h-194v36h232v-335h-38v139c-31 -80 -105 -153 -224 -153z" />
    <glyph glyph-name="H" unicode="H" horiz-adv-x="723" 
d="M101 0v740h39v-329h443v329h39v-740h-39v375h-443v-375h-39z" />
    <glyph glyph-name="I" unicode="I" horiz-adv-x="258" 
d="M110 0v740h38v-740h-38z" />
    <glyph glyph-name="J" unicode="J" horiz-adv-x="488" 
d="M207 -14c-91 0 -143 51 -174 109l32 18c31 -55 72 -92 142 -92c91 0 147 50 147 166v553h38v-550c0 -138 -71 -204 -185 -204z" />
    <glyph glyph-name="K" unicode="K" horiz-adv-x="654" 
d="M101 0v740h39v-433l395 433h48l-256 -279l296 -461h-45l-277 432l-161 -175v-257h-39z" />
    <glyph glyph-name="L" unicode="L" horiz-adv-x="560" 
d="M101 0v740h39v-704h377v-36h-416z" />
    <glyph glyph-name="M" unicode="M" horiz-adv-x="861" 
d="M101 0v740h46l283 -690l284 690h46v-740h-40v660l-272 -660h-37l-273 660v-660h-37z" />
    <glyph glyph-name="N" unicode="N" horiz-adv-x="733" 
d="M101 0v740h44l449 -667v667h38v-740h-35l-459 682v-682h-37z" />
    <glyph glyph-name="O" unicode="O" horiz-adv-x="732" 
d="M366 -14c-176 0 -301 158 -301 384s125 384 301 384c175 0 301 -158 301 -384s-126 -384 -301 -384zM366 21c151 0 263 137 263 349s-112 349 -263 349c-153 0 -262 -137 -262 -349s109 -349 262 -349z" />
    <glyph glyph-name="P" unicode="P" horiz-adv-x="627" 
d="M101 0v740h231c164 0 249 -75 249 -192c0 -125 -92 -195 -253 -195h-188v-353h-39zM140 388h191c136 0 211 52 211 159c0 104 -74 157 -212 157h-190v-316z" />
    <glyph glyph-name="Q" unicode="Q" horiz-adv-x="732" 
d="M552 -178c-136 0 -207 60 -207 165c-166 11 -280 166 -280 383c0 226 125 384 301 384c175 0 301 -158 301 -384c0 -219 -117 -373 -283 -383c3 -96 68 -129 169 -129h49v-36h-50zM366 21c151 0 263 137 263 349s-112 349 -263 349c-153 0 -262 -137 -262 -349
s109 -349 262 -349z" />
    <glyph glyph-name="R" unicode="R" horiz-adv-x="659" 
d="M101 0v740h231c163 0 249 -75 249 -192c0 -111 -72 -175 -193 -190l199 -358h-45l-197 354h-205v-354h-39zM140 388h191c136 0 211 52 211 159c0 104 -74 157 -212 157h-190v-316z" />
    <glyph glyph-name="S" unicode="S" horiz-adv-x="636" 
d="M326 -14c-151 0 -232 80 -265 199l38 10c31 -110 98 -174 228 -174c124 0 204 61 204 156c0 93 -42 136 -210 190s-228 96 -228 211c0 95 86 176 217 176c135 0 210 -74 241 -172l-37 -12c-34 99 -99 149 -204 149c-112 0 -178 -65 -178 -140c0 -94 54 -128 211 -179
c161 -52 227 -99 227 -222c0 -120 -105 -192 -244 -192z" />
    <glyph glyph-name="T" unicode="T" horiz-adv-x="609" 
d="M285 0v704h-247v36h533v-36h-247v-704h-39z" />
    <glyph glyph-name="U" unicode="U" horiz-adv-x="712" 
d="M355 -14c-171 0 -259 115 -259 254v500h39v-504c0 -114 74 -215 221 -215c144 0 221 98 221 216v503h38v-502c0 -136 -90 -252 -260 -252z" />
    <glyph glyph-name="V" unicode="V" horiz-adv-x="651" 
d="M307 -3l-266 743h41l244 -691l245 691h39l-266 -743h-37z" />
    <glyph glyph-name="W" unicode="W" horiz-adv-x="914" 
d="M246 0l-201 740h40l182 -678l169 678h44l177 -678l173 678h39l-193 -740h-41l-178 682l-171 -682h-40z" />
    <glyph glyph-name="X" unicode="X" horiz-adv-x="641" 
d="M33 0l266 396l-229 344h43l207 -311l208 311h41l-229 -341l266 -399h-43l-244 366l-245 -366h-41z" />
    <glyph glyph-name="Y" unicode="Y" horiz-adv-x="599" 
d="M280 0v333l-249 407h43l227 -373l226 373h41l-249 -407v-333h-39z" />
    <glyph glyph-name="Z" unicode="Z" horiz-adv-x="614" 
d="M46 0v31l469 675h-441v34h486v-31l-468 -675h467v-34h-513z" />
    <glyph glyph-name="a" unicode="a" horiz-adv-x="535" 
d="M201 -12c-94 0 -147 48 -147 129c0 111 105 182 365 223v37c0 81 -40 126 -120 126c-92 0 -152 -41 -202 -87l-26 22c54 53 126 98 229 98c107 0 156 -61 156 -156v-257c0 -66 4 -95 14 -123h-39c-8 23 -11 46 -12 85c-55 -51 -131 -97 -218 -97zM203 21
c86 0 166 50 216 102v188c-259 -42 -328 -111 -328 -192c0 -64 42 -98 112 -98z" />
    <glyph glyph-name="b" unicode="b" horiz-adv-x="582" 
d="M304 -11c-78 0 -135 42 -182 92v-81h-37v740h37v-296c40 43 101 92 183 92c124 0 219 -89 219 -273s-95 -274 -220 -274zM306 22c100 0 181 74 181 240s-83 241 -183 241c-78 0 -135 -47 -182 -98v-284c61 -64 113 -99 184 -99z" />
    <glyph glyph-name="c" unicode="c" horiz-adv-x="526" 
d="M274 -11c-124 0 -218 114 -218 273c0 186 110 274 225 274c102 0 155 -60 190 -141l-32 -17c-32 77 -75 125 -160 125c-89 0 -186 -69 -186 -240c0 -142 77 -241 183 -241c84 0 127 45 168 128l30 -15c-45 -93 -101 -146 -200 -146z" />
    <glyph glyph-name="d" unicode="d" horiz-adv-x="582" 
d="M277 -11c-124 0 -219 89 -219 273s96 274 220 274c78 0 135 -42 182 -92v296h37v-617c0 -66 4 -95 14 -123h-39c-8 23 -12 53 -12 81c-40 -43 -101 -92 -183 -92zM278 22c78 0 135 47 182 98v284c-61 64 -113 99 -184 99c-100 0 -182 -74 -182 -240s84 -241 184 -241z
" />
    <glyph glyph-name="e" unicode="e" horiz-adv-x="537" 
d="M274 -11c-128 0 -218 116 -218 273c0 185 111 274 220 274c118 0 205 -97 205 -267v-5h-388v-6c0 -134 73 -236 182 -236c83 0 135 48 177 114l27 -18c-43 -71 -106 -129 -205 -129zM94 295h349c-7 126 -69 208 -167 208c-86 0 -171 -68 -182 -208z" />
    <glyph glyph-name="f" unicode="f" horiz-adv-x="309" 
d="M124 0v491h-92v34h92v95c0 82 49 118 136 120c8 1 18 1 26 1v-34h-29c-62 -2 -97 -25 -97 -84v-98h121v-34h-121v-491h-36z" />
    <glyph glyph-name="g" unicode="g" horiz-adv-x="557" 
d="M267 -200c-155 0 -241 45 -241 129c0 61 51 105 106 127c-35 12 -52 32 -52 67c0 29 25 56 62 75c-49 32 -79 86 -79 151c0 107 85 187 198 187c53 0 100 -17 135 -48c34 22 82 44 124 50v-39c-37 -3 -77 -15 -104 -31c28 -31 43 -72 43 -119c0 -110 -85 -185 -198 -185
c-33 0 -65 7 -91 19c-34 -15 -54 -35 -54 -58c0 -29 22 -41 95 -48c7 -1 84 -8 94 -8c121 -9 197 -44 197 -128c0 -83 -90 -141 -235 -141zM268 -168c126 0 197 46 197 107c0 67 -68 90 -172 98c-10 0 -80 6 -88 7c-12 1 -23 2 -33 4c-62 -21 -109 -64 -109 -117
c0 -66 73 -99 205 -99zM261 197c98 0 162 64 162 152c0 89 -62 155 -162 155c-99 0 -162 -67 -162 -155s64 -152 162 -152z" />
    <glyph glyph-name="h" unicode="h" horiz-adv-x="569" 
d="M85 0v740h37v-304c49 45 122 100 209 100c111 0 159 -60 159 -160v-376h-36v373c0 87 -39 130 -126 130c-77 0 -144 -43 -206 -103v-400h-37z" />
    <glyph glyph-name="i" unicode="i" horiz-adv-x="217" 
d="M90 0v525h37v-525h-37zM87 660v53h43v-53h-43z" />
    <glyph glyph-name="j" unicode="j" horiz-adv-x="217" 
d="M44 -200c-9 0 -23 1 -29 2v34c8 -2 18 -4 28 -4c26 0 47 14 47 55v638h37v-632c0 -70 -35 -93 -83 -93zM87 660v53h43v-53h-43z" />
    <glyph glyph-name="k" unicode="k" horiz-adv-x="515" 
d="M85 0v740h37v-529l288 314h45l-173 -185l197 -340h-41l-181 312s-117 -126 -135 -145v-167h-37z" />
    <glyph glyph-name="l" unicode="l" horiz-adv-x="217" 
d="M90 0v740h37v-740h-37z" />
    <glyph glyph-name="m" unicode="m" horiz-adv-x="909" 
d="M85 0v525h37v-89c49 45 120 100 202 100c86 0 131 -41 146 -103c60 53 130 103 208 103c106 0 152 -60 152 -160v-376h-36v373c0 87 -36 130 -119 130c-72 0 -137 -43 -200 -104c1 -5 1 -21 1 -27v-372h-37v373c0 87 -35 130 -118 130c-73 0 -137 -43 -199 -103v-400h-37
z" />
    <glyph glyph-name="n" unicode="n" horiz-adv-x="569" 
d="M85 0v525h37v-89c49 45 122 100 209 100c111 0 159 -60 159 -160v-376h-36v373c0 87 -39 130 -126 130c-77 0 -144 -43 -206 -103v-400h-37z" />
    <glyph glyph-name="o" unicode="o" horiz-adv-x="569" 
d="M284 -11c-125 0 -228 109 -228 273c0 167 102 274 228 274c125 0 228 -107 228 -274c0 -164 -103 -273 -228 -273zM284 22c112 0 192 102 192 241c0 134 -77 240 -192 240c-112 0 -191 -101 -191 -240c0 -134 76 -241 191 -241z" />
    <glyph glyph-name="p" unicode="p" horiz-adv-x="582" 
d="M85 -200v725h37v-81c40 43 101 92 183 92c124 0 219 -89 219 -273s-95 -274 -220 -274c-78 0 -135 42 -182 92v-281h-37zM306 22c100 0 181 74 181 240s-83 241 -183 241c-78 0 -135 -47 -182 -98v-284c61 -64 113 -99 184 -99z" />
    <glyph glyph-name="q" unicode="q" horiz-adv-x="582" 
d="M460 -200v281c-40 -43 -101 -92 -184 -92c-123 0 -219 89 -219 273s96 274 220 274c78 0 135 -42 183 -92v81h37v-725h-37zM278 22c78 0 135 47 182 98v284c-61 64 -114 99 -184 99c-101 0 -182 -74 -182 -240s84 -241 184 -241z" />
    <glyph glyph-name="r" unicode="r" horiz-adv-x="388" 
d="M85 0v525h37v-116c50 77 119 131 220 126l17 -1l-7 -34l-17 1c-92 5 -166 -53 -213 -144v-357h-37z" />
    <glyph glyph-name="s" unicode="s" 
d="M246 -11c-91 0 -156 42 -194 97l28 21c37 -51 89 -85 166 -85c101 0 159 43 159 113c0 71 -57 100 -164 127c-120 32 -174 63 -174 147c0 66 59 127 169 127c88 0 144 -35 184 -78l-27 -25c-37 42 -83 70 -158 70c-92 0 -131 -46 -131 -93c0 -64 50 -88 142 -112
c128 -35 195 -67 195 -163c0 -90 -79 -146 -195 -146z" />
    <glyph glyph-name="t" unicode="t" horiz-adv-x="350" 
d="M243 -7c-87 0 -121 39 -121 123v375h-92v34h92v191h37v-191h142v-34h-142v-373c0 -58 19 -91 88 -91c20 0 38 2 56 7v-35c-17 -3 -40 -6 -60 -6z" />
    <glyph glyph-name="u" unicode="u" horiz-adv-x="569" 
d="M238 -11c-112 0 -160 60 -160 160v376h37v-373c0 -87 38 -130 125 -130c77 0 144 43 207 103v400h37v-525h-37v89c-49 -45 -123 -100 -209 -100z" />
    <glyph glyph-name="v" unicode="v" horiz-adv-x="502" 
d="M232 -3l-198 528h40l178 -482l176 482h39l-197 -528h-38z" />
    <glyph glyph-name="w" unicode="w" horiz-adv-x="743" 
d="M201 -2l-166 527h38l145 -473l135 473h38l142 -473l138 473h37l-159 -527h-35l-142 476l-136 -476h-35z" />
    <glyph glyph-name="x" unicode="x" horiz-adv-x="501" 
d="M40 0l191 270l-178 255h41l157 -226l157 226h40l-179 -253l191 -272h-42l-168 243l-169 -243h-41z" />
    <glyph glyph-name="y" unicode="y" horiz-adv-x="511" 
d="M83 -201c-28 0 -52 3 -78 10l9 32c22 -6 45 -9 72 -9c66 0 100 29 124 92l27 72l-203 529h40l182 -483l181 483h39l-230 -601c-33 -85 -72 -125 -163 -125z" />
    <glyph glyph-name="z" unicode="z" 
d="M51 0v27l338 465h-315v33h363v-27l-340 -465h352v-33h-398z" />
    <glyph glyph-name="ampersand" unicode="&#x26;" horiz-adv-x="714" 
d="M281 -13c-146 0 -233 70 -233 194c0 108 82 174 177 228c-37 63 -55 117 -55 178c0 94 67 167 163 167c89 0 144 -53 144 -138c0 -108 -92 -157 -201 -217c15 -23 34 -49 56 -79c55 -76 114 -144 172 -193c45 57 74 137 86 239h39c-13 -110 -48 -198 -99 -261
c55 -44 104 -67 153 -73v-38c-62 9 -117 33 -178 83c-61 -61 -139 -90 -224 -90zM281 22c77 0 146 25 199 78c-61 51 -121 121 -180 200c-22 29 -41 56 -57 80c-90 -50 -156 -105 -156 -199c0 -102 75 -159 194 -159zM259 427c92 49 179 95 179 188c0 62 -36 104 -106 104
c-73 0 -123 -55 -123 -131c0 -53 15 -101 50 -161z" />
    <glyph glyph-name="period" unicode="." horiz-adv-x="261" 
d="M102 0v67h56v-67h-56z" />
    <glyph glyph-name="comma" unicode="," horiz-adv-x="261" 
d="M107 -91l18 91h-23v67h56v-61l-32 -97h-19z" />
    <glyph glyph-name="colon" unicode=":" horiz-adv-x="261" 
d="M102 0v67h56v-67h-56zM102 458v67h56v-67h-56z" />
    <glyph glyph-name="semicolon" unicode=";" horiz-adv-x="261" 
d="M107 -91l18 91h-23v67h56v-61l-32 -97h-19zM102 458v67h56v-67h-56z" />
    <glyph glyph-name="ellipsis" unicode="&#x2026;" horiz-adv-x="717" 
d="M91 0v67h57v-67h-57zM570 0v67h56v-67h-56zM331 0v67h56v-67h-56z" />
    <glyph glyph-name="exclamdown" unicode="&#xa1;" horiz-adv-x="299" 
d="M126 0l13 564h21l13 -564h-47zM122 673v67h56v-67h-56z" />
    <glyph glyph-name="exclam" unicode="!" horiz-adv-x="299" 
d="M139 176l-13 564h47l-13 -564h-21zM122 0v67h56v-67h-56z" />
    <glyph glyph-name="questiondown" unicode="&#xbf;" horiz-adv-x="524" 
d="M263 -14c-123 0 -207 71 -207 179c0 98 56 139 132 186c86 53 90 86 90 209h37v-40c0 -110 -33 -150 -97 -189c-80 -49 -123 -82 -123 -165c0 -90 66 -145 169 -145c91 0 149 51 186 109l30 -19c-43 -66 -111 -125 -217 -125zM268 673v67h56v-67h-56z" />
    <glyph glyph-name="question" unicode="?" horiz-adv-x="524" 
d="M209 180v40c0 110 33 150 97 189c80 49 123 82 123 165c0 90 -66 145 -169 145c-91 0 -149 -51 -186 -109l-30 19c43 66 111 125 217 125c123 0 207 -71 207 -179c0 -98 -56 -139 -132 -186c-86 -53 -90 -86 -90 -209h-37zM200 0v67h56v-67h-56z" />
    <glyph glyph-name="parenleft" unicode="(" horiz-adv-x="394" 
d="M319 -205c-161 132 -248 291 -248 475s87 342 248 475l17 -21c-137 -116 -223 -278 -223 -454s86 -339 223 -454z" />
    <glyph glyph-name="parenright" unicode=")" horiz-adv-x="394" 
d="M74 -205l-17 21c138 116 224 278 224 454s-86 339 -224 454l17 21c162 -132 249 -291 249 -475s-87 -342 -249 -475z" />
    <glyph glyph-name="bracketleft" unicode="[" horiz-adv-x="374" 
d="M96 -200v940h223v-30h-185v-880h185v-30h-223z" />
    <glyph glyph-name="bracketright" unicode="]" horiz-adv-x="374" 
d="M55 -200v30h185v880h-185v30h223v-940h-223z" />
    <glyph glyph-name="braceleft" unicode="{" horiz-adv-x="364" 
d="M273 -200c-86 0 -118 43 -118 121v226c0 83 -25 107 -110 107v32c86 0 110 24 110 107v226c0 78 32 121 118 121h43v-30h-43c-57 0 -80 -31 -80 -82v-234c0 -82 -25 -110 -76 -124c53 -16 76 -41 76 -124v-234c0 -51 23 -82 80 -82h43v-30h-43z" />
    <glyph glyph-name="braceright" unicode="}" horiz-adv-x="364" 
d="M48 -200v30h43c57 0 80 31 80 82v234c0 82 24 110 76 124c-53 16 -76 41 -76 124v234c0 51 -23 82 -80 82h-43v30h43c86 0 118 -43 118 -121v-226c0 -83 25 -107 110 -107v-32c-86 0 -110 -24 -110 -107v-226c0 -78 -32 -121 -118 -121h-43z" />
    <glyph glyph-name="hyphen" unicode="-" horiz-adv-x="354" 
d="M72 298v37h210v-37h-210z" />
    <glyph glyph-name="hyphen" unicode="&#xad;" horiz-adv-x="354" 
d="M72 298v37h210v-37h-210z" />
    <glyph glyph-name="underscore" unicode="_" 
d="M0 -110v35h500v-35h-500z" />
    <glyph glyph-name="endash" unicode="&#x2013;" horiz-adv-x="580" 
d="M72 297v36h436v-36h-436z" />
    <glyph glyph-name="emdash" unicode="&#x2014;" horiz-adv-x="920" 
d="M72 297v36h776v-36h-776z" />
    <glyph glyph-name="quoteleft" unicode="&#x2018;" horiz-adv-x="261" 
d="M102 577v62l34 101h19l-19 -95h22v-68h-56z" />
    <glyph glyph-name="quoteright" unicode="&#x2019;" horiz-adv-x="261" 
d="M106 577l19 96h-23v67h56v-61l-33 -102h-19z" />
    <glyph glyph-name="quotedblleft" unicode="&#x201c;" horiz-adv-x="414" 
d="M102 577v62l34 101h19l-19 -95h22v-68h-56zM255 577v62l34 101h19l-19 -95h22v-68h-56z" />
    <glyph glyph-name="quotedblright" unicode="&#x201d;" horiz-adv-x="414" 
d="M106 577l19 96h-23v67h56v-61l-33 -102h-19zM259 577l19 96h-23v67h56v-61l-33 -102h-19z" />
    <glyph glyph-name="quotesinglbase" unicode="&#x201a;" horiz-adv-x="261" 
d="M106 -95l19 95h-23v67h56v-61l-33 -101h-19z" />
    <glyph glyph-name="quotedblbase" unicode="&#x201e;" horiz-adv-x="414" 
d="M106 -95l19 95h-23v67h56v-61l-33 -101h-19zM259 -95l19 95h-23v67h56v-61l-33 -101h-19z" />
    <glyph glyph-name="guillemotleft" unicode="&#xab;" horiz-adv-x="489" 
d="M380 0l-144 263l144 262h41l-144 -262l144 -263h-41zM199 0l-144 263l144 262h40l-143 -262l143 -263h-40z" />
    <glyph glyph-name="guillemotright" unicode="&#xbb;" horiz-adv-x="489" 
d="M69 0l143 263l-143 262h40l144 -262l-144 -263h-40zM250 0l143 263l-143 262h40l144 -262l-144 -263h-40z" />
    <glyph glyph-name="guilsinglleft" unicode="&#x2039;" horiz-adv-x="313" 
d="M199 0l-144 263l144 262h40l-143 -262l143 -263h-40z" />
    <glyph glyph-name="guilsinglright" unicode="&#x203a;" horiz-adv-x="313" 
d="M73 0l144 263l-144 262h41l144 -262l-144 -263h-41z" />
    <glyph glyph-name="brokenbar" unicode="&#xa6;" horiz-adv-x="332" 
d="M147 -200v400h37v-400h-37zM147 340v400h37v-400h-37z" />
    <glyph glyph-name="slash" unicode="/" horiz-adv-x="524" 
d="M30 0l424 740h40l-424 -740h-40z" />
    <glyph glyph-name="backslash" unicode="\" horiz-adv-x="524" 
d="M454 0l-424 740h40l424 -740h-40z" />
    <glyph glyph-name="bar" unicode="|" horiz-adv-x="332" 
d="M147 -200v940h37v-940h-37z" />
    <glyph glyph-name="asterisk" unicode="*" horiz-adv-x="507" 
d="M169 373l-31 19l102 156l-187 -9v35l187 -9l-102 156l31 19l85 -167l85 167l30 -19l-102 -156l187 9v-35l-187 9l102 -156l-30 -19l-85 167z" />
    <glyph glyph-name="dagger" unicode="&#x2020;" horiz-adv-x="543" 
d="M251 -200l7 640l-204 -6v37l204 -6l-7 275h42l-7 -275l203 6v-37l-203 6l7 -640h-42z" />
    <glyph glyph-name="daggerdbl" unicode="&#x2021;" horiz-adv-x="543" 
d="M251 -200l7 248l-201 -7v38l201 -6l-5 199l5 196l-201 -6v37l201 -6l-7 247h42l-7 -247l200 6v-37l-200 6l5 -196l-5 -199l200 6v-38l-200 7l7 -248h-42z" />
    <glyph glyph-name="periodcentered" unicode="&#xb7;" horiz-adv-x="261" 
d="M102 280v68h56v-68h-56z" />
    <glyph glyph-name="periodcentered" unicode="&#x2219;" horiz-adv-x="261" 
d="M102 280v68h56v-68h-56z" />
    <glyph glyph-name="bullet" unicode="&#x2022;" horiz-adv-x="462" 
d="M230 244c-61 0 -106 45 -106 106c0 62 45 107 106 107c63 0 107 -45 107 -107c0 -61 -44 -106 -107 -106z" />
    <glyph glyph-name="quotesingle" unicode="'" horiz-adv-x="222" 
d="M103 493l-13 196v51h41v-51l-12 -196h-16z" />
    <glyph glyph-name="quotedbl" unicode="&#x22;" horiz-adv-x="385" 
d="M103 493l-13 196v51h41v-51l-12 -196h-16zM267 493l-13 196v51h41v-51l-13 -196h-15z" />
    <glyph glyph-name="AE" unicode="&#xc6;" horiz-adv-x="975" 
d="M36 0l429 740h446v-36h-385v-293h290v-36h-290v-339h400v-36h-439v257h-263l-148 -257h-40zM245 292h242v419z" />
    <glyph glyph-name="OE" unicode="&#x152;" horiz-adv-x="1116" 
d="M366 -14c-176 0 -301 158 -301 384s125 384 301 384c125 0 220 -79 263 -198v184h422v-36h-385v-293h290v-36h-290v-339h400v-36h-437v185c-43 -119 -138 -199 -263 -199zM366 21c151 0 263 137 263 349s-112 349 -263 349c-153 0 -262 -137 -262 -349s109 -349 262 -349
z" />
    <glyph glyph-name="Eth" unicode="&#xd0;" horiz-adv-x="695" 
d="M101 0v375h-76v37h76v328h159c248 0 370 -128 370 -370c0 -241 -124 -370 -370 -370h-159zM140 36h127c210 0 324 106 324 334c0 227 -115 334 -325 334h-126v-292h135v-37h-135v-339z" />
    <glyph glyph-name="Thorn" unicode="&#xde;" horiz-adv-x="627" 
d="M101 0v740h39v-140h192c164 0 249 -75 249 -192c0 -125 -92 -195 -253 -195h-188v-213h-39zM140 248h191c136 0 211 52 211 159c0 104 -74 157 -212 157h-190v-316z" />
    <glyph glyph-name="Lslash" unicode="&#x141;" horiz-adv-x="560" 
d="M101 0v356l-76 -21v37l76 21v347h39v-336l135 38v-37l-135 -38v-331h377v-36h-416z" />
    <glyph glyph-name="Oslash" unicode="&#xd8;" horiz-adv-x="732" 
d="M103 -15l-27 18l70 94c-51 69 -81 162 -81 273c0 226 125 384 301 384c79 0 148 -32 200 -88l66 89l27 -18l-72 -96c50 -68 80 -161 80 -271c0 -226 -126 -384 -301 -384c-78 0 -147 31 -199 86zM169 129l375 507c-46 54 -107 83 -178 83c-153 0 -262 -137 -262 -349
c0 -98 23 -181 65 -241zM366 21c151 0 263 137 263 349c0 98 -24 180 -65 240l-375 -508c46 -52 107 -81 177 -81z" />
    <glyph glyph-name="Aacute" unicode="&#xc1;" horiz-adv-x="655" 
d="M40 0l266 743h44l265 -743h-41l-90 256h-313l-91 -256h-40zM183 291h288l-144 408zM303 787l100 151h59l-136 -151h-23z" />
    <glyph glyph-name="Acircumflex" unicode="&#xc2;" horiz-adv-x="655" 
d="M40 0l266 743h44l265 -743h-41l-90 256h-313l-91 -256h-40zM183 291h288l-144 408zM180 782l133 156h28l133 -156h-27l-121 114l-120 -114h-26z" />
    <glyph glyph-name="Adieresis" unicode="&#xc4;" horiz-adv-x="655" 
d="M40 0l266 743h44l265 -743h-41l-90 256h-313l-91 -256h-40zM183 291h288l-144 408zM224 787v58h49v-58h-49zM382 787v58h48v-58h-48z" />
    <glyph glyph-name="Agrave" unicode="&#xc0;" horiz-adv-x="655" 
d="M40 0l266 743h44l265 -743h-41l-90 256h-313l-91 -256h-40zM183 291h288l-144 408zM328 787l-136 151h59l101 -151h-24z" />
    <glyph glyph-name="Aring" unicode="&#xc5;" horiz-adv-x="656" 
d="M40 0l256 714c-33 13 -56 43 -56 82c0 49 38 86 88 86s87 -37 87 -86c0 -39 -22 -69 -55 -81l255 -715h-41l-90 256h-313l-91 -256h-40zM183 291h288l-144 408zM328 736c35 0 58 24 58 60c0 35 -23 59 -58 59c-36 0 -59 -24 -59 -59c0 -36 23 -60 59 -60z" />
    <glyph glyph-name="Atilde" unicode="&#xc3;" horiz-adv-x="655" 
d="M40 0l266 743h44l265 -743h-41l-90 256h-313l-91 -256h-40zM183 291h288l-144 408zM178 787c0 63 24 92 73 92c27 0 56 -15 83 -31c25 -14 49 -28 70 -28c32 0 44 17 44 58h29c0 -63 -24 -92 -74 -92c-27 0 -57 17 -84 32c-24 14 -48 27 -69 27c-32 0 -44 -17 -44 -58
h-28z" />
    <glyph glyph-name="Ccedilla" unicode="&#xc7;" horiz-adv-x="692" 
d="M358 -193c-41 0 -85 13 -119 36l14 22c31 -21 67 -32 102 -32c53 0 84 20 84 57c0 22 -17 38 -46 38c-20 0 -38 -8 -60 -24l-21 12l21 72c-164 18 -268 174 -268 387c0 217 121 379 298 379c147 0 223 -95 259 -223l-37 -10c-34 117 -93 198 -222 198
c-154 0 -259 -142 -259 -343c0 -213 105 -355 262 -355c133 0 200 92 232 206l36 -8c-29 -117 -112 -233 -268 -233h-3l-15 -50c14 12 33 19 55 19c38 0 70 -24 70 -63c0 -60 -52 -85 -115 -85z" />
    <glyph glyph-name="Eacute" unicode="&#xc9;" horiz-adv-x="589" 
d="M268 787l100 151h59l-136 -151h-23zM101 0v740h424v-36h-385v-293h290v-36h-290v-339h400v-36h-439z" />
    <glyph glyph-name="Ecircumflex" unicode="&#xca;" horiz-adv-x="589" 
d="M169 782l133 156h28l133 -156h-27l-121 114l-120 -114h-26zM101 0v740h424v-36h-385v-293h290v-36h-290v-339h400v-36h-439z" />
    <glyph glyph-name="Edieresis" unicode="&#xcb;" horiz-adv-x="589" 
d="M216 787v58h49v-58h-49zM374 787v58h48v-58h-48zM101 0v740h424v-36h-385v-293h290v-36h-290v-339h400v-36h-439z" />
    <glyph glyph-name="Egrave" unicode="&#xc8;" horiz-adv-x="589" 
d="M101 0v740h424v-36h-385v-293h290v-36h-290v-339h400v-36h-439zM328 787l-136 151h59l101 -151h-24z" />
    <glyph glyph-name="Iacute" unicode="&#xcd;" horiz-adv-x="258" 
d="M110 0v740h38v-740h-38zM119 787l100 151h59l-136 -151h-23z" />
    <glyph glyph-name="Icircumflex" unicode="&#xce;" horiz-adv-x="258" 
d="M110 0v740h38v-740h-38zM-18 782l133 156h28l133 -156h-27l-121 114l-120 -114h-26z" />
    <glyph glyph-name="Idieresis" unicode="&#xcf;" horiz-adv-x="258" 
d="M110 0v740h38v-740h-38zM26 787v58h49v-58h-49zM184 787v58h48v-58h-48z" />
    <glyph glyph-name="Igrave" unicode="&#xcc;" horiz-adv-x="258" 
d="M110 0v740h38v-740h-38zM122 787l-136 151h59l101 -151h-24z" />
    <glyph glyph-name="Ntilde" unicode="&#xd1;" horiz-adv-x="733" 
d="M101 0v740h44l449 -667v667h38v-740h-35l-459 682v-682h-37zM222 787c0 63 24 92 73 92c27 0 56 -15 83 -31c25 -14 49 -28 70 -28c32 0 44 17 44 58h29c0 -63 -24 -92 -74 -92c-27 0 -57 17 -84 32c-24 14 -48 27 -69 27c-32 0 -44 -17 -44 -58h-28z" />
    <glyph glyph-name="Oacute" unicode="&#xd3;" horiz-adv-x="732" 
d="M336 787l100 151h59l-136 -151h-23zM366 -14c-176 0 -301 158 -301 384s125 384 301 384c175 0 301 -158 301 -384s-126 -384 -301 -384zM366 21c151 0 263 137 263 349s-112 349 -263 349c-153 0 -262 -137 -262 -349s109 -349 262 -349z" />
    <glyph glyph-name="Ocircumflex" unicode="&#xd4;" horiz-adv-x="732" 
d="M218 782l133 156h28l133 -156h-27l-121 114l-120 -114h-26zM366 -14c-176 0 -301 158 -301 384s125 384 301 384c175 0 301 -158 301 -384s-126 -384 -301 -384zM366 21c151 0 263 137 263 349s-112 349 -263 349c-153 0 -262 -137 -262 -349s109 -349 262 -349z" />
    <glyph glyph-name="Odieresis" unicode="&#xd6;" horiz-adv-x="732" 
d="M262 787v58h49v-58h-49zM420 787v58h48v-58h-48zM366 -14c-176 0 -301 158 -301 384s125 384 301 384c175 0 301 -158 301 -384s-126 -384 -301 -384zM366 21c151 0 263 137 263 349s-112 349 -263 349c-153 0 -262 -137 -262 -349s109 -349 262 -349z" />
    <glyph glyph-name="Ograve" unicode="&#xd2;" horiz-adv-x="732" 
d="M366 -14c-176 0 -301 158 -301 384s125 384 301 384c175 0 301 -158 301 -384s-126 -384 -301 -384zM366 21c151 0 263 137 263 349s-112 349 -263 349c-153 0 -262 -137 -262 -349s109 -349 262 -349zM370 787l-136 151h59l101 -151h-24z" />
    <glyph glyph-name="Otilde" unicode="&#xd5;" horiz-adv-x="732" 
d="M366 -14c-176 0 -301 158 -301 384s125 384 301 384c175 0 301 -158 301 -384s-126 -384 -301 -384zM366 21c151 0 263 137 263 349s-112 349 -263 349c-153 0 -262 -137 -262 -349s109 -349 262 -349zM216 787c0 63 24 92 73 92c27 0 56 -15 83 -31
c25 -14 49 -28 70 -28c32 0 44 17 44 58h29c0 -63 -24 -92 -74 -92c-27 0 -57 17 -84 32c-24 14 -48 27 -69 27c-32 0 -44 -17 -44 -58h-28z" />
    <glyph glyph-name="Scaron" unicode="&#x160;" horiz-adv-x="636" 
d="M303 792l-133 156h27l121 -114l120 114h26l-133 -156h-28zM326 -14c-151 0 -232 80 -265 199l38 10c31 -110 98 -174 228 -174c124 0 204 61 204 156c0 93 -42 136 -210 190s-228 96 -228 211c0 95 86 176 217 176c135 0 210 -74 241 -172l-37 -12
c-34 99 -99 149 -204 149c-112 0 -178 -65 -178 -140c0 -94 54 -128 211 -179c161 -52 227 -99 227 -222c0 -120 -105 -192 -244 -192z" />
    <glyph glyph-name="Uacute" unicode="&#xda;" horiz-adv-x="712" 
d="M321 787l100 151h59l-136 -151h-23zM355 -14c-171 0 -259 115 -259 254v500h39v-504c0 -114 74 -215 221 -215c144 0 221 98 221 216v503h38v-502c0 -136 -90 -252 -260 -252z" />
    <glyph glyph-name="Ucircumflex" unicode="&#xdb;" horiz-adv-x="712" 
d="M208 782l133 156h28l133 -156h-27l-121 114l-120 -114h-26zM355 -14c-171 0 -259 115 -259 254v500h39v-504c0 -114 74 -215 221 -215c144 0 221 98 221 216v503h38v-502c0 -136 -90 -252 -260 -252z" />
    <glyph glyph-name="Udieresis" unicode="&#xdc;" horiz-adv-x="712" 
d="M252 787v58h49v-58h-49zM410 787v58h48v-58h-48zM355 -14c-171 0 -259 115 -259 254v500h39v-504c0 -114 74 -215 221 -215c144 0 221 98 221 216v503h38v-502c0 -136 -90 -252 -260 -252z" />
    <glyph glyph-name="Ugrave" unicode="&#xd9;" horiz-adv-x="712" 
d="M355 -14c-171 0 -259 115 -259 254v500h39v-504c0 -114 74 -215 221 -215c144 0 221 98 221 216v503h38v-502c0 -136 -90 -252 -260 -252zM363 787l-136 151h59l101 -151h-24z" />
    <glyph glyph-name="Yacute" unicode="&#xdd;" horiz-adv-x="599" 
d="M280 0v333l-249 407h43l227 -373l226 373h41l-249 -407v-333h-39zM244 792l100 151h59l-136 -151h-23z" />
    <glyph glyph-name="Ydieresis" unicode="&#x178;" horiz-adv-x="599" 
d="M280 0v333l-249 407h43l227 -373l226 373h41l-249 -407v-333h-39zM196 787v58h49v-58h-49zM354 787v58h48v-58h-48z" />
    <glyph glyph-name="Zcaron" unicode="&#x17d;" horiz-adv-x="614" 
d="M292 792l-133 156h27l121 -114l120 114h26l-133 -156h-28zM46 0v31l469 675h-441v34h486v-31l-468 -675h467v-34h-513z" />
    <glyph glyph-name="ae" unicode="&#xe6;" horiz-adv-x="897" 
d="M201 -12c-94 0 -147 48 -147 129c0 111 105 182 365 223v37c0 81 -41 126 -120 126c-92 0 -152 -41 -202 -87l-26 22c54 53 125 98 228 98c97 0 144 -52 153 -125c33 75 104 125 185 125c118 0 204 -97 204 -267v-5h-387v-13c4 -129 74 -229 182 -229
c83 0 134 48 176 114l27 -18c-43 -71 -106 -129 -205 -129c-81 0 -148 47 -184 122c-64 -65 -152 -123 -249 -123zM203 21c88 0 168 48 234 120c-13 36 -20 77 -20 121c0 11 1 42 1 49c-259 -42 -327 -110 -327 -192c0 -64 42 -98 112 -98zM455 295h348
c-7 126 -68 208 -167 208c-86 0 -169 -68 -181 -208z" />
    <glyph glyph-name="oe" unicode="&#x153;" horiz-adv-x="952" 
d="M283 -11c-125 0 -227 109 -227 273c0 167 101 274 227 274c99 0 178 -68 208 -168c30 106 111 168 201 168c118 0 204 -97 204 -267v-5h-386v-10c2 -131 73 -232 181 -232c83 0 134 48 176 114l27 -18c-43 -71 -106 -129 -204 -129c-100 0 -172 74 -200 169
c-30 -100 -108 -169 -207 -169zM283 22c112 0 190 102 190 241c0 134 -75 240 -190 240c-112 0 -190 -101 -190 -240c0 -134 74 -241 190 -241zM511 295h347c-7 126 -68 208 -166 208c-87 0 -170 -68 -181 -208z" />
    <glyph glyph-name="eth" unicode="&#xf0;" horiz-adv-x="568" 
d="M284 -11c-125 0 -227 110 -227 273c0 167 101 270 227 270c70 0 138 -40 175 -104c-20 70 -55 139 -110 200l-105 -44l-12 28l94 39c-24 25 -52 46 -82 67l18 25c35 -24 68 -49 96 -79l108 45l11 -28l-96 -41c83 -96 131 -219 131 -378c0 -163 -105 -273 -228 -273z
M284 20c111 0 193 102 193 242c0 137 -80 239 -193 239c-112 0 -193 -98 -193 -239c0 -135 78 -242 193 -242z" />
    <glyph glyph-name="thorn" unicode="&#xfe;" horiz-adv-x="582" 
d="M85 -200v940h37v-296c40 43 101 92 183 92c124 0 219 -89 219 -273s-95 -274 -220 -274c-78 0 -135 42 -182 92v-281h-37zM306 22c100 0 181 74 181 240s-83 241 -183 241c-78 0 -135 -47 -182 -98v-284c61 -64 113 -99 184 -99z" />
    <glyph glyph-name="lslash" unicode="&#x142;" horiz-adv-x="270" 
d="M117 0v470l-104 -31v33l104 31v237h36v-227l106 31v-32l-106 -32v-480h-36z" />
    <glyph glyph-name="oslash" unicode="&#xf8;" horiz-adv-x="569" 
d="M106 -26l-24 16l46 69c-44 48 -72 118 -72 203c0 167 102 274 228 274c49 0 96 -17 133 -48l45 68l24 -16l-48 -71c45 -48 74 -119 74 -207c0 -164 -103 -273 -228 -273c-50 0 -97 18 -135 50zM284 22c112 0 192 102 192 241c0 70 -21 133 -58 176l-250 -372
c31 -29 71 -45 116 -45zM148 89l250 371c-31 27 -70 43 -114 43c-112 0 -191 -101 -191 -240c0 -69 20 -131 55 -174z" />
    <glyph glyph-name="germandbls" unicode="&#xdf;" horiz-adv-x="594" 
d="M352 -10c-69 0 -113 26 -142 55l23 25c28 -27 61 -47 121 -47c86 0 144 67 144 182c0 134 -93 193 -236 197v32c120 1 171 66 171 136c0 90 -65 137 -154 137c-99 0 -157 -65 -157 -182v-525h-37v523c0 137 74 217 195 217c108 0 190 -59 190 -170
c0 -68 -43 -132 -131 -151c113 -15 196 -83 196 -212c0 -134 -72 -217 -183 -217z" />
    <glyph glyph-name="aacute" unicode="&#xe1;" horiz-adv-x="535" 
d="M201 -12c-94 0 -147 48 -147 129c0 111 105 182 365 223v37c0 81 -40 126 -120 126c-92 0 -152 -41 -202 -87l-26 22c54 53 126 98 229 98c107 0 156 -61 156 -156v-257c0 -66 4 -95 14 -123h-39c-8 23 -11 46 -12 85c-55 -51 -131 -97 -218 -97zM203 21
c86 0 166 50 216 102v188c-259 -42 -328 -111 -328 -192c0 -64 42 -98 112 -98zM241 582l100 151h59l-136 -151h-23z" />
    <glyph glyph-name="acircumflex" unicode="&#xe2;" horiz-adv-x="535" 
d="M201 -12c-94 0 -147 48 -147 129c0 111 105 182 365 223v37c0 81 -40 126 -120 126c-92 0 -152 -41 -202 -87l-26 22c54 53 126 98 229 98c107 0 156 -61 156 -156v-257c0 -66 4 -95 14 -123h-39c-8 23 -11 46 -12 85c-55 -51 -131 -97 -218 -97zM203 21
c86 0 166 50 216 102v188c-259 -42 -328 -111 -328 -192c0 -64 42 -98 112 -98zM124 577l133 156h28l133 -156h-27l-121 114l-120 -114h-26z" />
    <glyph glyph-name="adieresis" unicode="&#xe4;" horiz-adv-x="535" 
d="M201 -12c-94 0 -147 48 -147 129c0 111 105 182 365 223v37c0 81 -40 126 -120 126c-92 0 -152 -41 -202 -87l-26 22c54 53 126 98 229 98c107 0 156 -61 156 -156v-257c0 -66 4 -95 14 -123h-39c-8 23 -11 46 -12 85c-55 -51 -131 -97 -218 -97zM203 21
c86 0 166 50 216 102v188c-259 -42 -328 -111 -328 -192c0 -64 42 -98 112 -98zM171 582v58h49v-58h-49zM329 582v58h48v-58h-48z" />
    <glyph glyph-name="agrave" unicode="&#xe0;" horiz-adv-x="535" 
d="M201 -12c-94 0 -147 48 -147 129c0 111 105 182 365 223v37c0 81 -40 126 -120 126c-92 0 -152 -41 -202 -87l-26 22c54 53 126 98 229 98c107 0 156 -61 156 -156v-257c0 -66 4 -95 14 -123h-39c-8 23 -11 46 -12 85c-55 -51 -131 -97 -218 -97zM203 21
c86 0 166 50 216 102v188c-259 -42 -328 -111 -328 -192c0 -64 42 -98 112 -98zM282 582l-136 151h59l101 -151h-24z" />
    <glyph glyph-name="aring" unicode="&#xe5;" horiz-adv-x="535" 
d="M201 -12c-94 0 -147 48 -147 129c0 111 105 182 365 223v37c0 81 -40 126 -120 126c-92 0 -152 -41 -202 -87l-26 22c54 53 126 98 229 98c107 0 156 -61 156 -156v-257c0 -66 4 -95 14 -123h-39c-8 23 -11 46 -12 85c-55 -51 -131 -97 -218 -97zM203 21
c86 0 166 50 216 102v188c-259 -42 -328 -111 -328 -192c0 -64 42 -98 112 -98zM275 580c-50 0 -87 37 -87 87c0 49 37 86 87 86s88 -37 88 -86c0 -50 -38 -87 -88 -87zM275 605c35 0 60 26 60 62c0 35 -25 60 -60 60s-60 -25 -60 -60c0 -36 25 -62 60 -62z" />
    <glyph glyph-name="atilde" unicode="&#xe3;" horiz-adv-x="535" 
d="M201 -12c-94 0 -147 48 -147 129c0 111 105 182 365 223v37c0 81 -40 126 -120 126c-92 0 -152 -41 -202 -87l-26 22c54 53 126 98 229 98c107 0 156 -61 156 -156v-257c0 -66 4 -95 14 -123h-39c-8 23 -11 46 -12 85c-55 -51 -131 -97 -218 -97zM203 21
c86 0 166 50 216 102v188c-259 -42 -328 -111 -328 -192c0 -64 42 -98 112 -98zM121 582c0 63 24 92 73 92c27 0 56 -15 83 -31c25 -14 49 -28 70 -28c32 0 44 17 44 58h29c0 -63 -24 -92 -74 -92c-27 0 -57 17 -84 32c-24 14 -48 27 -69 27c-32 0 -44 -17 -44 -58h-28z" />
    <glyph glyph-name="ccedilla" unicode="&#xe7;" horiz-adv-x="526" 
d="M265 -193c-41 0 -85 13 -119 36l14 22c31 -21 67 -32 102 -32c53 0 84 20 84 57c0 22 -17 38 -46 38c-20 0 -38 -8 -60 -24l-21 12l22 76c-107 18 -185 125 -185 270c0 186 110 274 225 274c102 0 155 -60 190 -141l-32 -17c-32 77 -75 125 -160 125
c-89 0 -186 -69 -186 -240c0 -142 77 -241 183 -241c84 0 127 45 168 128l30 -15c-45 -93 -101 -146 -200 -146h-3l-16 -53c14 12 33 19 55 19c38 0 70 -24 70 -63c0 -60 -52 -85 -115 -85z" />
    <glyph glyph-name="eacute" unicode="&#xe9;" horiz-adv-x="537" 
d="M243 582l100 151h59l-136 -151h-23zM274 -11c-128 0 -218 116 -218 273c0 185 111 274 220 274c118 0 205 -97 205 -267v-5h-388v-6c0 -134 73 -236 182 -236c83 0 135 48 177 114l27 -18c-43 -71 -106 -129 -205 -129zM94 295h349c-7 126 -69 208 -167 208
c-86 0 -171 -68 -182 -208z" />
    <glyph glyph-name="ecircumflex" unicode="&#xea;" horiz-adv-x="537" 
d="M125 577l133 156h28l133 -156h-27l-121 114l-120 -114h-26zM274 -11c-128 0 -218 116 -218 273c0 185 111 274 220 274c118 0 205 -97 205 -267v-5h-388v-6c0 -134 73 -236 182 -236c83 0 135 48 177 114l27 -18c-43 -71 -106 -129 -205 -129zM94 295h349
c-7 126 -69 208 -167 208c-86 0 -171 -68 -182 -208z" />
    <glyph glyph-name="edieresis" unicode="&#xeb;" horiz-adv-x="537" 
d="M167 582v58h49v-58h-49zM325 582v58h48v-58h-48zM274 -11c-128 0 -218 116 -218 273c0 185 111 274 220 274c118 0 205 -97 205 -267v-5h-388v-6c0 -134 73 -236 182 -236c83 0 135 48 177 114l27 -18c-43 -71 -106 -129 -205 -129zM94 295h349c-7 126 -69 208 -167 208
c-86 0 -171 -68 -182 -208z" />
    <glyph glyph-name="egrave" unicode="&#xe8;" horiz-adv-x="537" 
d="M274 -11c-128 0 -218 116 -218 273c0 185 111 274 220 274c118 0 205 -97 205 -267v-5h-388v-6c0 -134 73 -236 182 -236c83 0 135 48 177 114l27 -18c-43 -71 -106 -129 -205 -129zM94 295h349c-7 126 -69 208 -167 208c-86 0 -171 -68 -182 -208zM275 582l-136 151h59
l101 -151h-24z" />
    <glyph glyph-name="dotlessi" unicode="&#x131;" horiz-adv-x="217" 
d="M90 0v525h37v-525h-37z" />
    <glyph glyph-name="iacute" unicode="&#xed;" horiz-adv-x="217" 
d="M100 582l100 151h59l-136 -151h-23zM90 0v525h37v-525h-37z" />
    <glyph glyph-name="icircumflex" unicode="&#xee;" horiz-adv-x="217" 
d="M-39 577l133 156h28l133 -156h-27l-121 114l-120 -114h-26zM90 0v525h37v-525h-37z" />
    <glyph glyph-name="idieresis" unicode="&#xef;" horiz-adv-x="217" 
d="M5 582v58h49v-58h-49zM163 582v58h48v-58h-48zM90 0v525h37v-525h-37z" />
    <glyph glyph-name="igrave" unicode="&#xec;" horiz-adv-x="217" 
d="M90 0v525h37v-525h-37zM103 582l-136 151h59l101 -151h-24z" />
    <glyph glyph-name="ntilde" unicode="&#xf1;" horiz-adv-x="569" 
d="M85 0v525h37v-89c49 45 122 100 209 100c111 0 159 -60 159 -160v-376h-36v373c0 87 -39 130 -126 130c-77 0 -144 -43 -206 -103v-400h-37zM139 582c0 63 24 92 73 92c27 0 56 -15 83 -31c25 -14 49 -28 70 -28c32 0 44 17 44 58h29c0 -63 -24 -92 -74 -92
c-27 0 -57 17 -84 32c-24 14 -48 27 -69 27c-32 0 -44 -17 -44 -58h-28z" />
    <glyph glyph-name="oacute" unicode="&#xf3;" horiz-adv-x="569" 
d="M255 582l100 151h59l-136 -151h-23zM284 -11c-125 0 -228 109 -228 273c0 167 102 274 228 274c125 0 228 -107 228 -274c0 -164 -103 -273 -228 -273zM284 22c112 0 192 102 192 241c0 134 -77 240 -192 240c-112 0 -191 -101 -191 -240c0 -134 76 -241 191 -241z" />
    <glyph glyph-name="ocircumflex" unicode="&#xf4;" horiz-adv-x="569" 
d="M137 577l133 156h28l133 -156h-27l-121 114l-120 -114h-26zM284 -11c-125 0 -228 109 -228 273c0 167 102 274 228 274c125 0 228 -107 228 -274c0 -164 -103 -273 -228 -273zM284 22c112 0 192 102 192 241c0 134 -77 240 -192 240c-112 0 -191 -101 -191 -240
c0 -134 76 -241 191 -241z" />
    <glyph glyph-name="odieresis" unicode="&#xf6;" horiz-adv-x="569" 
d="M180 582v58h49v-58h-49zM338 582v58h48v-58h-48zM284 -11c-125 0 -228 109 -228 273c0 167 102 274 228 274c125 0 228 -107 228 -274c0 -164 -103 -273 -228 -273zM284 22c112 0 192 102 192 241c0 134 -77 240 -192 240c-112 0 -191 -101 -191 -240
c0 -134 76 -241 191 -241z" />
    <glyph glyph-name="ograve" unicode="&#xf2;" horiz-adv-x="569" 
d="M284 -11c-125 0 -228 109 -228 273c0 167 102 274 228 274c125 0 228 -107 228 -274c0 -164 -103 -273 -228 -273zM284 22c112 0 192 102 192 241c0 134 -77 240 -192 240c-112 0 -191 -101 -191 -240c0 -134 76 -241 191 -241zM288 582l-136 151h59l101 -151h-24z" />
    <glyph glyph-name="otilde" unicode="&#xf5;" horiz-adv-x="569" 
d="M284 -11c-125 0 -228 109 -228 273c0 167 102 274 228 274c125 0 228 -107 228 -274c0 -164 -103 -273 -228 -273zM284 22c112 0 192 102 192 241c0 134 -77 240 -192 240c-112 0 -191 -101 -191 -240c0 -134 76 -241 191 -241zM136 582c0 63 24 92 73 92
c27 0 56 -15 83 -31c25 -14 49 -28 70 -28c32 0 44 17 44 58h29c0 -63 -24 -92 -74 -92c-27 0 -57 17 -84 32c-24 14 -48 27 -69 27c-32 0 -44 -17 -44 -58h-28z" />
    <glyph glyph-name="scaron" unicode="&#x161;" 
d="M236 582l-133 156h27l121 -114l120 114h26l-133 -156h-28zM246 -11c-91 0 -156 42 -194 97l28 21c37 -51 89 -85 166 -85c101 0 159 43 159 113c0 71 -57 100 -164 127c-120 32 -174 63 -174 147c0 66 59 127 169 127c88 0 144 -35 184 -78l-27 -25
c-37 42 -83 70 -158 70c-92 0 -131 -46 -131 -93c0 -64 50 -88 142 -112c128 -35 195 -67 195 -163c0 -90 -79 -146 -195 -146z" />
    <glyph glyph-name="uacute" unicode="&#xfa;" horiz-adv-x="569" 
d="M254 582l100 151h59l-136 -151h-23zM238 -11c-112 0 -160 60 -160 160v376h37v-373c0 -87 38 -130 125 -130c77 0 144 43 207 103v400h37v-525h-37v89c-49 -45 -123 -100 -209 -100z" />
    <glyph glyph-name="ucircumflex" unicode="&#xfb;" horiz-adv-x="569" 
d="M135 577l133 156h28l133 -156h-27l-121 114l-120 -114h-26zM238 -11c-112 0 -160 60 -160 160v376h37v-373c0 -87 38 -130 125 -130c77 0 144 43 207 103v400h37v-525h-37v89c-49 -45 -123 -100 -209 -100z" />
    <glyph glyph-name="udieresis" unicode="&#xfc;" horiz-adv-x="569" 
d="M180 582v58h49v-58h-49zM338 582v58h48v-58h-48zM238 -11c-112 0 -160 60 -160 160v376h37v-373c0 -87 38 -130 125 -130c77 0 144 43 207 103v400h37v-525h-37v89c-49 -45 -123 -100 -209 -100z" />
    <glyph glyph-name="ugrave" unicode="&#xf9;" horiz-adv-x="569" 
d="M238 -11c-112 0 -160 60 -160 160v376h37v-373c0 -87 38 -130 125 -130c77 0 144 43 207 103v400h37v-525h-37v89c-49 -45 -123 -100 -209 -100zM289 582l-136 151h59l101 -151h-24z" />
    <glyph glyph-name="yacute" unicode="&#xfd;" horiz-adv-x="511" 
d="M83 -201c-28 0 -52 3 -78 10l9 32c22 -6 45 -9 72 -9c66 0 100 29 124 92l27 72l-203 529h40l182 -483l181 483h39l-230 -601c-33 -85 -72 -125 -163 -125zM199 582l100 151h59l-136 -151h-23z" />
    <glyph glyph-name="ydieresis" unicode="&#xff;" horiz-adv-x="511" 
d="M83 -201c-28 0 -52 3 -78 10l9 32c22 -6 45 -9 72 -9c66 0 100 29 124 92l27 72l-203 529h40l182 -483l181 483h39l-230 -601c-33 -85 -72 -125 -163 -125zM151 582v58h49v-58h-49zM309 582v58h48v-58h-48z" />
    <glyph glyph-name="zcaron" unicode="&#x17e;" 
d="M51 0v27l338 465h-315v33h363v-27l-340 -465h352v-33h-398zM236 582l-133 156h27l121 -114l120 114h26l-133 -156h-28z" />
    <glyph glyph-name="at" unicode="@" horiz-adv-x="868" 
d="M432 -13c-231 0 -379 171 -379 382c0 224 165 385 382 385s382 -153 382 -374c0 -148 -75 -221 -159 -221c-62 0 -102 33 -114 74c-49 -44 -103 -75 -168 -75c-85 0 -151 51 -151 164c0 147 78 269 205 269c64 0 109 -26 143 -58l7 49h35l-43 -297c-9 -56 25 -96 87 -96
c69 0 127 59 127 191c0 204 -151 344 -351 344s-351 -148 -351 -355c0 -199 139 -353 348 -353c84 0 147 19 213 52l12 -26c-68 -34 -138 -55 -225 -55zM375 190c60 0 105 22 160 73c0 3 3 25 3 29l30 204c-33 37 -79 62 -144 62c-103 0 -163 -110 -163 -234
c0 -94 49 -134 114 -134z" />
    <glyph glyph-name="registered" unicode="&#xae;" horiz-adv-x="561" 
d="M281 290c-129 0 -232 104 -232 233s103 233 232 233s231 -104 231 -233s-102 -233 -231 -233zM281 313c116 0 208 94 208 210s-92 211 -208 211c-115 0 -208 -95 -208 -211s93 -210 208 -210zM201 395v261h87c58 0 90 -26 90 -71c0 -43 -26 -65 -67 -71l71 -119h-28
l-69 116h-60v-116h-24zM225 534h61c41 0 68 14 68 51c0 33 -25 47 -67 47h-62v-98z" />
    <glyph glyph-name="copyright" unicode="&#xa9;" horiz-adv-x="862" 
d="M429 156c-106 0 -173 91 -173 222c0 123 67 218 173 218c83 0 131 -49 154 -134c0 0 -27 -7 -29 -7c-20 73 -56 113 -125 113c-88 0 -144 -81 -144 -190c0 -117 55 -194 144 -194c68 0 112 41 132 118c0 0 25 -7 28 -7c-23 -89 -79 -139 -160 -139zM431 -14
c-212 0 -381 172 -381 384s169 384 381 384s381 -172 381 -384s-169 -384 -381 -384zM431 13c196 0 353 161 353 357s-157 357 -353 357s-353 -161 -353 -357s157 -357 353 -357z" />
    <glyph glyph-name="trademark" unicode="&#x2122;" horiz-adv-x="863" 
d="M419 317v423h37l152 -377l153 377h37v-423h-33v356l-144 -356h-29l-143 354v-354h-30zM168 317v393h-137v30h308v-30h-138v-393h-33z" />
    <glyph glyph-name="plus" unicode="+" horiz-adv-x="630" 
d="M297 40v233h-232v34h232v233h36v-233h232v-34h-232v-233h-36z" />
    <glyph glyph-name="minus" unicode="&#x2212;" horiz-adv-x="630" 
d="M65 273v34h500v-34h-500z" />
    <glyph glyph-name="multiply" unicode="&#xd7;" horiz-adv-x="630" 
d="M150 100l-24 24l165 165l-165 165l24 24l165 -165l165 165l24 -24l-165 -165l165 -165l-24 -24l-165 165z" />
    <glyph glyph-name="divide" unicode="&#xf7;" horiz-adv-x="630" 
d="M65 273v34h500v-34h-500zM291 427v66h48v-66h-48zM291 87v66h48v-66h-48z" />
    <glyph glyph-name="equal" unicode="=" horiz-adv-x="668" 
d="M88 386v36h492v-36h-492zM88 160v35h492v-35h-492z" />
    <glyph glyph-name="less" unicode="&#x3c;" horiz-adv-x="667" 
d="M586 50l-520 224v33l520 223v-38l-476 -202l476 -202v-38z" />
    <glyph glyph-name="greater" unicode="&#x3e;" horiz-adv-x="667" 
d="M81 50v38l476 201l-476 203v38l520 -224v-34z" />
    <glyph glyph-name="dollar" unicode="$" horiz-adv-x="636" 
d="M300 -93v85c-132 7 -199 76 -230 141l32 19c41 -75 94 -120 199 -126v350c-134 42 -208 84 -208 199c0 90 75 170 207 174v70h36v-70c104 -7 162 -60 197 -120l-31 -21c-37 61 -83 100 -167 106v-311c137 -43 235 -84 235 -221c0 -114 -95 -187 -234 -191v-84h-36z
M335 27c111 3 196 52 196 154c0 106 -72 144 -196 184v-338zM301 414v300c-113 -4 -169 -66 -169 -137c0 -92 60 -127 169 -163z" />
    <glyph glyph-name="cent" unicode="&#xa2;" horiz-adv-x="526" 
d="M137 -129l38 145c-72 43 -119 134 -119 246c0 186 110 274 225 274c11 0 21 -1 32 -2l27 104h32l-29 -111c63 -19 101 -69 128 -132l-32 -17c-24 59 -55 101 -105 116l-123 -459c20 -8 42 -13 65 -13c84 0 127 45 168 128l30 -15c-45 -93 -101 -146 -200 -146
c-25 0 -49 5 -71 13l-35 -131h-31zM184 51l120 451c-7 1 -16 1 -25 1c-89 0 -186 -69 -186 -240c0 -96 35 -173 91 -212z" />
    <glyph glyph-name="Euro" unicode="&#x20ac;" horiz-adv-x="722" 
d="M411 -15c-147 0 -251 120 -279 295h-112v33h108c-2 20 -3 41 -3 62c0 19 1 37 3 55h-108v33h112c26 172 132 292 276 292c141 0 208 -99 243 -224l-35 -9c-34 114 -84 200 -209 200c-123 0 -214 -104 -239 -259h249v-33h-254c-1 -18 -2 -36 -2 -54c0 -22 1 -43 3 -63h253
v-33h-249c26 -159 117 -262 244 -262c129 0 187 98 217 209l35 -9c-29 -110 -101 -233 -253 -233z" />
    <glyph glyph-name="sterling" unicode="&#xa3;" horiz-adv-x="589" 
d="M142 -14c-55 0 -103 35 -103 95c0 64 40 106 105 106c44 0 78 -23 109 -53c5 20 7 45 7 70c0 59 -19 116 -50 172h-124v35h105c-33 60 -53 114 -53 169c0 110 75 174 179 174c127 0 178 -95 183 -183l-38 -2c-4 77 -45 151 -146 151c-81 0 -140 -49 -140 -139
c0 -53 23 -107 57 -170h173v-35h-154c28 -55 45 -112 45 -169c0 -38 -5 -72 -14 -102c40 -42 81 -84 140 -84c67 0 95 55 99 155h37c-5 -114 -44 -190 -137 -190c-67 0 -111 43 -153 86c-27 -55 -71 -86 -127 -86zM142 18c46 0 81 29 101 80l-4 4c-29 28 -58 52 -96 52
c-41 0 -69 -27 -69 -72c0 -39 29 -64 68 -64z" />
    <glyph glyph-name="yen" unicode="&#xa5;" horiz-adv-x="599" 
d="M280 0v138h-198v36h198v114h-198v36h198v9l-249 407h43l227 -373l226 373h41l-249 -407v-9h200v-36h-200v-114h200v-36h-200v-138h-39z" />
    <glyph glyph-name="florin" unicode="&#x192;" horiz-adv-x="360" 
d="M-53 -190c-10 0 -23 2 -31 2l4 31c8 -1 21 -1 32 -1c56 0 94 23 102 80l79 562h-93l4 32h93l14 98c13 91 71 127 162 127h26l-3 -32h-28c-70 0 -114 -26 -123 -95l-14 -98h129l-4 -32h-129l-79 -562c-12 -79 -65 -112 -141 -112z" />
    <glyph glyph-name="numbersign" unicode="#" horiz-adv-x="692" 
d="M123 0l47 228h-121v35h129l45 216h-130v34h137l48 227h35l-47 -227h220l47 227h36l-48 -227h122v-34h-129l-45 -216h131v-35h-138l-48 -228h-36l48 228h-220l-48 -228h-35zM213 263h220l45 216h-219z" />
    <glyph glyph-name="section" unicode="&#xa7;" horiz-adv-x="515" 
d="M258 -200c-121 0 -171 65 -189 147l36 8c17 -70 56 -120 152 -120c89 0 132 49 132 103c0 67 -40 101 -146 162c-129 74 -185 113 -185 192c0 88 64 136 135 167c-77 50 -106 89 -106 155c0 72 63 140 171 140c121 0 171 -65 188 -147l-36 -8c-16 70 -55 120 -152 120
c-89 0 -132 -49 -132 -103c0 -67 40 -101 147 -162c128 -74 184 -113 184 -192c0 -88 -64 -136 -135 -167c78 -50 106 -89 106 -155c0 -72 -63 -140 -170 -140zM289 116c82 34 130 76 130 145c0 64 -52 95 -167 162l-26 15c-82 -34 -130 -76 -130 -145
c0 -64 52 -95 167 -162z" />
    <glyph glyph-name="paragraph" unicode="&#xb6;" horiz-adv-x="604" 
d="M299 -200v567c-146 1 -228 63 -228 186c0 107 76 187 215 187h216v-940h-37v905h-128v-905h-38z" />
    <glyph glyph-name="percent" unicode="%" horiz-adv-x="937" 
d="M708 -8c-98 0 -156 85 -156 216c0 135 62 219 158 219s157 -83 157 -217c0 -131 -61 -218 -159 -218zM226 313c-99 0 -156 86 -156 216c0 136 62 219 158 219c95 0 157 -83 157 -217c0 -130 -61 -218 -159 -218zM226 347c76 0 121 78 121 183c0 110 -44 184 -120 184
s-120 -77 -120 -183c0 -109 43 -184 119 -184zM709 26c76 0 120 77 120 183c0 110 -44 184 -120 184s-119 -78 -119 -183c0 -110 43 -184 119 -184zM228 0l441 740h38l-442 -740h-37z" />
    <glyph glyph-name="perthousand" unicode="&#x2030;" horiz-adv-x="1335" 
d="M708 -8c-99 0 -157 85 -157 216c0 135 63 219 159 219c95 0 157 -83 157 -217c0 -131 -62 -218 -159 -218zM1107 -8c-98 0 -156 85 -156 216c0 135 63 219 158 219c96 0 157 -83 157 -217c0 -131 -61 -218 -159 -218zM225 313c-98 0 -156 86 -156 216
c0 136 63 219 158 219c96 0 157 -83 157 -217c0 -130 -61 -218 -159 -218zM226 347c76 0 121 78 121 183c0 110 -45 184 -121 184s-119 -77 -119 -183c0 -109 43 -184 119 -184zM708 26c76 0 121 77 121 183c0 110 -45 184 -120 184c-76 0 -120 -78 -120 -183
c0 -110 43 -184 119 -184zM1108 26c76 0 120 77 120 183c0 110 -44 184 -120 184s-119 -78 -119 -183c0 -110 43 -184 119 -184zM227 0l442 740h37l-441 -740h-38z" />
    <glyph glyph-name="degree" unicode="&#xb0;" horiz-adv-x="400" 
d="M200 484c-77 0 -136 57 -136 135s59 135 136 135s136 -57 136 -135s-59 -135 -136 -135zM200 515c58 0 101 43 101 104s-43 104 -101 104s-101 -43 -101 -104s43 -104 101 -104z" />
    <glyph glyph-name="ordfeminine" unicode="&#xaa;" horiz-adv-x="404" 
d="M165 371c-69 0 -107 35 -107 91c0 70 54 123 255 156v23c0 52 -26 83 -79 83c-60 0 -107 -26 -143 -62l-22 22c39 39 92 70 166 70c77 0 111 -44 111 -112v-175c0 -44 2 -66 13 -88h-36c-6 16 -9 29 -10 55c-41 -35 -93 -63 -148 -63zM167 402c54 0 105 27 146 67v121
c-179 -29 -221 -71 -221 -127c0 -40 26 -61 75 -61z" />
    <glyph glyph-name="ordmasculine" unicode="&#xba;" horiz-adv-x="419" 
d="M209 371c-89 0 -163 75 -163 191c0 120 73 192 163 192s164 -72 164 -192c0 -116 -74 -191 -164 -191zM209 401c78 0 131 68 131 162c0 91 -51 161 -131 161c-77 0 -130 -66 -130 -161c0 -91 50 -162 130 -162z" />
    <glyph glyph-name="onehalf" unicode="&#xbd;" horiz-adv-x="859" 
d="M522 0v13c0 77 29 121 153 199c63 40 91 70 91 116c0 56 -37 90 -97 90c-52 0 -88 -30 -111 -78l-30 14c27 58 77 96 141 96c79 0 131 -46 131 -122c0 -59 -33 -96 -113 -146c-99 -61 -126 -95 -130 -149h243v-33h-278zM171 0l465 740h36l-464 -740h-37zM71 300v32h88
v369c-20 -11 -57 -19 -86 -19v32c41 1 73 9 89 26h31v-408h79v-32h-201z" />
    <glyph glyph-name="onequarter" unicode="&#xbc;" horiz-adv-x="825" 
d="M71 300v32h88v369c-20 -11 -57 -19 -86 -19v32c41 1 73 9 89 26h31v-408h79v-32h-201zM674 0v114h-214v26l212 301h35v-295h77v-32h-77v-114h-33zM171 0l465 740h36l-464 -740h-37zM502 146h172v243z" />
    <glyph glyph-name="threequarters" unicode="&#xbe;" horiz-adv-x="855" 
d="M189 292c-74 0 -122 37 -151 89l28 17c27 -46 64 -74 123 -74c67 0 108 36 108 94c0 65 -33 103 -134 103h-25v30h26c82 0 125 24 125 85c0 48 -29 81 -97 81c-50 0 -82 -25 -106 -58l-27 18c29 41 70 72 133 72c93 0 131 -50 131 -112c0 -53 -29 -87 -79 -101
c60 -15 88 -58 88 -117c0 -75 -55 -127 -143 -127zM704 0v114h-213v26l212 301h35v-295h77v-32h-77v-114h-34zM202 0l465 740h36l-464 -740h-37zM532 146h172v243z" />
    <glyph glyph-name="fraction" unicode="&#x2044;" horiz-adv-x="456" 
d="M-9 0l435 740h39l-434 -740h-40z" />
    <glyph glyph-name="fraction" unicode="&#x2215;" horiz-adv-x="456" 
d="M-9 0l435 740h39l-434 -740h-40z" />
    <glyph glyph-name="lessequal" unicode="&#x2264;" horiz-adv-x="676" 
d="M588 141l-522 196v33l522 198v-36l-474 -178l474 -177v-36zM66 65v33h529v-33h-529z" />
    <glyph glyph-name="greaterequal" unicode="&#x2265;" horiz-adv-x="676" 
d="M88 141v36l475 177l-475 178v36l522 -198v-33zM81 65v33h529v-33h-529z" />
    <glyph glyph-name="notequal" unicode="&#x2260;" horiz-adv-x="601" 
d="M124 0v491h-92v34h92v95c0 82 49 118 136 120c8 1 18 1 26 1v-34h-29c-62 -2 -97 -25 -97 -84v-98h247v95c0 82 49 118 136 120c8 1 18 1 26 1v-34h-29c-62 -2 -97 -25 -97 -84v-98h121v-34h-121v-491h-36v491h-247v-491h-36z" />
    <glyph glyph-name="asciicircum" unicode="^" horiz-adv-x="629" 
d="M76 356l222 384h34l222 -384h-37l-202 350l-202 -350h-37z" />
    <glyph glyph-name="asciitilde" unicode="~" horiz-adv-x="629" 
d="M452 277c-58 2 -230 72 -278 74c-31 2 -53 -13 -57 -51l-30 2c4 60 42 86 93 84c57 -2 228 -72 275 -74c32 -1 54 10 57 48l30 -2c-5 -59 -40 -83 -90 -81z" />
    <glyph glyph-name="plusminus" unicode="&#xb1;" horiz-adv-x="816" 
d="M124 0v491h-92v34h92v95c0 82 49 118 136 120c8 1 18 1 26 1v-34h-29c-62 -2 -97 -25 -97 -84v-98h247v95c0 82 49 118 136 120c8 1 18 1 26 1v-34h-29c-62 -2 -97 -25 -97 -84v-98h121v-34h-121v-491h-36v491h-247v-491h-36zM689 0v740h37v-740h-37z" />
    <glyph glyph-name="infinity" unicode="&#x221e;" horiz-adv-x="816" 
d="M124 0v491h-92v34h92v95c0 82 49 118 136 120c8 1 18 1 26 1v-34h-29c-62 -2 -97 -25 -97 -84v-98h247v95c0 82 49 118 136 120c8 1 18 1 26 1v-34h-29c-62 -2 -97 -25 -97 -84v-98h121v-34h-121v-491h-36v491h-247v-491h-36zM689 0v525h37v-525h-37zM686 660v53h43v-53
h-43z" />
    <glyph glyph-name="mu" unicode="&#xb5;" horiz-adv-x="569" 
d="M78 -200v725h37v-373c0 -87 38 -130 125 -130c77 0 144 43 207 103v400h37v-525h-37v89c-49 -45 -123 -100 -209 -100c-57 0 -99 15 -123 54v-243h-37z" />
    <glyph glyph-name="mu" unicode="&#x3bc;" horiz-adv-x="569" 
d="M78 -200v725h37v-373c0 -87 38 -130 125 -130c77 0 144 43 207 103v400h37v-525h-37v89c-49 -45 -123 -100 -209 -100c-57 0 -99 15 -123 54v-243h-37z" />
    <glyph glyph-name="radical" unicode="&#x221a;" horiz-adv-x="579" 
d="M232 -3l-198 528h40l178 -482l254 697h39l-275 -743h-38z" />
    <glyph glyph-name="approxequal" unicode="&#x2248;" horiz-adv-x="614" 
d="M442 369c-62 0 -217 74 -269 74c-28 0 -48 -17 -52 -53l-30 2c4 58 40 84 88 84c59 0 212 -74 264 -74c30 0 50 12 53 48l30 -2c-5 -57 -37 -79 -84 -79zM439 180c-62 0 -217 74 -269 74c-28 0 -48 -17 -52 -53l-30 2c4 58 40 84 88 84c59 0 212 -74 264 -74
c30 0 50 12 53 48l30 -2c-5 -57 -37 -79 -84 -79z" />
    <glyph glyph-name="lozenge" unicode="&#x25ca;" horiz-adv-x="0" 
 />
    <glyph glyph-name="acute" unicode="&#xb4;" 
d="M195 582l100 151h59l-136 -151h-23z" />
    <glyph glyph-name="breve" unicode="&#x2d8;" 
d="M251 580c-77 0 -138 60 -143 159h27c7 -82 53 -125 116 -125c64 0 108 43 115 125h26c-5 -99 -63 -159 -141 -159z" />
    <glyph glyph-name="caron" unicode="&#x2c7;" 
d="M236 582l-133 156h27l121 -114l120 114h26l-133 -156h-28z" />
    <glyph glyph-name="cedilla" unicode="&#xb8;" 
d="M251 -194c-41 0 -85 13 -120 37l14 21c31 -21 67 -32 103 -32c52 0 84 20 84 58c0 22 -17 38 -46 38c-19 0 -38 -8 -61 -25l-20 12l25 85h29l-19 -65c14 12 33 20 55 20c39 0 70 -25 70 -63c0 -60 -51 -86 -114 -86z" />
    <glyph glyph-name="circumflex" unicode="&#x2c6;" 
d="M103 577l133 156h28l133 -156h-27l-121 114l-120 -114h-26z" />
    <glyph glyph-name="dieresis" unicode="&#xa8;" 
d="M147 582v58h49v-58h-49zM305 582v58h48v-58h-48z" />
    <glyph glyph-name="dotaccent" unicode="&#x2d9;" 
d="M225 607v57h50v-57h-50z" />
    <glyph glyph-name="grave" unicode="`" 
d="M282 582l-136 151h59l101 -151h-24z" />
    <glyph glyph-name="hungarumlaut" unicode="&#x2dd;" 
d="M116 582l100 151h60l-135 -151h-25zM267 582l99 151h60l-135 -151h-24z" />
    <glyph glyph-name="macron" unicode="&#xaf;" 
d="M147 582v35h206v-35h-206z" />
    <glyph glyph-name="macron" unicode="&#x2c9;" 
d="M147 582v35h206v-35h-206z" />
    <glyph glyph-name="ogonek" unicode="&#x2db;" 
d="M247 -186c-54 0 -89 27 -89 74c0 45 42 87 89 116h33c-43 -28 -87 -66 -87 -113c0 -33 22 -51 60 -51c29 0 59 8 91 23l10 -19c-36 -19 -73 -30 -107 -30z" />
    <glyph glyph-name="ring" unicode="&#x2da;" horiz-adv-x="520" 
d="M260 580c-50 0 -87 37 -87 87c0 49 37 86 87 86s88 -37 88 -86c0 -50 -38 -87 -88 -87zM260 605c35 0 60 26 60 62c0 35 -25 60 -60 60s-60 -25 -60 -60c0 -36 25 -62 60 -62z" />
    <glyph glyph-name="tilde" unicode="&#x2dc;" 
d="M101 582c0 63 24 92 73 92c27 0 56 -15 83 -31c25 -14 49 -28 70 -28c32 0 44 17 44 58h29c0 -63 -24 -92 -74 -92c-27 0 -57 17 -84 32c-24 14 -48 27 -69 27c-32 0 -44 -17 -44 -58h-28z" />
    <glyph glyph-name="apple" unicode="&#xf8ff;" horiz-adv-x="760" 
d="M360 0l7 198l-129 -5l1 -38h-38l1 37l-36 -1v38l37 -1l5 127l-198 -7v42l198 -7l-5 130l-37 -1v37l36 -1l-1 36h38l-1 -37l129 -4l-7 197h42l-7 -197l128 4l-1 37h37l-1 -36l37 1v-37l-38 1l-4 -130l197 7v-42l-197 7l4 -127l38 1v-38l-37 1l1 -37h-37l1 38l-128 5
l7 -198h-42zM233 383h134v135l-130 -4zM395 383h133l-4 131l-129 4v-135zM367 223v132h-134l4 -129zM395 223l129 3l4 129h-133v-132z" />
    <glyph glyph-name="onesuperior" unicode="&#xb9;" horiz-adv-x="322" 
d="M71 300v32h88v369c-20 -11 -57 -19 -86 -19v32c41 1 73 9 89 26h31v-408h79v-32h-201z" />
    <glyph glyph-name="twosuperior" unicode="&#xb2;" horiz-adv-x="411" 
d="M65 300v13c0 77 29 121 153 199c63 39 91 70 91 115c0 57 -37 90 -97 90c-52 0 -88 -30 -111 -78l-30 14c27 59 77 96 141 96c79 0 131 -46 131 -121c0 -60 -33 -97 -113 -146c-99 -61 -126 -96 -130 -149h243v-33h-278z" />
    <glyph glyph-name="threesuperior" unicode="&#xb3;" horiz-adv-x="406" 
d="M199 292c-74 0 -122 37 -151 89l28 17c27 -46 64 -74 123 -74c67 0 108 36 108 94c0 65 -33 103 -134 103h-25v30h26c82 0 125 24 125 85c0 48 -29 81 -97 81c-50 0 -82 -25 -106 -58l-27 18c29 41 70 72 133 72c93 0 131 -50 131 -112c0 -53 -29 -87 -79 -101
c60 -15 88 -58 88 -117c0 -75 -55 -127 -143 -127z" />
    <glyph glyph-name="Delta" unicode="&#x394;" horiz-adv-x="533" 
d="M124 0v491h-92v34h92v95c0 82 49 118 136 120c8 1 18 1 26 1v-34h-29c-62 -2 -97 -25 -97 -84v-98h121v-34h-121v-491h-36zM360 -200c-9 0 -23 1 -29 2v34c8 -2 18 -4 28 -4c26 0 47 14 47 55v638h37v-632c0 -70 -35 -93 -83 -93zM403 660v53h43v-53h-43z" />
    <glyph glyph-name="Delta" unicode="&#x2206;" horiz-adv-x="533" 
d="M124 0v491h-92v34h92v95c0 82 49 118 136 120c8 1 18 1 26 1v-34h-29c-62 -2 -97 -25 -97 -84v-98h121v-34h-121v-491h-36zM360 -200c-9 0 -23 1 -29 2v34c8 -2 18 -4 28 -4c26 0 47 14 47 55v638h37v-632c0 -70 -35 -93 -83 -93zM403 660v53h43v-53h-43z" />
    <glyph glyph-name="space" unicode=" " horiz-adv-x="214" 
 />
    <glyph glyph-name="space" unicode="&#xa0;" horiz-adv-x="214" 
 />
    </font>
</defs>
</svg>
