<?xml version="1.0" standalone="no"?>
<!DOCTYPE svg PUBLIC "-//W3C//DTD SVG 1.1//EN" "http://www.w3.org/Graphics/SVG/1.1/DTD/svg11.dtd" >
<svg xmlns="http://www.w3.org/2000/svg" xmlns:xlink="http://www.w3.org/1999/xlink" version="1.1">
<metadata>
Created by FontForge 20141024 at Thu Nov 20 18:13:25 2014
 By System Administrator
Copyright (c) The Font Bureau, Inc., 2008. All rights reserved.
</metadata>
<defs>
<font id="BentonSans-MediumItalic" horiz-adv-x="650" >
  <font-face 
    font-family="BentonSans Medium"
    font-weight="500"
    font-style="italic"
    font-stretch="normal"
    units-per-em="1000"
    panose-1="2 0 6 3 0 0 0 9 0 4"
    ascent="787"
    descent="-213"
    x-height="531"
    cap-height="740"
    bbox="-126 -271 1395 979"
    underline-thickness="50"
    underline-position="-50"
    slope="10"
    unicode-range="U+0020-FB04"
  />
<missing-glyph horiz-adv-x="500" 
d="M0 0v700h500v-700h-500zM50 650v-600h400v600h-400z" />
    <glyph glyph-name="f_i" unicode="fi" horiz-adv-x="608" 
d="M171 0h-123l76 433h-90l18 98h90l11 65c14 89 63 147 166 147c30 0 70 -5 79 -7l-17 -93c-9 2 -24 4 -41 4c-38 0 -58 -9 -66 -64l-9 -52h96l-18 -98h-96zM468 0h-123l94 531h123zM579 624h-125l18 106h125z" />
    <glyph glyph-name="f_l" unicode="fl" horiz-adv-x="608" 
d="M171 0h-123l76 433h-90l18 98h90l11 65c14 89 63 147 166 147c30 0 70 -5 79 -7l-17 -93c-9 2 -24 4 -41 4c-38 0 -58 -9 -66 -64l-9 -52h96l-18 -98h-96zM468 0h-123l130 740h123z" />
    <glyph glyph-name="f_f" unicode="ff" horiz-adv-x="682" 
d="M48 0l77 438h-89l17 93h89l11 65c15 89 67 147 170 147c23 0 70 -5 79 -7l-17 -88c-8 2 -24 4 -40 4c-38 0 -62 -12 -71 -69l-9 -52h190l11 65c14 89 57 147 182 147c23 0 75 -5 84 -7l-17 -89c-8 2 -31 5 -51 5c-38 0 -69 -12 -77 -69l-9 -52h111l-17 -93h-111l-77 -438
h-123l77 438h-190l-77 -438h-123z" />
    <glyph glyph-name="f_f_i" unicode="ffi" horiz-adv-x="920" 
d="M48 0l77 438h-89l17 93h89l11 65c15 89 67 147 170 147c23 0 70 -5 79 -7l-17 -88c-8 2 -24 4 -40 4c-38 0 -62 -12 -71 -69l-9 -52h190l11 65c14 89 63 147 166 147c30 0 70 -5 79 -7l-16 -88c-9 2 -24 4 -41 4c-38 0 -59 -14 -67 -69l-9 -52h96l-17 -93h-96l-77 -438
h-123l77 438h-190l-77 -438h-123zM658 0l94 531h123l-94 -531h-123zM767 624l18 106h125l-18 -106h-125z" />
    <glyph glyph-name="f_f_l" unicode="ffl" horiz-adv-x="920" 
d="M67 0l77 438h-90l17 93h90l11 65c14 89 67 147 169 147c24 0 70 -5 79 -7l-16 -88c-9 2 -25 4 -41 4c-37 0 -62 -12 -70 -69l-9 -52h189l11 65c15 89 63 147 166 147c30 0 71 -5 80 -7l-16 -88c-10 2 -25 4 -42 4c-37 0 -58 -14 -67 -69l-9 -52h96l-17 -93h-96l-77 -438
h-123l77 438h-189l-77 -438h-123zM676 0l131 740h123l-131 -740h-123z" />
    <glyph glyph-name="f_j" unicode="fj" horiz-adv-x="608" 
d="M48 0l77 438h-89l17 93h89l11 65c15 89 63 147 166 147c30 0 71 -5 80 -7l-16 -88c-10 2 -25 4 -42 4c-37 0 -58 -14 -67 -69l-9 -52h96l-17 -93h-96l-77 -438h-123zM313 -203c-42 0 -76 3 -95 6l15 86c11 -2 31 -4 48 -4c33 0 46 15 55 62l103 584h123l-108 -613
c-13 -73 -49 -121 -141 -121zM454 624l19 106h125l-19 -106h-125z" />
    <glyph glyph-name=".notdef" horiz-adv-x="500" 
d="M0 0v700h500v-700h-500zM50 650v-600h400v600h-400z" />
    <glyph glyph-name="space" unicode=" " horiz-adv-x="251" 
 />
    <glyph glyph-name="uni00A0" unicode="&#xa0;" horiz-adv-x="251" 
 />
    <glyph glyph-name="space.en" unicode="&#x2002;" horiz-adv-x="500" 
 />
    <glyph glyph-name="space.em" unicode="&#x2003;" horiz-adv-x="1000" 
 />
    <glyph glyph-name="space.thin" unicode="&#x2009;" horiz-adv-x="200" 
 />
    <glyph glyph-name="zero.salt_slash" horiz-adv-x="668" 
d="M291 -14c-174 0 -254 123 -254 296c0 273 144 472 344 472c172 0 252 -122 252 -295c0 -274 -143 -473 -342 -473zM295 96c143 0 214 183 214 370c0 14 -1 27 -2 39l-327 -340c21 -46 59 -69 115 -69zM161 276c0 -14 0 -26 1 -38l326 340c-21 43 -59 65 -113 65
c-140 0 -214 -179 -214 -367z" />
    <glyph glyph-name="zero" unicode="0" horiz-adv-x="668" 
d="M297 96c142 0 212 183 212 370c0 118 -47 177 -136 177c-141 0 -213 -179 -213 -367c0 -120 47 -180 137 -180zM290 -14c-173 0 -253 123 -253 296c0 273 144 472 343 472c173 0 253 -122 253 -295c0 -274 -143 -473 -343 -473z" />
    <glyph glyph-name="one" unicode="1" horiz-adv-x="448" 
d="M357 0h-379l20 110h136l88 503c-39 -19 -97 -34 -140 -34l21 113c57 2 108 17 146 48h117l-110 -630h120z" />
    <glyph glyph-name="two" unicode="2" horiz-adv-x="593" 
d="M476 0h-506l2 16c47 376 476 316 476 536c0 56 -34 90 -111 90c-56 0 -110 -17 -173 -87l-84 68c79 96 169 131 268 131c152 0 224 -81 224 -186c0 -279 -396 -281 -451 -458h375z" />
    <glyph glyph-name="three" unicode="3" horiz-adv-x="600" 
d="M251 -14c-146 0 -237 57 -285 153l102 56c40 -74 102 -98 180 -98c90 0 153 32 153 134c0 75 -51 106 -175 106h-28l16 104h32c159 0 199 47 199 121c0 52 -32 79 -124 79c-48 0 -108 -11 -165 -56l-65 82c63 55 150 87 246 87c168 0 236 -75 236 -171
c0 -112 -63 -174 -166 -194c88 -17 123 -83 123 -164c0 -163 -132 -239 -279 -239z" />
    <glyph glyph-name="four" unicode="4" horiz-adv-x="633" 
d="M426 0h-116l26 152h-348l17 98l415 490h136l-84 -480h125l-19 -108h-125zM411 589l-272 -329h216l58 329h-2z" />
    <glyph glyph-name="five" unicode="5" horiz-adv-x="588" 
d="M250 -14c-155 0 -231 57 -280 122l94 74c36 -46 89 -87 186 -87c103 0 164 65 164 178c0 67 -43 117 -131 117c-56 0 -106 -21 -144 -71l-81 28l98 393h418l-27 -108h-310l-50 -193c28 28 78 55 140 55c141 0 214 -87 214 -213c0 -196 -137 -295 -291 -295z" />
    <glyph glyph-name="six" unicode="6" horiz-adv-x="626" 
d="M290 -14c-163 0 -255 107 -255 288c0 303 171 480 352 480c106 0 177 -27 215 -57l-65 -96c-40 27 -84 44 -151 44c-106 0 -193 -91 -223 -252c40 33 111 78 207 78c128 0 202 -75 202 -196c0 -186 -132 -289 -282 -289zM153 293v-26c0 -139 68 -175 144 -175
c91 0 154 62 154 171c0 62 -31 104 -121 104c-75 0 -133 -36 -177 -74z" />
    <glyph glyph-name="seven" unicode="7" horiz-adv-x="533" 
d="M156 0h-127l399 630h-354l19 110h482l-17 -102z" />
    <glyph glyph-name="eight" unicode="8" horiz-adv-x="625" 
d="M282 -14c-191 0 -282 87 -282 192c0 118 100 181 208 216c-59 38 -106 86 -106 163c0 112 103 197 250 197c180 0 249 -93 249 -179c0 -111 -91 -163 -165 -191c71 -40 133 -92 133 -182c0 -144 -127 -216 -287 -216zM128 187c0 -59 53 -103 153 -103
c88 0 162 38 162 118c0 67 -71 104 -147 143c-103 -36 -168 -84 -168 -158zM478 568c0 45 -33 87 -126 87c-82 0 -129 -41 -129 -97c0 -59 56 -93 123 -127c93 37 132 80 132 137z" />
    <glyph glyph-name="nine" unicode="9" horiz-adv-x="626" 
d="M241 -14c-106 0 -174 23 -222 61l69 91c38 -27 83 -45 154 -45c106 0 194 92 223 256c-40 -34 -111 -80 -207 -80c-128 0 -202 76 -202 196c0 187 132 289 282 289c163 0 255 -106 255 -287c0 -304 -167 -481 -352 -481zM475 473c0 137 -68 173 -144 173
c-91 0 -154 -60 -154 -168c0 -63 28 -105 118 -105c76 0 136 38 179 76c0 8 1 16 1 24z" />
    <glyph glyph-name="A" unicode="A" horiz-adv-x="687" 
d="M82 0h-122l388 743h123l126 -743h-123l-29 188h-266zM382 586l-152 -294h200l-46 294h-2z" />
    <glyph glyph-name="B" unicode="B" horiz-adv-x="692" 
d="M253 631l-35 -202h143c93 0 159 28 159 118c0 59 -45 84 -154 84h-113zM200 328l-39 -220h173c91 0 153 29 153 120c0 70 -56 100 -168 100h-119zM334 0h-315l130 740h238c159 0 258 -52 258 -166c0 -132 -81 -175 -165 -192l-1 -2c78 -15 130 -64 130 -156
c0 -167 -139 -224 -275 -224z" />
    <glyph glyph-name="C" unicode="C" horiz-adv-x="707" 
d="M325 -14c-178 0 -285 118 -285 308c0 280 166 460 369 460c194 0 258 -107 269 -247l-124 -10c-7 92 -43 142 -152 142c-137 0 -236 -139 -236 -343c0 -125 56 -197 165 -197c91 0 151 41 199 159l110 -40c-61 -147 -157 -232 -315 -232z" />
    <glyph glyph-name="D" unicode="D" horiz-adv-x="718" 
d="M255 634l-93 -530h102c192 0 289 112 289 327c0 129 -69 203 -233 203h-65zM245 0h-226l130 740h176c222 0 354 -104 354 -303c0 -304 -177 -437 -434 -437z" />
    <glyph glyph-name="E" unicode="E" horiz-adv-x="611" 
d="M506 0h-487l130 740h468l-21 -116h-343l-32 -184h249l-19 -111h-249l-38 -215h362z" />
    <glyph glyph-name="F" unicode="F" horiz-adv-x="568" 
d="M144 0h-125l130 740h456l-21 -116h-331l-34 -198h237l-20 -111h-237z" />
    <glyph glyph-name="G" unicode="G" horiz-adv-x="738" 
d="M307 -14c-180 0 -265 129 -265 299c0 302 176 469 370 469c165 0 250 -79 268 -234l-120 -16c-9 95 -60 135 -156 135c-127 0 -235 -119 -235 -340c0 -134 66 -202 162 -202c95 0 168 59 195 168h-147l19 106h267l-66 -371h-103l19 107h-2c-30 -54 -101 -121 -206 -121z
" />
    <glyph glyph-name="H" unicode="H" horiz-adv-x="744" 
d="M144 0h-125l130 740h125l-52 -295h326l52 295h125l-130 -740h-125l58 329h-326z" />
    <glyph glyph-name="I" unicode="I" horiz-adv-x="310" 
d="M152 0h-125l130 740h125z" />
    <glyph glyph-name="J" unicode="J" horiz-adv-x="515" 
d="M180 -14c-103 0 -163 39 -216 94l81 82c41 -41 75 -64 126 -64c62 0 102 19 119 118l92 524h125l-95 -544c-25 -139 -95 -210 -232 -210z" />
    <glyph glyph-name="K" unicode="K" horiz-adv-x="688" 
d="M604 0h-132l-164 371l-119 -115l-45 -256h-125l130 740h125l-60 -338l352 338h137l-298 -286z" />
    <glyph glyph-name="L" unicode="L" horiz-adv-x="568" 
d="M474 0h-455l130 740h125l-110 -626h330z" />
    <glyph glyph-name="M" unicode="M" horiz-adv-x="883" 
d="M132 0h-113l130 740h165l90 -587h2l291 587h167l-130 -740h-121l98 555h-2c-20 -52 -44 -102 -69 -153l-211 -402h-111l-67 402c-8 53 -15 87 -18 159h-2z" />
    <glyph glyph-name="N" unicode="N" horiz-adv-x="753" 
d="M135 0h-116l130 740h127l247 -531h2l94 531h115l-130 -740h-114l-258 542h-2z" />
    <glyph glyph-name="O" unicode="O" horiz-adv-x="754" 
d="M338 99c128 0 251 110 251 339c0 127 -60 201 -172 201c-125 0 -251 -106 -251 -336c0 -128 61 -204 172 -204zM332 -14c-173 0 -292 122 -292 316c0 295 194 452 390 452c167 0 285 -121 285 -315c0 -294 -188 -453 -383 -453z" />
    <glyph glyph-name="P" unicode="P" horiz-adv-x="653" 
d="M19 0l130 740h219c171 0 281 -58 281 -194c0 -203 -152 -265 -301 -265h-156l-49 -281h-124zM211 390h149c96 0 163 33 163 142c0 65 -47 94 -162 94h-108z" />
    <glyph glyph-name="Q" unicode="Q" horiz-adv-x="754" 
d="M533 -193h-82c-147 0 -219 68 -207 193c-125 33 -204 142 -204 302c0 295 193 452 389 452c168 0 285 -121 285 -315c0 -277 -167 -430 -348 -447c-4 -68 30 -74 139 -74h48zM340 99c125 0 248 110 248 339c0 127 -62 201 -173 201c-126 0 -250 -106 -250 -336
c0 -128 63 -204 175 -204z" />
    <glyph glyph-name="R" unicode="R" horiz-adv-x="681" 
d="M142 0h-123l130 740h225c176 0 275 -64 275 -191c0 -135 -82 -223 -199 -242l112 -307h-125l-106 292h-138zM252 626l-39 -225h149c88 0 161 21 161 134c0 66 -50 91 -157 91h-114z" />
    <glyph glyph-name="S" unicode="S" horiz-adv-x="664" 
d="M300 -15c-168 0 -260 69 -295 196l113 38c31 -89 84 -122 193 -122c78 0 150 22 150 106c0 153 -365 104 -365 325c0 153 119 227 261 227c159 0 227 -65 274 -156l-109 -51c-31 58 -84 93 -173 93c-77 0 -128 -31 -128 -97c0 -143 365 -101 365 -320
c0 -163 -122 -239 -286 -239z" />
    <glyph glyph-name="T" unicode="T" horiz-adv-x="625" 
d="M310 0h-125l109 624h-223l21 116h571l-21 -116h-223z" />
    <glyph glyph-name="U" unicode="U" horiz-adv-x="711" 
d="M314 -13c-222 0 -283 133 -253 304l78 449h125l-79 -456c-20 -113 11 -183 135 -183c103 0 155 43 175 157l84 482h123l-87 -497c-30 -171 -131 -256 -301 -256z" />
    <glyph glyph-name="V" unicode="V" horiz-adv-x="672" 
d="M329 -3h-118l-121 743h124l85 -577h2l290 577h121z" />
    <glyph glyph-name="W" unicode="W" horiz-adv-x="934" 
d="M266 0h-110l-62 740h125l22 -383c3 -59 7 -114 9 -172h2c22 58 44 112 68 171l156 384h120l25 -386c4 -63 7 -107 8 -169h2c25 65 40 103 66 166l156 389h117l-320 -740h-109l-34 567h-2z" />
    <glyph glyph-name="X" unicode="X" horiz-adv-x="687" 
d="M589 0h-128l-136 297l-228 -297h-132l313 400l-155 340h128l115 -252l191 252h132l-276 -355z" />
    <glyph glyph-name="Y" unicode="Y" horiz-adv-x="651" 
d="M323 0h-125l56 319l-173 421h127l125 -315l235 315h133l-322 -421z" />
    <glyph glyph-name="Z" unicode="Z" horiz-adv-x="635" 
d="M526 0h-556l18 97l490 529h-371l20 114h529l-17 -99l-486 -529h393z" />
    <glyph glyph-name="a" unicode="a" horiz-adv-x="560" 
d="M190 86c54 0 102 25 147 62l20 116c-183 -15 -241 -55 -241 -119c0 -35 26 -59 74 -59zM137 -9c-90 0 -146 52 -146 129c0 128 115 211 381 227l3 15c11 53 -15 78 -84 78c-58 0 -125 -21 -175 -53l-47 80c51 38 141 74 247 74c156 0 197 -83 176 -202l-37 -209
c-10 -58 -14 -85 -8 -130h-124c-3 27 -5 40 0 68c-60 -55 -125 -77 -186 -77z" />
    <glyph glyph-name="b" unicode="b" horiz-adv-x="601" 
d="M270 89c78 0 155 72 155 224c0 76 -38 123 -106 123c-50 0 -100 -33 -126 -64l-42 -230c31 -36 71 -53 119 -53zM300 -9c-76 0 -125 19 -165 62l-9 -53h-122l130 740h123l-49 -279c29 39 88 80 162 80c113 0 180 -80 180 -210c0 -213 -114 -340 -250 -340z" />
    <glyph glyph-name="c" unicode="c" horiz-adv-x="535" 
d="M238 -11c-127 0 -223 79 -223 229c0 240 162 323 283 323c142 0 190 -67 210 -166l-110 -20c-15 66 -42 84 -106 84c-81 0 -153 -73 -153 -225c0 -81 33 -125 105 -125c54 0 89 17 128 93l96 -40c-38 -81 -99 -153 -230 -153z" />
    <glyph glyph-name="d" unicode="d" horiz-adv-x="601" 
d="M245 89c46 0 88 23 126 64l41 230c-28 32 -65 53 -119 53c-69 0 -155 -60 -155 -225c0 -79 39 -122 107 -122zM195 -9c-99 0 -181 64 -181 210c0 236 132 340 250 340c78 0 132 -25 165 -61l45 260h123l-107 -610c-10 -61 -14 -94 -7 -130h-127c-4 18 -5 43 0 70
c-37 -49 -90 -79 -161 -79z" />
    <glyph glyph-name="e" unicode="e" horiz-adv-x="554" 
d="M240 -11c-130 0 -225 77 -225 226c0 256 188 326 285 326c159 0 226 -109 195 -287l-5 -29h-355v-12c0 -104 67 -126 124 -126c72 0 116 24 155 69l76 -64c-52 -61 -130 -103 -250 -103zM148 317h246c8 75 -17 124 -103 124c-62 0 -118 -40 -143 -124z" />
    <glyph glyph-name="f" unicode="f" horiz-adv-x="369" 
d="M171 0h-123l76 433h-90l18 98h90l11 65c14 89 57 147 182 147c23 0 75 -5 84 -7l-18 -94c-8 2 -31 5 -51 5c-38 0 -68 -7 -76 -64l-9 -52h111l-18 -98h-111z" />
    <glyph glyph-name="g" unicode="g" horiz-adv-x="585" 
d="M251 162c-39 0 -72 6 -100 17c-14 -9 -20 -19 -20 -28c0 -31 45 -36 138 -50c103 -15 205 -39 205 -137c0 -130 -131 -171 -269 -171c-204 0 -277 69 -277 139c0 72 69 111 113 126c-18 13 -28 29 -28 52c0 32 19 72 83 101c-37 32 -55 75 -55 124c0 133 112 206 243 206
c75 0 128 -24 162 -61c40 30 104 53 146 57l-17 -99c-32 -1 -68 -5 -96 -13c6 -19 10 -40 10 -61c0 -133 -108 -202 -238 -202zM259 245c68 0 117 36 117 119c0 54 -29 86 -99 86c-66 0 -120 -39 -120 -119c0 -54 33 -86 102 -86zM56 -49c0 -44 38 -68 171 -68
c72 0 132 12 132 56c0 45 -57 58 -135 70c-39 6 -77 11 -110 19c-31 -15 -58 -43 -58 -77z" />
    <glyph glyph-name="h" unicode="h" horiz-adv-x="593" 
d="M127 0h-123l131 740h123l-50 -284c36 42 105 85 185 85c107 0 156 -61 137 -166l-66 -375h-123l61 348c11 58 -9 88 -71 88c-45 0 -97 -27 -139 -66z" />
    <glyph glyph-name="i" unicode="i" horiz-adv-x="272" 
d="M243 624h-125l19 106h125zM132 0h-123l94 531h123z" />
    <glyph glyph-name="j" unicode="j" horiz-adv-x="272" 
d="M244 624h-125l18 106h125zM-23 -203c-42 0 -76 3 -95 6l15 86c11 -2 31 -4 48 -4c33 0 47 15 55 62l104 584h123l-108 -613c-14 -73 -49 -121 -142 -121z" />
    <glyph glyph-name="k" unicode="k" horiz-adv-x="553" 
d="M127 0h-123l130 740h123l-76 -434l235 225h131l-207 -196l128 -335h-124l-98 255l-89 -83z" />
    <glyph glyph-name="l" unicode="l" horiz-adv-x="272" 
d="M132 0h-123l130 740h123z" />
    <glyph glyph-name="m" unicode="m" horiz-adv-x="914" 
d="M127 0h-123l94 531h123l-13 -75c36 42 97 85 177 85c81 0 124 -36 136 -89c49 53 113 89 193 89c107 0 156 -61 137 -166l-66 -375h-123l61 348c11 58 -9 88 -71 88c-43 0 -88 -26 -131 -65l-65 -371h-123l61 348c11 58 -9 88 -71 88c-44 0 -89 -27 -131 -66z" />
    <glyph glyph-name="n" unicode="n" horiz-adv-x="593" 
d="M127 0h-123l94 531h123l-13 -75c36 42 105 85 185 85c107 0 156 -61 137 -166l-66 -375h-123l61 348c11 58 -9 88 -71 88c-45 0 -97 -27 -139 -66z" />
    <glyph glyph-name="o" unicode="o" horiz-adv-x="586" 
d="M253 89c86 0 157 78 157 221c0 76 -34 129 -115 129c-87 0 -156 -81 -156 -222c0 -76 32 -128 114 -128zM243 -11c-125 0 -228 79 -228 230c0 232 157 322 291 322c125 0 228 -77 228 -229c0 -230 -156 -323 -291 -323z" />
    <glyph glyph-name="p" unicode="p" horiz-adv-x="601" 
d="M270 89c72 0 155 66 155 223c0 80 -40 124 -106 124c-45 0 -96 -28 -126 -64l-42 -230c32 -33 66 -53 119 -53zM92 -201h-124l130 732h123l-13 -70c33 44 94 80 161 80c112 0 181 -77 181 -210c0 -219 -120 -340 -251 -340c-73 0 -125 20 -163 62z" />
    <glyph glyph-name="q" unicode="q" horiz-adv-x="601" 
d="M245 89c46 0 88 23 126 64l41 230c-28 32 -65 53 -119 53c-69 0 -155 -60 -155 -225c0 -79 39 -122 107 -122zM432 -200h-123l47 267c-37 -47 -90 -76 -161 -76c-109 0 -181 74 -181 210c0 239 133 340 251 340c85 0 134 -28 164 -61l9 51h123z" />
    <glyph glyph-name="r" unicode="r" horiz-adv-x="407" 
d="M127 0h-123l94 531h123l-15 -87h1c41 50 105 97 204 97h5l-20 -110c-13 1 -27 2 -34 2c-63 0 -131 -40 -176 -97z" />
    <glyph glyph-name="s" unicode="s" horiz-adv-x="513" 
d="M219 -10c-121 0 -198 41 -241 95l79 68c36 -41 93 -68 166 -69c57 -1 101 13 101 66c0 94 -269 55 -269 220c0 116 94 171 196 171c116 0 190 -37 230 -82l-74 -76c-37 38 -89 62 -151 62c-52 0 -81 -19 -81 -59c0 -96 269 -55 269 -217c0 -142 -122 -179 -225 -179z" />
    <glyph glyph-name="t" unicode="t" horiz-adv-x="396" 
d="M209 -7c-139 0 -156 61 -139 157l50 283h-90l18 98h90l32 185h123l-32 -185h132l-18 -98h-132l-47 -265c-10 -59 -2 -78 62 -78c16 0 37 3 50 6l-9 -95c-14 -4 -62 -8 -90 -8z" />
    <glyph glyph-name="u" unicode="u" horiz-adv-x="592" 
d="M164 -11c-106 0 -155 62 -137 167l66 375h123l-62 -351c-10 -58 10 -88 71 -88c46 0 96 27 138 66l66 373h123l-94 -531h-123l13 75c-36 -42 -104 -86 -184 -86z" />
    <glyph glyph-name="v" unicode="v" horiz-adv-x="517" 
d="M255 -2h-124l-92 533h125l55 -392h2l195 392h121z" />
    <glyph glyph-name="w" unicode="w" horiz-adv-x="754" 
d="M214 0h-113l-59 531h123l16 -220c3 -55 7 -107 9 -169h2c29 71 45 110 72 171l95 218h100l19 -222c5 -59 9 -99 12 -167h2l69 165l97 224h112l-247 -531h-114l-32 370h-2z" />
    <glyph glyph-name="x" unicode="x" horiz-adv-x="523" 
d="M81 0h-127l227 278l-119 253h128l78 -166l131 166h126l-212 -260l128 -271h-128l-87 184z" />
    <glyph glyph-name="y" unicode="y" horiz-adv-x="537" 
d="M44 -206c-59 0 -104 12 -130 23l41 100c17 -8 57 -20 84 -20c39 0 62 20 81 56l24 44l-103 534h127l63 -387h2l200 387h123l-338 -611c-46 -84 -92 -126 -174 -126z" />
    <glyph glyph-name="z" unicode="z" horiz-adv-x="510" 
d="M413 0h-444l12 71l334 362h-248l18 98h405l-13 -74l-335 -362h288z" />
    <glyph glyph-name="ampersand" unicode="&#x26;" horiz-adv-x="724" 
d="M250 -14c-181 0 -260 83 -260 187c0 145 102 201 211 242c-15 45 -22 90 -22 133c0 121 79 206 205 206c127 0 172 -74 172 -147c0 -138 -108 -188 -216 -230c10 -22 23 -45 38 -67c34 -51 61 -91 87 -121c44 53 75 121 95 187h107c-26 -94 -72 -182 -132 -251
c35 -21 74 -28 129 -29l-19 -106c-78 0 -139 16 -198 58c-58 -39 -125 -62 -197 -62zM278 251c-17 27 -32 54 -45 82c-66 -31 -116 -71 -116 -144c0 -64 43 -103 141 -103c44 0 83 11 118 29c-32 36 -64 80 -98 136zM450 601c0 27 -17 58 -64 58c-53 0 -90 -31 -90 -109
c0 -29 4 -61 14 -96c78 31 140 68 140 147z" />
    <glyph glyph-name="period" unicode="." horiz-adv-x="276" 
d="M142 0h-137l23 130h137z" />
    <glyph glyph-name="comma" unicode="," horiz-adv-x="276" 
d="M60 -112h-57l54 112h-52l23 130h137l-20 -113z" />
    <glyph glyph-name="colon" unicode=":" horiz-adv-x="285" 
d="M217 401h-137l23 130h137zM146 0h-137l23 130h137z" />
    <glyph glyph-name="semicolon" unicode=";" horiz-adv-x="285" 
d="M217 401h-137l23 130h137zM63 -112h-57l54 112h-51l23 130h137l-19 -111z" />
    <glyph glyph-name="ellipsis" unicode="&#x2026;" horiz-adv-x="828" 
d="M694 0h-137l23 130h137zM418 0h-137l23 130h137zM142 0h-137l23 130h137z" />
    <glyph glyph-name="exclamdown" unicode="&#xa1;" horiz-adv-x="339" 
d="M279 615h-137l22 125h137zM179 0h-154l125 520h88z" />
    <glyph glyph-name="exclam" unicode="!" horiz-adv-x="344" 
d="M39 0l22 125h137l-22 -125h-137zM102 221l58 519h154l-124 -519h-88z" />
    <glyph glyph-name="questiondown" unicode="&#xbf;" horiz-adv-x="562" 
d="M419 615h-137l22 125h137zM236 -14c-156 0 -225 78 -225 170c0 132 87 167 160 207c83 44 103 68 112 158h101c-2 -36 -5 -60 -10 -87c-16 -82 -67 -110 -138 -145c-53 -26 -100 -45 -100 -112c0 -50 35 -81 114 -81c59 0 116 18 170 68l73 -76
c-68 -70 -166 -102 -257 -102z" />
    <glyph glyph-name="question" unicode="?" horiz-adv-x="562" 
d="M261 0h-137l22 125h137zM282 219h-101c2 36 5 60 10 87c16 82 67 110 138 145c53 26 100 45 100 112c0 50 -35 81 -114 81c-59 0 -116 -18 -170 -68l-73 76c68 70 166 102 257 102c156 0 225 -78 225 -170c0 -132 -87 -167 -160 -207c-83 -44 -103 -68 -112 -158z" />
    <glyph glyph-name="parenleft" unicode="(" horiz-adv-x="401" 
d="M274 -149l-70 -52c-113 117 -176 250 -176 401c0 244 130 414 347 562l46 -64c-155 -123 -264 -306 -264 -511c0 -129 45 -247 117 -336z" />
    <glyph glyph-name="parenright" unicode=")" horiz-adv-x="401" 
d="M-5 -202l-50 61c157 123 268 308 268 514c0 128 -43 243 -114 332l67 56c114 -117 177 -249 177 -400c0 -243 -132 -415 -348 -563z" />
    <glyph glyph-name="bracketleft" unicode="[" horiz-adv-x="416" 
d="M280 -200h-303l165 940h303l-15 -88h-179l-134 -764h179z" />
    <glyph glyph-name="bracketright" unicode="]" horiz-adv-x="416" 
d="M239 -200h-303l15 88h180l134 764h-179l15 88h303z" />
    <glyph glyph-name="braceleft" unicode="{" horiz-adv-x="411" 
d="M281 -200h-89c-107 0 -142 57 -128 137l30 169c17 98 -9 120 -90 120l16 88c82 0 115 22 132 120l30 171c15 87 73 135 160 135h104l-15 -88h-39c-54 0 -83 -27 -92 -78l-27 -154c-17 -98 -54 -131 -111 -149l-1 -2c51 -18 77 -51 59 -149l-27 -154c-9 -51 11 -78 65 -78
h39z" />
    <glyph glyph-name="braceright" unicode="}" horiz-adv-x="411" 
d="M44 -200h-114l15 88h40c54 0 82 27 91 78l29 164c17 98 52 121 109 139l1 2c-51 18 -78 41 -61 139l29 164c9 51 -10 78 -64 78h-39l15 88h99c107 0 134 -47 120 -127l-31 -179c-17 -98 8 -120 90 -120l-16 -88c-83 0 -115 -22 -132 -120l-32 -181
c-15 -87 -61 -125 -149 -125z" />
    <glyph glyph-name="hyphen" unicode="-" horiz-adv-x="357" 
d="M285 270h-247l16 88h247z" />
    <glyph glyph-name="underscore" unicode="_" horiz-adv-x="495" 
d="M405 -145h-496l16 89h495z" />
    <glyph glyph-name="endash" unicode="&#x2013;" horiz-adv-x="660" 
d="M581 260h-540l18 105h540z" />
    <glyph glyph-name="endash.en_salt" horiz-adv-x="500" 
d="M-18 260l18 105h500l-18 -105h-500z" />
    <glyph glyph-name="emdash" unicode="&#x2014;" horiz-adv-x="930" 
d="M851 259h-810l18 106h810z" />
    <glyph glyph-name="emdash.em_salt" unicode="&#x2015;" horiz-adv-x="1000" 
d="M-18 259l18 106h1000l-18 -106h-1000z" />
    <glyph glyph-name="quoteleft" unicode="&#x2018;" horiz-adv-x="276" 
d="M227 498h-132l21 119l85 123h57l-54 -112h46z" />
    <glyph glyph-name="quoteright" unicode="&#x2019;" horiz-adv-x="276" 
d="M163 498h-57l55 112h-46l22 130h132l-20 -119z" />
    <glyph glyph-name="quotedblleft" unicode="&#x201c;" horiz-adv-x="488" 
d="M438 498h-132l21 119l86 123h57l-55 -112h46zM227 498h-132l21 119l85 123h57l-54 -112h46z" />
    <glyph glyph-name="quotedblright" unicode="&#x201d;" horiz-adv-x="488" 
d="M374 498h-57l55 112h-46l23 130h132l-21 -119zM163 498h-57l55 112h-46l22 130h132l-20 -119z" />
    <glyph glyph-name="quotesinglbase" unicode="&#x201a;" horiz-adv-x="276" 
d="M56 -112h-57l54 112h-46l23 130h132l-21 -119z" />
    <glyph glyph-name="quotedblbase" unicode="&#x201e;" horiz-adv-x="488" 
d="M267 -112h-57l55 112h-46l23 130h132l-21 -119zM56 -112h-57l54 112h-46l23 130h132l-21 -119z" />
    <glyph glyph-name="guillemotleft" unicode="&#xab;" horiz-adv-x="588" 
d="M481 0h-119l-113 266l207 265h119l-201 -265zM246 0h-119l-113 266l207 265h119l-201 -265z" />
    <glyph glyph-name="guillemotright" unicode="&#xbb;" horiz-adv-x="588" 
d="M331 0h-119l200 266l-106 265h119l112 -265zM96 0h-120l201 266l-106 265h119l112 -265z" />
    <glyph glyph-name="guilsinglleft" unicode="&#x2039;" horiz-adv-x="353" 
d="M246 0h-119l-113 266l207 265h119l-201 -265z" />
    <glyph glyph-name="guilsinglright" unicode="&#x203a;" horiz-adv-x="353" 
d="M96 0h-120l201 266l-106 265h119l112 -265z" />
    <glyph glyph-name="brokenbar" unicode="&#xa6;" horiz-adv-x="377" 
d="M244 331h-121v409h121v-409zM244 -200h-121v409h121v-409z" />
    <glyph glyph-name="slash" unicode="/" horiz-adv-x="608" 
d="M90 0h-132l560 740h132z" />
    <glyph glyph-name="backslash" unicode="\" horiz-adv-x="578" 
d="M499 0h-120l-300 740h120z" />
    <glyph glyph-name="bar" unicode="|" horiz-adv-x="377" 
d="M244 -200h-121v940h121v-940z" />
    <glyph glyph-name="asterisk" unicode="*" horiz-adv-x="508" 
d="M397 342l-76 -28l-47 166l-101 -141l-62 53l122 123l-172 18l13 77l169 -42l-73 157l76 28l46 -166l101 141l63 -54l-123 -122l173 -18l-14 -77l-168 41z" />
    <glyph glyph-name="dagger" unicode="&#x2020;" horiz-adv-x="583" 
d="M257 -200h-130l124 591l-211 -14l20 114l206 -15l26 264h130l-66 -264l211 15l-20 -114l-206 14z" />
    <glyph glyph-name="daggerdbl" unicode="&#x2021;" horiz-adv-x="583" 
d="M257 -200h-130l58 219l-196 -15l19 109l191 -14l14 172l47 170l-197 -14l20 109l191 -15l18 219h132l-60 -219l196 15l-20 -109l-190 14l-15 -170l-46 -172l196 14l-19 -109l-191 15z" />
    <glyph glyph-name="periodcentered" unicode="&#xb7;" horiz-adv-x="281" 
d="M193 264h-142l23 130h142z" />
    <glyph glyph-name="bullet" unicode="&#x2022;" horiz-adv-x="463" 
d="M217 222c-73 0 -128 55 -128 128c0 75 55 129 128 129c75 0 129 -54 129 -129c0 -73 -54 -128 -129 -128z" />
    <glyph glyph-name="quotesingle" unicode="'" horiz-adv-x="251" 
d="M183 478h-75l17 196l11 66h109l-11 -66z" />
    <glyph glyph-name="quotedbl" unicode="&#x22;" horiz-adv-x="437" 
d="M369 478h-75l17 196l11 66h109l-11 -66zM183 478h-75l17 196l11 66h109l-11 -66z" />
    <glyph glyph-name="AE" unicode="&#xc6;" horiz-adv-x="1032" 
d="M552 636l-236 -318h180l57 318h-1zM81 0h-128l551 740h533l-20 -116h-343l-32 -184h249l-20 -111h-249l-38 -215h363l-20 -114h-487l38 213h-239z" />
    <glyph glyph-name="OE" unicode="&#x152;" horiz-adv-x="1105" 
d="M999 0h-473l17 94c-56 -69 -138 -108 -229 -108c-156 0 -274 122 -274 316c0 295 193 452 376 452c110 0 181 -43 217 -122l20 108h457l-21 -116h-343l-32 -184h249l-19 -111h-249l-38 -215h362zM340 99c125 0 248 110 248 339c0 127 -62 201 -173 201
c-126 0 -250 -106 -250 -336c0 -128 63 -204 175 -204z" />
    <glyph glyph-name="Eth" unicode="&#xd0;" horiz-adv-x="718" 
d="M244 0h-225l59 335h-73l17 96h73l54 309h175c223 0 355 -104 355 -303c0 -304 -177 -437 -435 -437zM202 335l-39 -223h102c193 0 287 104 287 319c0 129 -72 193 -234 193h-65l-34 -193h155l-17 -96h-155z" />
    <glyph glyph-name="Thorn" unicode="&#xde;" horiz-adv-x="655" 
d="M232 501l-41 -237h141c96 0 166 28 166 136c0 65 -50 101 -170 101h-96zM144 0h-125l130 740h125l-21 -123h87c174 0 287 -68 287 -205c0 -209 -162 -259 -303 -259h-153z" />
    <glyph glyph-name="Lslash" unicode="&#x141;" horiz-adv-x="568" 
d="M474 0h-455l58 332l-86 -22l17 96l86 22l55 312h125l-49 -279l156 40l-16 -96l-157 -40l-44 -251h330z" />
    <glyph glyph-name="Oslash" unicode="&#xd8;" horiz-adv-x="754" 
d="M331 -14c-82 0 -152 27 -203 77l-87 -88l-55 49l97 97c-28 49 -43 110 -43 181c0 295 193 452 389 452c80 0 148 -28 198 -77l87 88l54 -48l-97 -99c27 -49 43 -109 43 -179c0 -294 -189 -453 -383 -453zM415 643c-126 0 -252 -110 -252 -340c0 -35 4 -67 13 -94l369 379
c-30 36 -74 55 -130 55zM340 95c125 0 250 114 250 343c0 34 -4 65 -13 91l-369 -379c31 -36 75 -55 132 -55z" />
    <glyph glyph-name="Aacute" unicode="&#xc1;" horiz-adv-x="687" 
d="M82 0h-122l388 743h123l126 -743h-123l-29 188h-266zM382 586l-152 -294h200l-46 294h-2zM449 787h-81l118 166h132z" />
    <glyph glyph-name="Abreve" unicode="&#x102;" horiz-adv-x="687" 
d="M82 0h-122l388 743h123l126 -743h-123l-29 188h-266zM382 586l-152 -294h200l-46 294h-2zM433 779c-117 0 -155 75 -149 177h68c1 -75 31 -95 85 -95c42 0 87 19 105 95h69c-16 -104 -82 -177 -178 -177z" />
    <glyph glyph-name="Acircumflex" unicode="&#xc2;" horiz-adv-x="687" 
d="M82 0h-122l388 743h123l126 -743h-123l-29 188h-266zM382 586l-152 -294h200l-46 294h-2zM318 787h-71l156 166h85l97 -166h-72l-83 84z" />
    <glyph glyph-name="Adieresis" unicode="&#xc4;" horiz-adv-x="687" 
d="M82 0h-122l388 743h123l126 -743h-123l-29 188h-266zM382 586l-152 -294h200l-46 294h-2zM567 784h-112l21 121h112zM375 784h-112l21 121h112z" />
    <glyph glyph-name="Agrave" unicode="&#xc0;" horiz-adv-x="687" 
d="M82 0h-122l388 743h123l126 -743h-123l-29 188h-266zM382 586l-152 -294h200l-46 294h-2zM461 787h-81l-129 166h132z" />
    <glyph glyph-name="Amacron" unicode="&#x100;" horiz-adv-x="687" 
d="M82 0h-122l388 743h123l126 -743h-123l-29 188h-266zM382 586l-152 -294h200l-46 294h-2zM570 781h-307l16 91h307z" />
    <glyph glyph-name="Aogonek" unicode="&#x104;" horiz-adv-x="687" 
d="M82 0h-122l388 743h123l126 -743h-56c-47 -31 -77 -66 -77 -99c0 -19 12 -34 47 -34c27 0 54 7 82 18l18 -39c-40 -22 -80 -33 -128 -33c-76 0 -109 30 -109 71c0 49 44 86 99 119l-28 185h-266zM382 586l-152 -294h200l-46 294h-2z" />
    <glyph glyph-name="Aring" unicode="&#xc5;" horiz-adv-x="687" 
d="M82 0h-122l380 728c-15 14 -22 35 -22 58c0 69 56 111 113 111s90 -40 90 -89c0 -41 -20 -71 -46 -89l122 -719h-122l-30 193h-264zM383 586l-154 -299h202l-46 299h-2zM413 745c28 0 54 22 54 59c0 24 -15 43 -42 43c-28 0 -53 -23 -53 -59c0 -24 14 -43 41 -43z" />
    <glyph glyph-name="Atilde" unicode="&#xc3;" horiz-adv-x="687" 
d="M82 0h-122l388 743h123l126 -743h-123l-29 188h-266zM382 586l-152 -294h200l-46 294h-2zM497 780c-63 0 -99 56 -138 56c-28 0 -44 -15 -50 -54h-71c11 98 55 139 121 139c64 0 101 -56 138 -56c27 0 44 15 51 54h71c-13 -97 -58 -139 -122 -139z" />
    <glyph glyph-name="Cacute" unicode="&#x106;" horiz-adv-x="707" 
d="M422 784h-81l118 166h132zM325 -14c-178 0 -285 118 -285 308c0 280 166 460 369 460c194 0 258 -107 269 -247l-124 -10c-7 92 -43 142 -152 142c-137 0 -236 -139 -236 -343c0 -125 56 -197 165 -197c91 0 151 41 199 159l110 -40c-61 -147 -157 -232 -315 -232z" />
    <glyph glyph-name="Ccaron" unicode="&#x10c;" horiz-adv-x="707" 
d="M468 787h-85l-97 166h72l82 -84l113 84h71zM325 -14c-178 0 -285 118 -285 308c0 280 166 460 369 460c194 0 258 -107 269 -247l-124 -10c-7 92 -43 142 -152 142c-137 0 -236 -139 -236 -343c0 -125 56 -197 165 -197c91 0 151 41 199 159l110 -40
c-61 -147 -157 -232 -315 -232z" />
    <glyph glyph-name="Ccedilla" unicode="&#xc7;" horiz-adv-x="707" 
d="M277 -199c-69 0 -109 14 -140 37l32 40c26 -20 56 -30 95 -30c37 0 60 13 60 43c0 16 -12 27 -32 27c-14 0 -30 -6 -45 -18l-32 17l37 77c-134 28 -212 137 -212 300c0 280 166 460 369 460c194 0 258 -107 269 -247l-124 -10c-7 92 -43 142 -152 142
c-137 0 -236 -139 -236 -343c0 -125 56 -197 165 -197c91 0 151 41 199 159l110 -40c-61 -147 -157 -232 -315 -232c-7 0 -13 0 -19 1l-16 -38c13 9 31 15 53 15c38 0 66 -25 66 -63c0 -76 -73 -100 -132 -100z" />
    <glyph glyph-name="Ccircumflex" unicode="&#x108;" horiz-adv-x="707" 
d="M328 786h-71l156 166h85l97 -166h-72l-83 84zM325 -14c-178 0 -285 118 -285 308c0 280 166 460 369 460c194 0 258 -107 269 -247l-124 -10c-7 92 -43 142 -152 142c-137 0 -236 -139 -236 -343c0 -125 56 -197 165 -197c91 0 151 41 199 159l110 -40
c-61 -147 -157 -232 -315 -232z" />
    <glyph glyph-name="Cdotaccent" unicode="&#x10a;" horiz-adv-x="707" 
d="M325 -14c-178 0 -285 118 -285 308c0 280 166 460 369 460c194 0 258 -107 269 -247l-124 -10c-7 92 -43 142 -152 142c-137 0 -236 -139 -236 -343c0 -125 56 -197 165 -197c91 0 151 41 199 159l110 -40c-61 -147 -157 -232 -315 -232zM494 794h-132l20 111h132z" />
    <glyph glyph-name="Dcaron" unicode="&#x10e;" horiz-adv-x="718" 
d="M464 787h-85l-97 166h72l82 -84l113 84h71zM255 634l-93 -530h102c192 0 289 112 289 327c0 129 -69 203 -233 203h-65zM245 0h-226l130 740h176c222 0 354 -104 354 -303c0 -304 -177 -437 -434 -437z" />
    <glyph glyph-name="Dcroat" unicode="&#x110;" horiz-adv-x="718" 
d="M244 0h-225l59 335h-73l17 96h73l54 309h175c223 0 355 -104 355 -303c0 -304 -177 -437 -435 -437zM202 335l-39 -223h102c193 0 287 104 287 319c0 129 -72 193 -234 193h-65l-34 -193h155l-17 -96h-155z" />
    <glyph glyph-name="Eacute" unicode="&#xc9;" horiz-adv-x="611" 
d="M374 787h-81l118 166h132zM506 0h-487l130 740h468l-21 -116h-343l-32 -184h249l-19 -111h-249l-38 -215h362z" />
    <glyph glyph-name="Ebreve" unicode="&#x114;" horiz-adv-x="611" 
d="M506 0h-487l130 740h468l-21 -116h-343l-32 -184h249l-19 -111h-249l-38 -215h362zM395 781c-117 0 -155 75 -149 177h68c1 -75 31 -95 85 -95c42 0 87 19 105 95h69c-16 -104 -82 -177 -178 -177z" />
    <glyph glyph-name="Ecaron" unicode="&#x11a;" horiz-adv-x="611" 
d="M425 787h-85l-97 166h72l82 -84l113 84h71zM506 0h-487l130 740h468l-21 -116h-343l-32 -184h249l-19 -111h-249l-38 -215h362z" />
    <glyph glyph-name="Ecircumflex" unicode="&#xca;" horiz-adv-x="611" 
d="M285 787h-71l156 166h85l97 -166h-72l-83 84zM506 0h-487l130 740h468l-21 -116h-343l-32 -184h249l-19 -111h-249l-38 -215h362z" />
    <glyph glyph-name="Edieresis" unicode="&#xcb;" horiz-adv-x="611" 
d="M534 784h-112l21 121h112zM342 784h-112l21 121h112zM506 0h-487l130 740h468l-21 -116h-343l-32 -184h249l-19 -111h-249l-38 -215h362z" />
    <glyph glyph-name="Edotaccent" unicode="&#x116;" horiz-adv-x="611" 
d="M506 0h-487l130 740h468l-21 -116h-343l-32 -184h249l-19 -111h-249l-38 -215h362zM451 792h-132l20 111h132z" />
    <glyph glyph-name="Egrave" unicode="&#xc8;" horiz-adv-x="611" 
d="M506 0h-487l130 740h468l-21 -116h-343l-32 -184h249l-19 -111h-249l-38 -215h362zM433 787h-81l-129 166h132z" />
    <glyph glyph-name="Emacron" unicode="&#x112;" horiz-adv-x="611" 
d="M506 0h-487l130 740h468l-21 -116h-343l-32 -184h249l-19 -111h-249l-38 -215h362zM537 781h-307l16 91h307z" />
    <glyph glyph-name="Eogonek" unicode="&#x118;" horiz-adv-x="611" 
d="M506 0h-62c-47 -31 -77 -66 -77 -99c0 -19 12 -34 47 -34c27 0 54 7 82 18l18 -39c-40 -22 -80 -33 -128 -33c-76 0 -109 30 -109 71c0 47 41 83 93 116h-351l130 740h468l-21 -116h-343l-32 -184h249l-19 -111h-249l-38 -215h362z" />
    <glyph glyph-name="Gbreve" unicode="&#x11e;" horiz-adv-x="738" 
d="M307 -14c-180 0 -265 129 -265 299c0 302 176 469 370 469c165 0 250 -79 268 -234l-120 -16c-9 95 -60 135 -156 135c-127 0 -235 -119 -235 -340c0 -134 66 -202 162 -202c95 0 168 59 195 168h-147l19 106h267l-66 -371h-103l19 107h-2c-30 -54 -101 -121 -206 -121z
M444 779c-117 0 -155 75 -149 177h68c1 -75 31 -95 85 -95c42 0 87 19 105 95h69c-16 -104 -82 -177 -178 -177z" />
    <glyph glyph-name="Gcircumflex" unicode="&#x11c;" horiz-adv-x="738" 
d="M344 786h-71l156 166h85l97 -166h-72l-83 84zM307 -14c-180 0 -265 129 -265 299c0 302 176 469 370 469c165 0 250 -79 268 -234l-120 -16c-9 95 -60 135 -156 135c-127 0 -235 -119 -235 -340c0 -134 66 -202 162 -202c95 0 168 59 195 168h-147l19 106h267l-66 -371
h-103l19 107h-2c-30 -54 -101 -121 -206 -121z" />
    <glyph glyph-name="Gcommaaccent" unicode="&#x122;" horiz-adv-x="738" 
d="M207 -271l51 106h-49l22 120h123l-18 -105l-76 -121h-53zM307 -14c-180 0 -265 129 -265 299c0 302 176 469 370 469c165 0 250 -79 268 -234l-120 -16c-9 95 -60 135 -156 135c-127 0 -235 -119 -235 -340c0 -134 66 -202 162 -202c95 0 168 59 195 168h-147l19 106h267
l-66 -371h-103l19 107h-2c-30 -54 -101 -121 -206 -121z" />
    <glyph glyph-name="Gdotaccent" unicode="&#x120;" horiz-adv-x="738" 
d="M307 -14c-180 0 -265 129 -265 299c0 302 176 469 370 469c165 0 250 -79 268 -234l-120 -16c-9 95 -60 135 -156 135c-127 0 -235 -119 -235 -340c0 -134 66 -202 162 -202c95 0 168 59 195 168h-147l19 106h267l-66 -371h-103l19 107h-2c-30 -54 -101 -121 -206 -121z
M510 794h-132l20 111h132z" />
    <glyph glyph-name="Hbar" unicode="&#x126;" horiz-adv-x="744" 
d="M41 534l17 96h73l19 110h125l-20 -110h326l20 110h125l-19 -110h72l-17 -96h-72l-94 -534h-125l58 329h-326l-58 -329h-125l94 534h-73zM223 445h326l15 89h-326z" />
    <glyph glyph-name="Hcircumflex" unicode="&#x124;" horiz-adv-x="744" 
d="M347 786h-71l156 166h85l97 -166h-72l-83 84zM144 0h-125l130 740h125l-52 -295h326l52 295h125l-130 -740h-125l58 329h-326z" />
    <glyph glyph-name="IJ" unicode="&#x132;" horiz-adv-x="785" 
d="M152 0h-125l130 740h125zM450 -14c-103 0 -163 39 -216 94l81 82c41 -41 75 -64 126 -64c62 0 102 19 119 118l92 524h125l-95 -544c-25 -139 -95 -210 -232 -210z" />
    <glyph glyph-name="Iacute" unicode="&#xcd;" horiz-adv-x="310" 
d="M152 0h-125l130 740h125zM252 787h-81l118 166h132z" />
    <glyph glyph-name="Ibreve" unicode="&#x12c;" horiz-adv-x="310" 
d="M152 0h-125l130 740h125zM245 781c-117 0 -155 75 -149 177h68c1 -75 31 -95 85 -95c42 0 87 19 105 95h69c-16 -104 -82 -177 -178 -177z" />
    <glyph glyph-name="Icircumflex" unicode="&#xce;" horiz-adv-x="310" 
d="M152 0h-125l130 740h125zM131 787h-71l156 166h85l97 -166h-72l-83 84z" />
    <glyph glyph-name="Idieresis" unicode="&#xcf;" horiz-adv-x="310" 
d="M152 0h-125l130 740h125zM379 784h-112l21 121h112zM187 784h-112l21 121h112z" />
    <glyph glyph-name="Idotaccent" unicode="&#x130;" horiz-adv-x="310" 
d="M152 0h-125l130 740h125zM296 792h-132l20 111h132z" />
    <glyph glyph-name="Igrave" unicode="&#xcc;" horiz-adv-x="310" 
d="M152 0h-125l130 740h125zM279 787h-81l-129 166h132z" />
    <glyph glyph-name="Imacron" unicode="&#x12a;" horiz-adv-x="310" 
d="M152 0h-125l130 740h125zM382 781h-307l16 91h307z" />
    <glyph glyph-name="Iogonek" unicode="&#x12e;" horiz-adv-x="310" 
d="M152 0h-58c-47 -31 -77 -66 -77 -99c0 -19 11 -34 46 -34c27 0 55 7 82 18l18 -39c-39 -22 -80 -33 -128 -33c-76 0 -109 30 -109 71c0 50 46 87 102 121l129 735h125z" />
    <glyph glyph-name="Itilde" unicode="&#x128;" horiz-adv-x="310" 
d="M152 0h-125l130 740h125zM310 779c-63 0 -99 56 -138 56c-28 0 -44 -15 -50 -54h-71c11 98 55 139 121 139c64 0 101 -56 138 -56c27 0 44 15 51 54h71c-13 -97 -58 -139 -122 -139z" />
    <glyph glyph-name="Jcircumflex" unicode="&#x134;" horiz-adv-x="515" 
d="M351 786h-71l156 166h85l97 -166h-72l-83 84zM180 -14c-103 0 -163 39 -216 94l81 82c41 -41 75 -64 126 -64c62 0 102 19 119 118l92 524h125l-95 -544c-25 -139 -95 -210 -232 -210z" />
    <glyph glyph-name="Kcommaaccent" unicode="&#x136;" horiz-adv-x="688" 
d="M187 -271l51 106h-49l22 120h123l-18 -105l-76 -121h-53zM604 0h-132l-164 371l-119 -115l-45 -256h-125l130 740h125l-60 -338l352 338h137l-298 -286z" />
    <glyph glyph-name="Lacute" unicode="&#x139;" horiz-adv-x="568" 
d="M261 784h-81l118 166h132zM474 0h-455l130 740h125l-110 -626h330z" />
    <glyph glyph-name="Lcaron" unicode="&#x13d;" horiz-adv-x="568" 
d="M344 515l51 105h-49l21 120h123l-18 -104l-76 -121h-52zM474 0h-455l130 740h125l-110 -626h330z" />
    <glyph glyph-name="Lcommaaccent" unicode="&#x13b;" horiz-adv-x="568" 
d="M137 -271l51 106h-49l22 120h123l-18 -105l-76 -121h-53zM474 0h-455l130 740h125l-110 -626h330z" />
    <glyph glyph-name="Ldot" unicode="&#x13f;" horiz-adv-x="593" 
d="M493 351h-122l20 111h122zM474 0h-455l130 740h125l-110 -626h330z" />
    <glyph glyph-name="Nacute" unicode="&#x143;" horiz-adv-x="753" 
d="M445 784h-81l118 166h132zM135 0h-116l130 740h127l247 -531h2l94 531h115l-130 -740h-114l-258 542h-2z" />
    <glyph glyph-name="Ncaron" unicode="&#x147;" horiz-adv-x="753" 
d="M491 787h-85l-97 166h72l82 -84l113 84h71zM135 0h-116l130 740h127l247 -531h2l94 531h115l-130 -740h-114l-258 542h-2z" />
    <glyph glyph-name="Ncommaaccent" unicode="&#x145;" horiz-adv-x="753" 
d="M219 -271l51 106h-49l22 120h123l-18 -105l-76 -121h-53zM135 0h-116l130 740h127l247 -531h2l94 531h115l-130 -740h-114l-258 542h-2z" />
    <glyph glyph-name="Ntilde" unicode="&#xd1;" horiz-adv-x="753" 
d="M135 0h-116l130 740h127l247 -531h2l94 531h115l-130 -740h-114l-258 542h-2zM530 780c-63 0 -99 56 -138 56c-28 0 -44 -15 -50 -54h-71c11 98 55 139 121 139c64 0 101 -56 138 -56c27 0 44 15 51 54h71c-13 -97 -58 -139 -122 -139z" />
    <glyph glyph-name="Eng" unicode="&#x14a;" horiz-adv-x="754" 
d="M20 0l130 740h127l247 -531h1l94 531h116l-131 -740c-25 -136 -92 -203 -222 -203c-103 0 -169 39 -216 93l71 77c33 -42 83 -69 134 -69c56 0 98 25 117 107l-255 537h-2l-96 -542h-115z" />
    <glyph glyph-name="Oacute" unicode="&#xd3;" horiz-adv-x="754" 
d="M445 787h-81l118 166h132zM338 99c128 0 251 110 251 339c0 127 -60 201 -172 201c-125 0 -251 -106 -251 -336c0 -128 61 -204 172 -204zM332 -14c-173 0 -292 122 -292 316c0 295 194 452 390 452c167 0 285 -121 285 -315c0 -294 -188 -453 -383 -453z" />
    <glyph glyph-name="Obreve" unicode="&#x14e;" horiz-adv-x="754" 
d="M338 99c128 0 251 110 251 339c0 127 -60 201 -172 201c-125 0 -251 -106 -251 -336c0 -128 61 -204 172 -204zM332 -14c-173 0 -292 122 -292 316c0 295 194 452 390 452c167 0 285 -121 285 -315c0 -294 -188 -453 -383 -453zM466 781c-117 0 -155 75 -149 177h68
c1 -75 31 -95 85 -95c42 0 87 19 105 95h69c-16 -104 -82 -177 -178 -177z" />
    <glyph glyph-name="Ocircumflex" unicode="&#xd4;" horiz-adv-x="754" 
d="M352 787h-71l156 166h85l97 -166h-72l-83 84zM338 99c128 0 251 110 251 339c0 127 -60 201 -172 201c-125 0 -251 -106 -251 -336c0 -128 61 -204 172 -204zM332 -14c-173 0 -292 122 -292 316c0 295 194 452 390 452c167 0 285 -121 285 -315
c0 -294 -188 -453 -383 -453z" />
    <glyph glyph-name="Odieresis" unicode="&#xd6;" horiz-adv-x="754" 
d="M600 784h-112l21 121h112zM408 784h-112l21 121h112zM338 99c128 0 251 110 251 339c0 127 -60 201 -172 201c-125 0 -251 -106 -251 -336c0 -128 61 -204 172 -204zM332 -14c-173 0 -292 122 -292 316c0 295 194 452 390 452c167 0 285 -121 285 -315
c0 -294 -188 -453 -383 -453z" />
    <glyph glyph-name="Ograve" unicode="&#xd2;" horiz-adv-x="754" 
d="M338 99c128 0 251 110 251 339c0 127 -60 201 -172 201c-125 0 -251 -106 -251 -336c0 -128 61 -204 172 -204zM332 -14c-173 0 -292 122 -292 316c0 295 194 452 390 452c167 0 285 -121 285 -315c0 -294 -188 -453 -383 -453zM505 787h-81l-129 166h132z" />
    <glyph glyph-name="Ohungarumlaut" unicode="&#x150;" horiz-adv-x="754" 
d="M538 784h-82l129 166h134zM359 784h-82l124 166h134zM338 99c128 0 251 110 251 339c0 127 -60 201 -172 201c-125 0 -251 -106 -251 -336c0 -128 61 -204 172 -204zM332 -14c-173 0 -292 122 -292 316c0 295 194 452 390 452c167 0 285 -121 285 -315
c0 -294 -188 -453 -383 -453z" />
    <glyph glyph-name="Omacron" unicode="&#x14c;" horiz-adv-x="754" 
d="M603 781h-307l16 91h307zM338 99c128 0 251 110 251 339c0 127 -60 201 -172 201c-125 0 -251 -106 -251 -336c0 -128 61 -204 172 -204zM332 -14c-173 0 -292 122 -292 316c0 295 194 452 390 452c167 0 285 -121 285 -315c0 -294 -188 -453 -383 -453z" />
    <glyph glyph-name="Otilde" unicode="&#xd5;" horiz-adv-x="754" 
d="M338 99c128 0 251 110 251 339c0 127 -60 201 -172 201c-125 0 -251 -106 -251 -336c0 -128 61 -204 172 -204zM332 -14c-173 0 -292 122 -292 316c0 295 194 452 390 452c167 0 285 -121 285 -315c0 -294 -188 -453 -383 -453zM531 780c-63 0 -99 56 -138 56
c-28 0 -44 -15 -50 -54h-71c11 98 55 139 121 139c64 0 101 -56 138 -56c27 0 44 15 51 54h71c-13 -97 -58 -139 -122 -139z" />
    <glyph glyph-name="Racute" unicode="&#x154;" horiz-adv-x="681" 
d="M409 784h-81l118 166h132zM142 0h-123l130 740h225c176 0 275 -64 275 -191c0 -135 -82 -223 -199 -242l112 -307h-125l-106 292h-138zM252 626l-39 -225h149c88 0 161 21 161 134c0 66 -50 91 -157 91h-114z" />
    <glyph glyph-name="Rcaron" unicode="&#x158;" horiz-adv-x="681" 
d="M455 787h-85l-97 166h72l82 -84l113 84h71zM142 0h-123l130 740h225c176 0 275 -64 275 -191c0 -135 -82 -223 -199 -242l112 -307h-125l-106 292h-138zM252 626l-39 -225h149c88 0 161 21 161 134c0 66 -50 91 -157 91h-114z" />
    <glyph glyph-name="Rcommaaccent" unicode="&#x156;" horiz-adv-x="681" 
d="M183 -271l51 106h-49l22 120h123l-18 -105l-76 -121h-53zM142 0h-123l130 740h225c176 0 275 -64 275 -191c0 -135 -82 -223 -199 -242l112 -307h-125l-106 292h-138zM252 626l-39 -225h149c88 0 161 21 161 134c0 66 -50 91 -157 91h-114z" />
    <glyph glyph-name="Sacute" unicode="&#x15a;" horiz-adv-x="664" 
d="M400 784h-81l118 166h132zM300 -15c-168 0 -260 69 -295 196l113 38c31 -89 84 -122 193 -122c78 0 150 22 150 106c0 153 -365 104 -365 325c0 153 119 227 261 227c159 0 227 -65 274 -156l-109 -51c-31 58 -84 93 -173 93c-77 0 -128 -31 -128 -97
c0 -143 365 -101 365 -320c0 -163 -122 -239 -286 -239z" />
    <glyph glyph-name="Scaron" unicode="&#x160;" horiz-adv-x="664" 
d="M447 790h-85l-97 166h72l82 -84l113 84h71zM300 -15c-168 0 -260 69 -295 196l113 38c31 -89 84 -122 193 -122c78 0 150 22 150 106c0 153 -365 104 -365 325c0 153 119 227 261 227c159 0 227 -65 274 -156l-109 -51c-31 58 -84 93 -173 93c-77 0 -128 -31 -128 -97
c0 -143 365 -101 365 -320c0 -163 -122 -239 -286 -239z" />
    <glyph glyph-name="Scedilla" unicode="&#x15e;" horiz-adv-x="664" 
d="M256 -199c-69 0 -109 14 -140 37l32 40c26 -20 56 -30 95 -30c37 0 60 13 60 43c0 16 -12 27 -32 27c-14 0 -30 -6 -45 -18l-32 17l36 73c-124 17 -195 83 -225 191l113 38c31 -89 84 -122 193 -122c78 0 150 22 150 106c0 153 -365 104 -365 325c0 153 119 227 261 227
c159 0 227 -65 274 -156l-109 -51c-31 58 -84 93 -173 93c-77 0 -128 -31 -128 -97c0 -143 365 -101 365 -320c0 -163 -122 -239 -286 -239h-16l-15 -36c13 9 31 15 53 15c38 0 66 -25 66 -63c0 -76 -73 -100 -132 -100z" />
    <glyph glyph-name="Scircumflex" unicode="&#x15c;" horiz-adv-x="664" 
d="M304 786h-71l156 166h85l97 -166h-72l-83 84zM300 -15c-168 0 -260 69 -295 196l113 38c31 -89 84 -122 193 -122c78 0 150 22 150 106c0 153 -365 104 -365 325c0 153 119 227 261 227c159 0 227 -65 274 -156l-109 -51c-31 58 -84 93 -173 93c-77 0 -128 -31 -128 -97
c0 -143 365 -101 365 -320c0 -163 -122 -239 -286 -239z" />
    <glyph glyph-name="Scommaaccent" unicode="&#x218;" horiz-adv-x="664" 
d="M175 -271l51 106h-49l22 120h123l-18 -105l-76 -121h-53zM300 -15c-168 0 -260 69 -295 196l113 38c31 -89 84 -122 193 -122c78 0 150 22 150 106c0 153 -365 104 -365 325c0 153 119 227 261 227c159 0 227 -65 274 -156l-109 -51c-31 58 -84 93 -173 93
c-77 0 -128 -31 -128 -97c0 -143 365 -101 365 -320c0 -163 -122 -239 -286 -239z" />
    <glyph glyph-name="Tbar" unicode="&#x166;" horiz-adv-x="625" 
d="M15 304l18 96h222l39 224h-223l21 116h571l-21 -116h-223l-39 -224h224l-17 -96h-224l-53 -304h-125l53 304h-223z" />
    <glyph glyph-name="Tcaron" unicode="&#x164;" horiz-adv-x="625" 
d="M428 787h-85l-97 166h72l82 -84l113 84h71zM310 0h-125l109 624h-223l21 116h571l-21 -116h-223z" />
    <glyph glyph-name="Tcommaaccent" unicode="&#x162;" horiz-adv-x="625" 
d="M156 -271l51 106h-49l22 120h123l-18 -105l-76 -121h-53zM310 0h-125l109 624h-223l21 116h571l-21 -116h-223z" />
    <glyph glyph-name="Tcommaaccent" unicode="&#x21a;" horiz-adv-x="625" 
d="M156 -271l51 106h-49l22 120h123l-18 -105l-76 -121h-53zM310 0h-125l109 624h-223l21 116h571l-21 -116h-223z" />
    <glyph glyph-name="Uacute" unicode="&#xda;" horiz-adv-x="711" 
d="M424 787h-81l118 166h132zM314 -13c-222 0 -283 133 -253 304l78 449h125l-79 -456c-20 -113 11 -183 135 -183c103 0 155 43 175 157l84 482h123l-87 -497c-30 -171 -131 -256 -301 -256z" />
    <glyph glyph-name="Ubreve" unicode="&#x16c;" horiz-adv-x="711" 
d="M314 -13c-222 0 -283 133 -253 304l78 449h125l-79 -456c-20 -113 11 -183 135 -183c103 0 155 43 175 157l84 482h123l-87 -497c-30 -171 -131 -256 -301 -256zM440 781c-117 0 -155 75 -149 177h68c1 -75 31 -95 85 -95c42 0 87 19 105 95h69
c-16 -104 -82 -177 -178 -177z" />
    <glyph glyph-name="Ucircumflex" unicode="&#xdb;" horiz-adv-x="711" 
d="M330 787h-71l156 166h85l97 -166h-72l-83 84zM314 -13c-222 0 -283 133 -253 304l78 449h125l-79 -456c-20 -113 11 -183 135 -183c103 0 155 43 175 157l84 482h123l-87 -497c-30 -171 -131 -256 -301 -256z" />
    <glyph glyph-name="Udieresis" unicode="&#xdc;" horiz-adv-x="711" 
d="M579 784h-112l21 121h112zM387 784h-112l21 121h112zM314 -13c-222 0 -283 133 -253 304l78 449h125l-79 -456c-20 -113 11 -183 135 -183c103 0 155 43 175 157l84 482h123l-87 -497c-30 -171 -131 -256 -301 -256z" />
    <glyph glyph-name="Ugrave" unicode="&#xd9;" horiz-adv-x="711" 
d="M314 -13c-222 0 -283 133 -253 304l78 449h125l-79 -456c-20 -113 11 -183 135 -183c103 0 155 43 175 157l84 482h123l-87 -497c-30 -171 -131 -256 -301 -256zM483 787h-81l-129 166h132z" />
    <glyph glyph-name="Uhungarumlaut" unicode="&#x170;" horiz-adv-x="711" 
d="M314 -13c-222 0 -283 133 -253 304l78 449h125l-79 -456c-20 -113 11 -183 135 -183c103 0 155 43 175 157l84 482h123l-87 -497c-30 -171 -131 -256 -301 -256zM539 784h-82l129 166h134zM360 784h-82l124 166h134z" />
    <glyph glyph-name="Umacron" unicode="&#x16a;" horiz-adv-x="711" 
d="M314 -13c-222 0 -283 133 -253 304l78 449h125l-79 -456c-20 -113 11 -183 135 -183c103 0 155 43 175 157l84 482h123l-87 -497c-30 -171 -131 -256 -301 -256zM582 781h-307l16 91h307z" />
    <glyph glyph-name="Uogonek" unicode="&#x172;" horiz-adv-x="711" 
d="M287 -187c-75 0 -108 30 -108 71c0 43 33 76 78 107c-176 21 -224 144 -196 300l78 449h125l-79 -456c-20 -113 11 -183 135 -183c103 0 155 43 175 157l84 482h123l-87 -497c-29 -166 -126 -251 -287 -256c-36 -28 -59 -57 -59 -86c0 -19 11 -34 46 -34c27 0 55 7 82 18
l18 -39c-39 -22 -80 -33 -128 -33z" />
    <glyph glyph-name="Uring" unicode="&#x16e;" horiz-adv-x="711" 
d="M439 827c28 0 54 22 54 59c0 24 -15 43 -42 43c-28 0 -53 -23 -53 -59c0 -24 14 -43 41 -43zM434 776c-57 0 -90 42 -90 92c0 69 56 111 113 111s90 -40 90 -89c0 -71 -56 -114 -113 -114zM314 -13c-222 0 -283 133 -253 304l78 449h125l-79 -456
c-20 -113 11 -183 135 -183c103 0 155 43 175 157l84 482h123l-87 -497c-30 -171 -131 -256 -301 -256z" />
    <glyph glyph-name="Utilde" unicode="&#x168;" horiz-adv-x="711" 
d="M314 -13c-222 0 -283 133 -253 304l78 449h125l-79 -456c-20 -113 11 -183 135 -183c103 0 155 43 175 157l84 482h123l-87 -497c-30 -171 -131 -256 -301 -256zM507 779c-63 0 -99 56 -138 56c-28 0 -44 -15 -50 -54h-71c11 98 55 139 121 139c64 0 101 -56 138 -56
c27 0 44 15 51 54h71c-13 -97 -58 -139 -122 -139z" />
    <glyph glyph-name="Wacute" unicode="&#x1e82;" horiz-adv-x="934" 
d="M582 786h-81l118 166h132zM266 0h-110l-62 740h125l22 -383c3 -59 7 -114 9 -172h2c22 58 44 112 68 171l156 384h120l25 -386c4 -63 7 -107 8 -169h2c25 65 40 103 66 166l156 389h117l-320 -740h-109l-34 567h-2z" />
    <glyph glyph-name="Wcircumflex" unicode="&#x174;" horiz-adv-x="934" 
d="M442 786h-71l156 166h85l97 -166h-72l-83 84zM266 0h-110l-62 740h125l22 -383c3 -59 7 -114 9 -172h2c22 58 44 112 68 171l156 384h120l25 -386c4 -63 7 -107 8 -169h2c25 65 40 103 66 166l156 389h117l-320 -740h-109l-34 567h-2z" />
    <glyph glyph-name="Wdieresis" unicode="&#x1e84;" horiz-adv-x="934" 
d="M690 783h-112l21 121h112zM498 783h-112l21 121h112zM266 0h-110l-62 740h125l22 -383c3 -59 7 -114 9 -172h2c22 58 44 112 68 171l156 384h120l25 -386c4 -63 7 -107 8 -169h2c25 65 40 103 66 166l156 389h117l-320 -740h-109l-34 567h-2z" />
    <glyph glyph-name="Wgrave" unicode="&#x1e80;" horiz-adv-x="934" 
d="M266 0h-110l-62 740h125l22 -383c3 -59 7 -114 9 -172h2c22 58 44 112 68 171l156 384h120l25 -386c4 -63 7 -107 8 -169h2c25 65 40 103 66 166l156 389h117l-320 -740h-109l-34 567h-2zM571 786h-81l-129 166h132z" />
    <glyph glyph-name="Yacute" unicode="&#xdd;" horiz-adv-x="651" 
d="M323 0h-125l56 319l-173 421h127l125 -315l235 315h133l-322 -421zM394 787h-81l118 166h132z" />
    <glyph glyph-name="Ycircumflex" unicode="&#x176;" horiz-adv-x="651" 
d="M323 0h-125l56 319l-173 421h127l125 -315l235 315h133l-322 -421zM298 786h-71l156 166h85l97 -166h-72l-83 84z" />
    <glyph glyph-name="Ydieresis" unicode="&#x178;" horiz-adv-x="651" 
d="M323 0h-125l56 319l-173 421h127l125 -315l235 315h133l-322 -421zM549 784h-112l21 121h112zM357 784h-112l21 121h112z" />
    <glyph glyph-name="Ygrave" unicode="&#x1ef2;" horiz-adv-x="651" 
d="M323 0h-125l56 319l-173 421h127l125 -315l235 315h133l-322 -421zM443 786h-81l-129 166h132z" />
    <glyph glyph-name="Zacute" unicode="&#x179;" horiz-adv-x="635" 
d="M386 784h-81l118 166h132zM526 0h-556l18 97l490 529h-371l20 114h529l-17 -99l-486 -529h393z" />
    <glyph glyph-name="Zcaron" unicode="&#x17d;" horiz-adv-x="635" 
d="M432 790h-85l-97 166h72l82 -84l113 84h71zM526 0h-556l18 97l490 529h-371l20 114h529l-17 -99l-486 -529h393z" />
    <glyph glyph-name="Zdotaccent" unicode="&#x17b;" horiz-adv-x="635" 
d="M526 0h-556l18 97l490 529h-371l20 114h529l-17 -99l-486 -529h393zM458 792h-132l20 111h132z" />
    <glyph glyph-name="ae" unicode="&#xe6;" horiz-adv-x="888" 
d="M137 -9c-90 0 -146 52 -146 129c0 128 115 211 381 227l3 15c11 53 -13 78 -82 78c-58 0 -127 -21 -177 -53l-47 80c51 38 141 74 247 74c85 0 127 -27 146 -69c56 49 124 69 172 69c158 0 225 -109 194 -287l-5 -29h-355v-12c0 -104 65 -126 123 -126
c71 0 117 25 156 69l76 -64c-52 -61 -131 -103 -249 -103c-91 0 -160 36 -194 108c-56 -50 -145 -106 -243 -106zM356 215c0 18 1 35 3 51c-186 -14 -243 -58 -243 -121c0 -35 26 -59 74 -59c56 0 121 37 169 80c-2 15 -3 31 -3 49zM481 317h245c8 75 -14 124 -100 124
c-64 0 -120 -40 -145 -124z" />
    <glyph glyph-name="oe" unicode="&#x153;" horiz-adv-x="937" 
d="M622 -11c-81 0 -144 32 -181 91c-53 -61 -126 -91 -198 -91c-125 0 -228 79 -228 230c0 232 157 322 291 322c79 0 143 -35 180 -96c60 68 142 96 196 96c159 0 226 -109 195 -287l-5 -29h-355v-12c0 -104 67 -126 124 -126c72 0 116 24 155 69l76 -64
c-52 -61 -130 -103 -250 -103zM251 88c86 0 159 79 159 222c0 76 -32 130 -113 130c-87 0 -158 -82 -158 -223c0 -76 30 -129 112 -129zM530 317h246c8 75 -17 124 -103 124c-62 0 -118 -40 -143 -124z" />
    <glyph glyph-name="eth" unicode="&#xf0;" horiz-adv-x="585" 
d="M287 536l-23 69l78 31c-19 23 -38 42 -55 55l71 69c34 -25 63 -54 86 -85l94 37l23 -69l-77 -30c38 -76 54 -162 54 -245c0 -263 -126 -379 -292 -379c-147 0 -232 90 -232 220c0 208 145 292 257 292c72 0 126 -30 157 -81c-2 58 -20 110 -44 154zM250 89
c83 0 155 57 155 194c0 76 -40 123 -118 123c-75 0 -149 -61 -149 -197c0 -76 37 -120 112 -120z" />
    <glyph glyph-name="thorn" unicode="&#xfe;" horiz-adv-x="601" 
d="M270 89c72 0 155 66 155 223c0 80 -40 124 -106 124c-45 0 -96 -28 -126 -64l-42 -230c32 -33 66 -53 119 -53zM92 -201h-124l166 941h123l-49 -279c33 44 94 80 161 80c112 0 181 -77 181 -210c0 -219 -120 -340 -251 -340c-73 0 -125 20 -163 62z" />
    <glyph glyph-name="lslash" unicode="&#x142;" horiz-adv-x="321" 
d="M36 0l73 415l-82 -21l16 92l82 21l41 233h123l-35 -200l81 21l-16 -92l-81 -21l-79 -448h-123z" />
    <glyph glyph-name="oslash" unicode="&#xf8;" horiz-adv-x="586" 
d="M243 -11c-56 0 -107 15 -147 46l-75 -73l-45 48l76 73c-24 36 -37 81 -37 136c0 232 157 322 291 322c57 0 109 -16 149 -48l73 71l44 -48l-73 -72c22 -35 35 -79 35 -132c0 -230 -156 -323 -291 -323zM295 444c-87 0 -158 -86 -158 -227c0 -18 2 -35 5 -51l238 246
c-19 20 -47 32 -85 32zM253 84c86 0 159 83 159 226c0 17 -2 33 -5 48l-238 -244c19 -19 46 -30 84 -30z" />
    <glyph glyph-name="germandbls" unicode="&#xdf;" horiz-adv-x="645" 
d="M364 -11c-98 0 -151 34 -184 64l67 75c26 -23 59 -43 108 -43c71 0 114 43 114 126s-70 133 -191 135l15 91c120 1 165 45 165 121c0 44 -33 79 -108 79c-72 0 -117 -31 -135 -133l-89 -504h-122l90 512c30 165 131 228 259 228c148 0 223 -67 223 -165
c0 -104 -60 -155 -147 -175c92 -16 157 -88 157 -187c0 -157 -113 -224 -222 -224z" />
    <glyph glyph-name="aacute" unicode="&#xe1;" horiz-adv-x="560" 
d="M190 86c54 0 102 25 147 62l20 116c-183 -15 -241 -55 -241 -119c0 -35 26 -59 74 -59zM137 -9c-90 0 -146 52 -146 129c0 128 115 211 381 227l3 15c11 53 -15 78 -84 78c-58 0 -125 -21 -175 -53l-47 80c51 38 141 74 247 74c156 0 197 -83 176 -202l-37 -209
c-10 -58 -14 -85 -8 -130h-124c-3 27 -5 40 0 68c-60 -55 -125 -77 -186 -77zM314 587h-81l118 166h132z" />
    <glyph glyph-name="abreve" unicode="&#x103;" horiz-adv-x="560" 
d="M190 86c54 0 102 25 147 62l20 116c-183 -15 -241 -55 -241 -119c0 -35 26 -59 74 -59zM137 -9c-90 0 -146 52 -146 129c0 128 115 211 381 227l3 15c11 53 -15 78 -84 78c-58 0 -125 -21 -175 -53l-47 80c51 38 141 74 247 74c156 0 197 -83 176 -202l-37 -209
c-10 -58 -14 -85 -8 -130h-124c-3 27 -5 40 0 68c-60 -55 -125 -77 -186 -77zM335 582c-117 0 -155 75 -149 177h68c1 -75 31 -95 85 -95c42 0 87 19 105 95h69c-16 -104 -82 -177 -178 -177z" />
    <glyph glyph-name="acircumflex" unicode="&#xe2;" horiz-adv-x="560" 
d="M190 86c54 0 102 25 147 62l20 116c-183 -15 -241 -55 -241 -119c0 -35 26 -59 74 -59zM137 -9c-90 0 -146 52 -146 129c0 128 115 211 381 227l3 15c11 53 -15 78 -84 78c-58 0 -125 -21 -175 -53l-47 80c51 38 141 74 247 74c156 0 197 -83 176 -202l-37 -209
c-10 -58 -14 -85 -8 -130h-124c-3 27 -5 40 0 68c-60 -55 -125 -77 -186 -77zM220 587h-71l156 166h85l97 -166h-72l-83 84z" />
    <glyph glyph-name="adieresis" unicode="&#xe4;" horiz-adv-x="560" 
d="M190 86c54 0 102 25 147 62l20 116c-183 -15 -241 -55 -241 -119c0 -35 26 -59 74 -59zM137 -9c-90 0 -146 52 -146 129c0 128 115 211 381 227l3 15c11 53 -15 78 -84 78c-58 0 -125 -21 -175 -53l-47 80c51 38 141 74 247 74c156 0 197 -83 176 -202l-37 -209
c-10 -58 -14 -85 -8 -130h-124c-3 27 -5 40 0 68c-60 -55 -125 -77 -186 -77zM469 584h-112l21 121h112zM277 584h-112l21 121h112z" />
    <glyph glyph-name="agrave" unicode="&#xe0;" horiz-adv-x="560" 
d="M190 86c54 0 102 25 147 62l20 116c-183 -15 -241 -55 -241 -119c0 -35 26 -59 74 -59zM137 -9c-90 0 -146 52 -146 129c0 128 115 211 381 227l3 15c11 53 -15 78 -84 78c-58 0 -125 -21 -175 -53l-47 80c51 38 141 74 247 74c156 0 197 -83 176 -202l-37 -209
c-10 -58 -14 -85 -8 -130h-124c-3 27 -5 40 0 68c-60 -55 -125 -77 -186 -77zM373 587h-81l-129 166h132z" />
    <glyph glyph-name="amacron" unicode="&#x101;" horiz-adv-x="560" 
d="M190 86c54 0 102 25 147 62l20 116c-183 -15 -241 -55 -241 -119c0 -35 26 -59 74 -59zM137 -9c-90 0 -146 52 -146 129c0 128 115 211 381 227l3 15c11 53 -15 78 -84 78c-58 0 -125 -21 -175 -53l-47 80c51 38 141 74 247 74c156 0 197 -83 176 -202l-37 -209
c-10 -58 -14 -85 -8 -130h-124c-3 27 -5 40 0 68c-60 -55 -125 -77 -186 -77zM472 584h-307l16 91h307z" />
    <glyph glyph-name="aogonek" unicode="&#x105;" horiz-adv-x="560" 
d="M137 -9c-90 0 -146 52 -146 129c0 128 115 211 381 227l3 15c11 53 -15 78 -84 78c-58 0 -125 -21 -175 -53l-47 80c51 38 141 74 247 74c156 0 197 -83 176 -202l-37 -209c-10 -58 -14 -85 -8 -130h-58c-47 -31 -77 -66 -77 -99c0 -19 11 -34 46 -34c27 0 55 7 82 18
l18 -39c-39 -22 -80 -33 -128 -33c-75 0 -108 30 -108 71c0 50 45 87 100 121c-2 23 -4 37 1 63c-60 -55 -125 -77 -186 -77zM190 86c54 0 102 25 147 62l20 116c-183 -15 -241 -55 -241 -119c0 -35 26 -59 74 -59z" />
    <glyph glyph-name="aring" unicode="&#xe5;" horiz-adv-x="560" 
d="M190 86c54 0 102 25 147 62l20 116c-183 -15 -241 -55 -241 -119c0 -35 26 -59 74 -59zM137 -9c-90 0 -146 52 -146 129c0 128 115 211 381 227l3 15c11 53 -15 78 -84 78c-58 0 -125 -21 -175 -53l-47 80c51 38 141 74 247 74c156 0 197 -83 176 -202l-37 -209
c-10 -58 -14 -85 -8 -130h-124c-3 27 -5 40 0 68c-60 -55 -125 -77 -186 -77zM329 630c28 0 54 22 54 59c0 24 -15 43 -42 43c-28 0 -53 -23 -53 -59c0 -24 14 -43 41 -43zM324 579c-57 0 -90 42 -90 92c0 69 56 111 113 111s90 -40 90 -89c0 -71 -56 -114 -113 -114z" />
    <glyph glyph-name="atilde" unicode="&#xe3;" horiz-adv-x="560" 
d="M190 86c54 0 102 25 147 62l20 116c-183 -15 -241 -55 -241 -119c0 -35 26 -59 74 -59zM137 -9c-90 0 -146 52 -146 129c0 128 115 211 381 227l3 15c11 53 -15 78 -84 78c-58 0 -125 -21 -175 -53l-47 80c51 38 141 74 247 74c156 0 197 -83 176 -202l-37 -209
c-10 -58 -14 -85 -8 -130h-124c-3 27 -5 40 0 68c-60 -55 -125 -77 -186 -77zM399 580c-63 0 -99 56 -138 56c-28 0 -44 -15 -50 -54h-71c11 98 55 139 121 139c64 0 101 -56 138 -56c27 0 44 15 51 54h71c-13 -97 -58 -139 -122 -139z" />
    <glyph glyph-name="cacute" unicode="&#x107;" horiz-adv-x="535" 
d="M302 587h-81l118 166h132zM238 -11c-127 0 -223 79 -223 229c0 240 162 323 283 323c142 0 190 -67 210 -166l-110 -20c-15 66 -42 84 -106 84c-81 0 -153 -73 -153 -225c0 -81 33 -125 105 -125c54 0 89 17 128 93l96 -40c-38 -81 -99 -153 -230 -153z" />
    <glyph glyph-name="ccaron" unicode="&#x10d;" horiz-adv-x="535" 
d="M348 590h-85l-97 166h72l82 -84l113 84h71zM238 -11c-127 0 -223 79 -223 229c0 240 162 323 283 323c142 0 190 -67 210 -166l-110 -20c-15 66 -42 84 -106 84c-81 0 -153 -73 -153 -225c0 -81 33 -125 105 -125c54 0 89 17 128 93l96 -40c-38 -81 -99 -153 -230 -153z
" />
    <glyph glyph-name="ccedilla" unicode="&#xe7;" horiz-adv-x="535" 
d="M192 -199c-69 0 -109 14 -140 37l32 40c26 -20 56 -30 95 -30c37 0 60 13 60 43c0 16 -12 27 -32 27c-14 0 -30 -6 -45 -18l-32 17l39 81c-91 23 -154 98 -154 220c0 240 162 323 283 323c142 0 190 -67 210 -166l-110 -20c-15 66 -42 84 -106 84
c-81 0 -153 -73 -153 -225c0 -81 33 -125 105 -125c54 0 89 17 128 93l96 -40c-38 -81 -99 -153 -230 -153c-5 0 -11 0 -16 1l-17 -41c13 9 31 15 53 15c38 0 66 -25 66 -63c0 -76 -73 -100 -132 -100z" />
    <glyph glyph-name="ccircumflex" unicode="&#x109;" horiz-adv-x="535" 
d="M213 587h-71l156 166h85l97 -166h-72l-83 84zM238 -11c-127 0 -223 79 -223 229c0 240 162 323 283 323c142 0 190 -67 210 -166l-110 -20c-15 66 -42 84 -106 84c-81 0 -153 -73 -153 -225c0 -81 33 -125 105 -125c54 0 89 17 128 93l96 -40c-38 -81 -99 -153 -230 -153
z" />
    <glyph glyph-name="cdotaccent" unicode="&#x10b;" horiz-adv-x="535" 
d="M238 -11c-127 0 -223 79 -223 229c0 240 162 323 283 323c142 0 190 -67 210 -166l-110 -20c-15 66 -42 84 -106 84c-81 0 -153 -73 -153 -225c0 -81 33 -125 105 -125c54 0 89 17 128 93l96 -40c-38 -81 -99 -153 -230 -153zM381 595h-132l20 111h132z" />
    <glyph glyph-name="dcaron" unicode="&#x10f;" horiz-adv-x="601" 
d="M634 582l49 103h-47l20 116h119l-18 -101l-73 -118h-50zM245 89c46 0 88 23 126 64l41 230c-28 32 -65 53 -119 53c-69 0 -155 -60 -155 -225c0 -79 39 -122 107 -122zM195 -9c-99 0 -181 64 -181 210c0 236 132 340 250 340c78 0 132 -25 165 -61l45 260h123l-107 -610
c-10 -61 -14 -94 -7 -130h-127c-4 18 -5 43 0 70c-37 -49 -90 -79 -161 -79z" />
    <glyph glyph-name="dcroat" unicode="&#x111;" horiz-adv-x="601" 
d="M351 585l15 82h95l13 73h123l-13 -73h74l-15 -82h-73l-80 -455c-10 -61 -14 -94 -7 -130h-127c-4 18 -5 43 0 70c-37 -49 -90 -79 -161 -79c-99 0 -181 64 -181 210c0 236 132 340 250 340c78 0 132 -25 165 -61l18 105h-96zM245 89c46 0 88 23 126 64l41 230
c-28 32 -65 53 -119 53c-69 0 -155 -60 -155 -225c0 -79 39 -122 107 -122z" />
    <glyph glyph-name="eacute" unicode="&#xe9;" horiz-adv-x="554" 
d="M311 587h-81l118 166h132zM240 -11c-130 0 -225 77 -225 226c0 256 188 326 285 326c159 0 226 -109 195 -287l-5 -29h-355v-12c0 -104 67 -126 124 -126c72 0 116 24 155 69l76 -64c-52 -61 -130 -103 -250 -103zM148 317h246c8 75 -17 124 -103 124
c-62 0 -118 -40 -143 -124z" />
    <glyph glyph-name="ebreve" unicode="&#x115;" horiz-adv-x="554" 
d="M240 -11c-130 0 -225 77 -225 226c0 256 188 326 285 326c159 0 226 -109 195 -287l-5 -29h-355v-12c0 -104 67 -126 124 -126c72 0 116 24 155 69l76 -64c-52 -61 -130 -103 -250 -103zM148 317h246c8 75 -17 124 -103 124c-62 0 -118 -40 -143 -124zM332 582
c-117 0 -155 75 -149 177h68c1 -75 31 -95 85 -95c42 0 87 19 105 95h69c-16 -104 -82 -177 -178 -177z" />
    <glyph glyph-name="ecaron" unicode="&#x11b;" horiz-adv-x="554" 
d="M357 590h-85l-97 166h72l82 -84l113 84h71zM240 -11c-130 0 -225 77 -225 226c0 256 188 326 285 326c159 0 226 -109 195 -287l-5 -29h-355v-12c0 -104 67 -126 124 -126c72 0 116 24 155 69l76 -64c-52 -61 -130 -103 -250 -103zM148 317h246c8 75 -17 124 -103 124
c-62 0 -118 -40 -143 -124z" />
    <glyph glyph-name="ecircumflex" unicode="&#xea;" horiz-adv-x="554" 
d="M217 587h-71l156 166h85l97 -166h-72l-83 84zM240 -11c-130 0 -225 77 -225 226c0 256 188 326 285 326c159 0 226 -109 195 -287l-5 -29h-355v-12c0 -104 67 -126 124 -126c72 0 116 24 155 69l76 -64c-52 -61 -130 -103 -250 -103zM148 317h246c8 75 -17 124 -103 124
c-62 0 -118 -40 -143 -124z" />
    <glyph glyph-name="edieresis" unicode="&#xeb;" horiz-adv-x="554" 
d="M466 584h-112l21 121h112zM274 584h-112l21 121h112zM240 -11c-130 0 -225 77 -225 226c0 256 188 326 285 326c159 0 226 -109 195 -287l-5 -29h-355v-12c0 -104 67 -126 124 -126c72 0 116 24 155 69l76 -64c-52 -61 -130 -103 -250 -103zM148 317h246
c8 75 -17 124 -103 124c-62 0 -118 -40 -143 -124z" />
    <glyph glyph-name="edotaccent" unicode="&#x117;" horiz-adv-x="554" 
d="M240 -11c-130 0 -225 77 -225 226c0 256 188 326 285 326c159 0 226 -109 195 -287l-5 -29h-355v-12c0 -104 67 -126 124 -126c72 0 116 24 155 69l76 -64c-52 -61 -130 -103 -250 -103zM148 317h246c8 75 -17 124 -103 124c-62 0 -118 -40 -143 -124zM383 595h-132
l20 111h132z" />
    <glyph glyph-name="egrave" unicode="&#xe8;" horiz-adv-x="554" 
d="M240 -11c-130 0 -225 77 -225 226c0 256 188 326 285 326c159 0 226 -109 195 -287l-5 -29h-355v-12c0 -104 67 -126 124 -126c72 0 116 24 155 69l76 -64c-52 -61 -130 -103 -250 -103zM148 317h246c8 75 -17 124 -103 124c-62 0 -118 -40 -143 -124zM370 587h-81
l-129 166h132z" />
    <glyph glyph-name="emacron" unicode="&#x113;" horiz-adv-x="554" 
d="M240 -11c-130 0 -225 77 -225 226c0 256 188 326 285 326c159 0 226 -109 195 -287l-5 -29h-355v-12c0 -104 67 -126 124 -126c72 0 116 24 155 69l76 -64c-52 -61 -130 -103 -250 -103zM148 317h246c8 75 -17 124 -103 124c-62 0 -118 -40 -143 -124zM469 584h-307
l16 91h307z" />
    <glyph glyph-name="eogonek" unicode="&#x119;" horiz-adv-x="554" 
d="M251 -187c-75 0 -108 30 -108 71c0 42 32 76 76 106c-119 8 -204 84 -204 225c0 256 188 326 285 326c159 0 226 -109 195 -287l-5 -29h-355v-12c0 -104 67 -126 124 -126c72 0 116 24 155 69l76 -64c-43 -50 -103 -88 -190 -99c-41 -30 -67 -61 -67 -92
c0 -19 11 -34 46 -34c27 0 55 7 82 18l18 -39c-39 -22 -80 -33 -128 -33zM148 317h246c8 75 -17 124 -103 124c-62 0 -118 -40 -143 -124z" />
    <glyph glyph-name="gbreve" unicode="&#x11f;" horiz-adv-x="585" 
d="M251 162c-39 0 -72 6 -100 17c-14 -9 -20 -19 -20 -28c0 -31 45 -36 138 -50c103 -15 205 -39 205 -137c0 -130 -131 -171 -269 -171c-204 0 -277 69 -277 139c0 72 69 111 113 126c-18 13 -28 29 -28 52c0 32 19 72 83 101c-37 32 -55 75 -55 124c0 133 112 206 243 206
c75 0 128 -24 162 -61c40 30 104 53 146 57l-17 -99c-32 -1 -68 -5 -96 -13c6 -19 10 -40 10 -61c0 -133 -108 -202 -238 -202zM259 245c68 0 117 36 117 119c0 54 -29 86 -99 86c-66 0 -120 -39 -120 -119c0 -54 33 -86 102 -86zM56 -49c0 -44 38 -68 171 -68
c72 0 132 12 132 56c0 45 -57 58 -135 70c-39 6 -77 11 -110 19c-31 -15 -58 -43 -58 -77zM322 582c-117 0 -155 75 -149 177h68c1 -75 31 -95 85 -95c42 0 87 19 105 95h69c-16 -104 -82 -177 -178 -177z" />
    <glyph glyph-name="gcircumflex" unicode="&#x11d;" horiz-adv-x="585" 
d="M220 587h-71l156 166h85l97 -166h-72l-83 84zM251 162c-39 0 -72 6 -100 17c-14 -9 -20 -19 -20 -28c0 -31 45 -36 138 -50c103 -15 205 -39 205 -137c0 -130 -131 -171 -269 -171c-204 0 -277 69 -277 139c0 72 69 111 113 126c-18 13 -28 29 -28 52c0 32 19 72 83 101
c-37 32 -55 75 -55 124c0 133 112 206 243 206c75 0 128 -24 162 -61c40 30 104 53 146 57l-17 -99c-32 -1 -68 -5 -96 -13c6 -19 10 -40 10 -61c0 -133 -108 -202 -238 -202zM259 245c68 0 117 36 117 119c0 54 -29 86 -99 86c-66 0 -120 -39 -120 -119
c0 -54 33 -86 102 -86zM56 -49c0 -44 38 -68 171 -68c72 0 132 12 132 56c0 45 -57 58 -135 70c-39 6 -77 11 -110 19c-31 -15 -58 -43 -58 -77z" />
    <glyph glyph-name="gcommaaccent" unicode="&#x123;" horiz-adv-x="585" 
d="M247 584l18 105l76 121h52l-51 -106h49l-21 -120h-123zM251 162c-39 0 -72 6 -100 17c-14 -9 -20 -19 -20 -28c0 -31 45 -36 138 -50c103 -15 205 -39 205 -137c0 -130 -131 -171 -269 -171c-204 0 -277 69 -277 139c0 72 69 111 113 126c-18 13 -28 29 -28 52
c0 32 19 72 83 101c-37 32 -55 75 -55 124c0 133 112 206 243 206c75 0 128 -24 162 -61c40 30 104 53 146 57l-17 -99c-32 -1 -68 -5 -96 -13c6 -19 10 -40 10 -61c0 -133 -108 -202 -238 -202zM259 245c68 0 117 36 117 119c0 54 -29 86 -99 86c-66 0 -120 -39 -120 -119
c0 -54 33 -86 102 -86zM56 -49c0 -44 38 -68 171 -68c72 0 132 12 132 56c0 45 -57 58 -135 70c-39 6 -77 11 -110 19c-31 -15 -58 -43 -58 -77z" />
    <glyph glyph-name="gdotaccent" unicode="&#x121;" horiz-adv-x="585" 
d="M251 162c-39 0 -72 6 -100 17c-14 -9 -20 -19 -20 -28c0 -31 45 -36 138 -50c103 -15 205 -39 205 -137c0 -130 -131 -171 -269 -171c-204 0 -277 69 -277 139c0 72 69 111 113 126c-18 13 -28 29 -28 52c0 32 19 72 83 101c-37 32 -55 75 -55 124c0 133 112 206 243 206
c75 0 128 -24 162 -61c40 30 104 53 146 57l-17 -99c-32 -1 -68 -5 -96 -13c6 -19 10 -40 10 -61c0 -133 -108 -202 -238 -202zM259 245c68 0 117 36 117 119c0 54 -29 86 -99 86c-66 0 -120 -39 -120 -119c0 -54 33 -86 102 -86zM56 -49c0 -44 38 -68 171 -68
c72 0 132 12 132 56c0 45 -57 58 -135 70c-39 6 -77 11 -110 19c-31 -15 -58 -43 -58 -77zM376 595h-132l20 111h132z" />
    <glyph glyph-name="hbar" unicode="&#x127;" horiz-adv-x="593" 
d="M35 585l15 82h72l13 73h123l-13 -73h94l-14 -82h-95l-22 -129c36 42 105 85 185 85c107 0 156 -61 137 -166l-66 -375h-123l61 348c11 58 -9 88 -71 88c-45 0 -97 -27 -139 -66l-65 -370h-123l103 585h-72z" />
    <glyph glyph-name="hcircumflex" unicode="&#x125;" horiz-adv-x="593" 
d="M105 787h-71l156 166h85l97 -166h-72l-83 84zM127 0h-123l131 740h123l-50 -284c36 42 105 85 185 85c107 0 156 -61 137 -166l-66 -375h-123l61 348c11 58 -9 88 -71 88c-45 0 -97 -27 -139 -66z" />
    <glyph glyph-name="dotlessi" unicode="&#x131;" horiz-adv-x="272" 
d="M133 0h-123l94 531h123z" />
    <glyph glyph-name="iacute" unicode="&#xed;" horiz-adv-x="272" 
d="M201 587h-81l118 166h132zM133 0h-123l94 531h123z" />
    <glyph glyph-name="ibreve" unicode="&#x12d;" horiz-adv-x="272" 
d="M133 0h-123l94 531h123zM192 582c-117 0 -155 75 -149 177h68c1 -75 31 -95 85 -95c42 0 87 19 105 95h69c-16 -104 -82 -177 -178 -177z" />
    <glyph glyph-name="icircumflex" unicode="&#xee;" horiz-adv-x="272" 
d="M77 587h-71l156 166h85l97 -166h-72l-83 84zM133 0h-123l94 531h123z" />
    <glyph glyph-name="idieresis" unicode="&#xef;" horiz-adv-x="272" 
d="M326 584h-112l21 121h112zM134 584h-112l21 121h112zM133 0h-123l94 531h123z" />
    <glyph glyph-name="igrave" unicode="&#xec;" horiz-adv-x="272" 
d="M133 0h-123l94 531h123zM221 587h-81l-129 166h132z" />
    <glyph glyph-name="ij" unicode="&#x133;" horiz-adv-x="544" 
d="M243 624h-125l19 106h125zM132 0h-123l94 531h123zM516 624h-125l18 106h125zM249 -203c-42 0 -76 3 -95 6l15 86c11 -2 31 -4 48 -4c33 0 47 15 55 62l104 584h123l-108 -613c-14 -73 -49 -121 -142 -121z" />
    <glyph glyph-name="imacron" unicode="&#x12b;" horiz-adv-x="272" 
d="M133 0h-123l94 531h123zM329 584h-307l16 91h307z" />
    <glyph glyph-name="iogonek" unicode="&#x12f;" horiz-adv-x="272" 
d="M132 0h-58c-47 -31 -78 -66 -78 -99c0 -19 12 -34 47 -34c27 0 55 7 82 18l18 -39c-39 -22 -80 -33 -128 -33c-76 0 -109 30 -109 71c0 50 47 88 104 122l93 525h123zM243 624h-125l19 106h125z" />
    <glyph glyph-name="itilde" unicode="&#x129;" horiz-adv-x="272" 
d="M133 0h-123l94 531h123zM256 580c-63 0 -99 56 -138 56c-28 0 -44 -15 -50 -54h-71c11 98 55 139 121 139c64 0 101 -56 138 -56c27 0 44 15 51 54h71c-13 -97 -58 -139 -122 -139z" />
    <glyph glyph-name="jcircumflex" unicode="&#x135;" horiz-adv-x="272" 
d="M-23 -203c-42 0 -75 3 -95 6l15 86c12 -2 32 -4 48 -4c33 0 47 15 56 62l103 584h123l-108 -613c-13 -73 -49 -121 -142 -121zM77 587h-71l156 166h85l97 -166h-72l-83 84z" />
    <glyph glyph-name="kcommaaccent" unicode="&#x137;" horiz-adv-x="553" 
d="M119 -271l51 106h-49l22 120h123l-18 -105l-76 -121h-53zM127 0h-123l130 740h123l-76 -434l235 225h131l-207 -196l128 -335h-124l-98 255l-89 -83z" />
    <glyph glyph-name="kgreenlandic" unicode="&#x138;" horiz-adv-x="553" 
d="M98 531h123l-39 -221l234 221h132l-208 -195l128 -336h-123l-98 255l-89 -81l-30 -174h-123z" />
    <glyph glyph-name="lacute" unicode="&#x13a;" horiz-adv-x="272" 
d="M246 784h-81l118 166h132zM132 0h-123l130 740h123z" />
    <glyph glyph-name="lcaron" unicode="&#x13e;" horiz-adv-x="272" 
d="M296 582l49 103h-47l20 116h119l-18 -101l-73 -118h-50zM132 0h-123l130 740h123z" />
    <glyph glyph-name="lcommaaccent" unicode="&#x13c;" horiz-adv-x="272" 
d="M-20 -271l51 106h-49l22 120h123l-18 -105l-76 -121h-53zM132 0h-123l130 740h123z" />
    <glyph glyph-name="ldot" unicode="&#x140;" horiz-adv-x="392" 
d="M374 276h-122l19 110h122zM132 0h-123l130 740h123z" />
    <glyph glyph-name="nacute" unicode="&#x144;" horiz-adv-x="593" 
d="M330 587h-81l118 166h132zM127 0h-123l94 531h123l-13 -75c36 42 105 85 185 85c107 0 156 -61 137 -166l-66 -375h-123l61 348c11 58 -9 88 -71 88c-45 0 -97 -27 -139 -66z" />
    <glyph glyph-name="ncaron" unicode="&#x148;" horiz-adv-x="593" 
d="M377 590h-85l-97 166h72l82 -84l113 84h71zM127 0h-123l94 531h123l-13 -75c36 42 105 85 185 85c107 0 156 -61 137 -166l-66 -375h-123l61 348c11 58 -9 88 -71 88c-45 0 -97 -27 -139 -66z" />
    <glyph glyph-name="ncommaaccent" unicode="&#x146;" horiz-adv-x="593" 
d="M139 -271l51 106h-49l22 120h123l-18 -105l-76 -121h-53zM127 0h-123l94 531h123l-13 -75c36 42 105 85 185 85c107 0 156 -61 137 -166l-66 -375h-123l61 348c11 58 -9 88 -71 88c-45 0 -97 -27 -139 -66z" />
    <glyph glyph-name="ntilde" unicode="&#xf1;" horiz-adv-x="593" 
d="M127 0h-123l94 531h123l-13 -75c36 42 105 85 185 85c107 0 156 -61 137 -166l-66 -375h-123l61 348c11 58 -9 88 -71 88c-45 0 -97 -27 -139 -66zM416 580c-63 0 -99 56 -138 56c-28 0 -44 -15 -50 -54h-71c11 98 55 139 121 139c64 0 101 -56 138 -56c27 0 44 15 51 54
h71c-13 -97 -58 -139 -122 -139z" />
    <glyph glyph-name="eng" unicode="&#x14b;" horiz-adv-x="593" 
d="M4 0l94 531h123l-13 -75c36 42 105 85 185 85c107 0 157 -61 138 -166l-80 -457c-13 -73 -49 -121 -142 -121c-42 0 -75 3 -95 6l15 86c12 -2 32 -4 48 -4c33 0 47 15 55 62l71 401c10 58 -10 88 -72 88c-45 0 -97 -27 -139 -66l-65 -370h-123z" />
    <glyph glyph-name="oacute" unicode="&#xf3;" horiz-adv-x="586" 
d="M327 587h-81l118 166h132zM253 89c86 0 157 78 157 221c0 76 -34 129 -115 129c-87 0 -156 -81 -156 -222c0 -76 32 -128 114 -128zM243 -11c-125 0 -228 79 -228 230c0 232 157 322 291 322c125 0 228 -77 228 -229c0 -230 -156 -323 -291 -323z" />
    <glyph glyph-name="obreve" unicode="&#x14f;" horiz-adv-x="586" 
d="M253 89c86 0 157 78 157 221c0 76 -34 129 -115 129c-87 0 -156 -81 -156 -222c0 -76 32 -128 114 -128zM243 -11c-125 0 -228 79 -228 230c0 232 157 322 291 322c125 0 228 -77 228 -229c0 -230 -156 -323 -291 -323zM348 582c-117 0 -155 75 -149 177h68
c1 -75 31 -95 85 -95c42 0 87 19 105 95h69c-16 -104 -82 -177 -178 -177z" />
    <glyph glyph-name="ocircumflex" unicode="&#xf4;" horiz-adv-x="586" 
d="M234 587h-71l156 166h85l97 -166h-72l-83 84zM253 89c86 0 157 78 157 221c0 76 -34 129 -115 129c-87 0 -156 -81 -156 -222c0 -76 32 -128 114 -128zM243 -11c-125 0 -228 79 -228 230c0 232 157 322 291 322c125 0 228 -77 228 -229c0 -230 -156 -323 -291 -323z" />
    <glyph glyph-name="odieresis" unicode="&#xf6;" horiz-adv-x="586" 
d="M482 584h-112l21 121h112zM290 584h-112l21 121h112zM253 89c86 0 157 78 157 221c0 76 -34 129 -115 129c-87 0 -156 -81 -156 -222c0 -76 32 -128 114 -128zM243 -11c-125 0 -228 79 -228 230c0 232 157 322 291 322c125 0 228 -77 228 -229
c0 -230 -156 -323 -291 -323z" />
    <glyph glyph-name="ograve" unicode="&#xf2;" horiz-adv-x="586" 
d="M253 89c86 0 157 78 157 221c0 76 -34 129 -115 129c-87 0 -156 -81 -156 -222c0 -76 32 -128 114 -128zM243 -11c-125 0 -228 79 -228 230c0 232 157 322 291 322c125 0 228 -77 228 -229c0 -230 -156 -323 -291 -323zM387 587h-81l-129 166h132z" />
    <glyph glyph-name="ohungarumlaut" unicode="&#x151;" horiz-adv-x="586" 
d="M429 587h-82l129 166h134zM250 587h-82l124 166h134zM253 89c86 0 157 78 157 221c0 76 -34 129 -115 129c-87 0 -156 -81 -156 -222c0 -76 32 -128 114 -128zM243 -11c-125 0 -228 79 -228 230c0 232 157 322 291 322c125 0 228 -77 228 -229
c0 -230 -156 -323 -291 -323z" />
    <glyph glyph-name="omacron" unicode="&#x14d;" horiz-adv-x="586" 
d="M485 584h-307l16 91h307zM253 89c86 0 157 78 157 221c0 76 -34 129 -115 129c-87 0 -156 -81 -156 -222c0 -76 32 -128 114 -128zM243 -11c-125 0 -228 79 -228 230c0 232 157 322 291 322c125 0 228 -77 228 -229c0 -230 -156 -323 -291 -323z" />
    <glyph glyph-name="otilde" unicode="&#xf5;" horiz-adv-x="586" 
d="M253 89c86 0 157 78 157 221c0 76 -34 129 -115 129c-87 0 -156 -81 -156 -222c0 -76 32 -128 114 -128zM243 -11c-125 0 -228 79 -228 230c0 232 157 322 291 322c125 0 228 -77 228 -229c0 -230 -156 -323 -291 -323zM413 580c-63 0 -99 56 -138 56
c-28 0 -44 -15 -50 -54h-71c11 98 55 139 121 139c64 0 101 -56 138 -56c27 0 44 15 51 54h71c-13 -97 -58 -139 -122 -139z" />
    <glyph glyph-name="racute" unicode="&#x155;" horiz-adv-x="407" 
d="M238 587h-81l118 166h132zM127 0h-123l94 531h123l-15 -87h1c41 50 105 97 204 97h5l-20 -110c-13 1 -27 2 -34 2c-63 0 -131 -40 -176 -97z" />
    <glyph glyph-name="rcaron" unicode="&#x159;" horiz-adv-x="407" 
d="M284 590h-85l-97 166h72l82 -84l113 84h71zM127 0h-123l94 531h123l-15 -87h1c41 50 105 97 204 97h5l-20 -110c-13 1 -27 2 -34 2c-63 0 -131 -40 -176 -97z" />
    <glyph glyph-name="rcommaaccent" unicode="&#x157;" horiz-adv-x="407" 
d="M-23 -271l51 106h-49l22 120h123l-18 -105l-76 -121h-53zM127 0h-123l94 531h123l-15 -87h1c41 50 105 97 204 97h5l-20 -110c-13 1 -27 2 -34 2c-63 0 -131 -40 -176 -97z" />
    <glyph glyph-name="sacute" unicode="&#x15b;" horiz-adv-x="513" 
d="M290 587h-81l118 166h132zM219 -10c-121 0 -198 41 -241 95l79 68c36 -41 93 -68 166 -69c57 -1 101 13 101 66c0 94 -269 55 -269 220c0 116 94 171 196 171c116 0 190 -37 230 -82l-74 -76c-37 38 -89 62 -151 62c-52 0 -81 -19 -81 -59c0 -96 269 -55 269 -217
c0 -142 -122 -179 -225 -179z" />
    <glyph glyph-name="scaron" unicode="&#x161;" horiz-adv-x="513" 
d="M337 590h-85l-97 166h72l82 -84l113 84h71zM219 -10c-121 0 -198 41 -241 95l79 68c36 -41 93 -68 166 -69c57 -1 101 13 101 66c0 94 -269 55 -269 220c0 116 94 171 196 171c116 0 190 -37 230 -82l-74 -76c-37 38 -89 62 -151 62c-52 0 -81 -19 -81 -59
c0 -96 269 -55 269 -217c0 -142 -122 -179 -225 -179z" />
    <glyph glyph-name="scedilla" unicode="&#x15f;" horiz-adv-x="513" 
d="M180 -199c-69 0 -109 14 -140 37l32 40c26 -20 56 -30 95 -30c37 0 60 13 60 43c0 16 -12 27 -32 27c-14 0 -30 -6 -45 -18l-32 17l38 77c-86 11 -143 47 -178 91l79 68c36 -41 93 -68 166 -69c57 -1 101 13 101 66c0 94 -269 55 -269 220c0 116 94 171 196 171
c116 0 190 -37 230 -82l-74 -76c-37 38 -89 62 -151 62c-52 0 -81 -19 -81 -59c0 -96 269 -55 269 -217c0 -142 -122 -179 -225 -179h-9l-17 -41c13 9 31 15 53 15c38 0 66 -25 66 -63c0 -76 -73 -100 -132 -100z" />
    <glyph glyph-name="scircumflex" unicode="&#x15d;" horiz-adv-x="513" 
d="M187 587h-71l156 166h85l97 -166h-72l-83 84zM219 -10c-121 0 -198 41 -241 95l79 68c36 -41 93 -68 166 -69c57 -1 101 13 101 66c0 94 -269 55 -269 220c0 116 94 171 196 171c116 0 190 -37 230 -82l-74 -76c-37 38 -89 62 -151 62c-52 0 -81 -19 -81 -59
c0 -96 269 -55 269 -217c0 -142 -122 -179 -225 -179z" />
    <glyph glyph-name="scommaaccent" unicode="&#x219;" horiz-adv-x="513" 
d="M99 -271l51 106h-49l22 120h123l-18 -105l-76 -121h-53zM219 -10c-121 0 -198 41 -241 95l79 68c36 -41 93 -68 166 -69c57 -1 101 13 101 66c0 94 -269 55 -269 220c0 116 94 171 196 171c116 0 190 -37 230 -82l-74 -76c-37 38 -89 62 -151 62c-52 0 -81 -19 -81 -59
c0 -96 269 -55 269 -217c0 -142 -122 -179 -225 -179z" />
    <glyph glyph-name="tbar" unicode="&#x167;" horiz-adv-x="396" 
d="M-5 233l16 83h88l20 117h-89l19 98h89l32 185h123l-32 -185h132l-19 -98h-132l-20 -117h133l-15 -83h-133l-10 -60c-11 -62 -6 -83 60 -83c16 0 37 3 51 6l-9 -95c-14 -4 -61 -8 -89 -8c-140 0 -157 61 -140 157l14 83h-89z" />
    <glyph glyph-name="tcaron" unicode="&#x165;" horiz-adv-x="396" 
d="M347 606l49 102h-47l20 116h119l-18 -101l-73 -117h-50zM209 -7c-139 0 -156 61 -139 157l50 283h-90l18 98h90l32 185h123l-32 -185h132l-18 -98h-132l-47 -265c-10 -59 -2 -78 62 -78c16 0 37 3 50 6l-9 -95c-14 -4 -62 -8 -90 -8z" />
    <glyph glyph-name="tcommaaccent" unicode="&#x163;" horiz-adv-x="396" 
d="M35 -271l51 106h-49l22 120h123l-18 -105l-76 -121h-53zM209 -7c-139 0 -156 61 -139 157l50 283h-90l18 98h90l32 185h123l-32 -185h132l-18 -98h-132l-47 -265c-10 -59 -2 -78 62 -78c16 0 37 3 50 6l-9 -95c-14 -4 -62 -8 -90 -8z" />
    <glyph glyph-name="tcommaaccent" unicode="&#x21b;" horiz-adv-x="396" 
d="M35 -271l51 106h-49l22 120h123l-18 -105l-76 -121h-53zM209 -7c-139 0 -156 61 -139 157l50 283h-90l18 98h90l32 185h123l-32 -185h132l-18 -98h-132l-47 -265c-10 -59 -2 -78 62 -78c16 0 37 3 50 6l-9 -95c-14 -4 -62 -8 -90 -8z" />
    <glyph glyph-name="uacute" unicode="&#xfa;" horiz-adv-x="592" 
d="M330 587h-81l118 166h132zM164 -11c-106 0 -155 62 -137 167l66 375h123l-62 -351c-10 -58 10 -88 71 -88c46 0 96 27 138 66l66 373h123l-94 -531h-123l13 75c-36 -42 -104 -86 -184 -86z" />
    <glyph glyph-name="ubreve" unicode="&#x16d;" horiz-adv-x="592" 
d="M164 -11c-106 0 -155 62 -137 167l66 375h123l-62 -351c-10 -58 10 -88 71 -88c46 0 96 27 138 66l66 373h123l-94 -531h-123l13 75c-36 -42 -104 -86 -184 -86zM342 582c-117 0 -155 75 -149 177h68c1 -75 31 -95 85 -95c42 0 87 19 105 95h69
c-16 -104 -82 -177 -178 -177z" />
    <glyph glyph-name="ucircumflex" unicode="&#xfb;" horiz-adv-x="592" 
d="M236 587h-71l156 166h85l97 -166h-72l-83 84zM164 -11c-106 0 -155 62 -137 167l66 375h123l-62 -351c-10 -58 10 -88 71 -88c46 0 96 27 138 66l66 373h123l-94 -531h-123l13 75c-36 -42 -104 -86 -184 -86z" />
    <glyph glyph-name="udieresis" unicode="&#xfc;" horiz-adv-x="592" 
d="M485 584h-112l21 121h112zM293 584h-112l21 121h112zM164 -11c-106 0 -155 62 -137 167l66 375h123l-62 -351c-10 -58 10 -88 71 -88c46 0 96 27 138 66l66 373h123l-94 -531h-123l13 75c-36 -42 -104 -86 -184 -86z" />
    <glyph glyph-name="ugrave" unicode="&#xf9;" horiz-adv-x="592" 
d="M164 -11c-106 0 -155 62 -137 167l66 375h123l-62 -351c-10 -58 10 -88 71 -88c46 0 96 27 138 66l66 373h123l-94 -531h-123l13 75c-36 -42 -104 -86 -184 -86zM389 587h-81l-129 166h132z" />
    <glyph glyph-name="uhungarumlaut" unicode="&#x171;" horiz-adv-x="592" 
d="M164 -11c-106 0 -155 62 -137 167l66 375h123l-62 -351c-10 -58 10 -88 71 -88c46 0 96 27 138 66l66 373h123l-94 -531h-123l13 75c-36 -42 -104 -86 -184 -86zM441 587h-82l129 166h134zM262 587h-82l124 166h134z" />
    <glyph glyph-name="umacron" unicode="&#x16b;" horiz-adv-x="592" 
d="M164 -11c-106 0 -155 62 -137 167l66 375h123l-62 -351c-10 -58 10 -88 71 -88c46 0 96 27 138 66l66 373h123l-94 -531h-123l13 75c-36 -42 -104 -86 -184 -86zM488 584h-307l16 91h307z" />
    <glyph glyph-name="uogonek" unicode="&#x173;" horiz-adv-x="592" 
d="M164 -11c-106 0 -155 62 -137 167l66 375h123l-62 -351c-10 -58 10 -88 71 -88c46 0 96 27 138 66l66 373h123l-94 -531h-56c-47 -31 -77 -66 -77 -99c0 -19 12 -34 47 -34c27 0 54 7 82 18l18 -39c-40 -22 -80 -33 -128 -33c-76 0 -109 30 -109 71c0 50 45 87 101 120
l12 71c-36 -42 -104 -86 -184 -86z" />
    <glyph glyph-name="uring" unicode="&#x16f;" horiz-adv-x="592" 
d="M345 630c28 0 54 22 54 59c0 24 -15 43 -42 43c-28 0 -53 -23 -53 -59c0 -24 14 -43 41 -43zM340 579c-57 0 -90 42 -90 92c0 69 56 111 113 111s90 -40 90 -89c0 -71 -56 -114 -113 -114zM164 -11c-106 0 -155 62 -137 167l66 375h123l-62 -351c-10 -58 10 -88 71 -88
c46 0 96 27 138 66l66 373h123l-94 -531h-123l13 75c-36 -42 -104 -86 -184 -86z" />
    <glyph glyph-name="utilde" unicode="&#x169;" horiz-adv-x="592" 
d="M164 -11c-106 0 -155 62 -137 167l66 375h123l-62 -351c-10 -58 10 -88 71 -88c46 0 96 27 138 66l66 373h123l-94 -531h-123l13 75c-36 -42 -104 -86 -184 -86zM413 580c-63 0 -99 56 -138 56c-28 0 -44 -15 -50 -54h-71c11 98 55 139 121 139c64 0 101 -56 138 -56
c27 0 44 15 51 54h71c-13 -97 -58 -139 -122 -139z" />
    <glyph glyph-name="wacute" unicode="&#x1e83;" horiz-adv-x="754" 
d="M214 0h-113l-59 531h123l16 -220c3 -55 7 -107 9 -169h2c29 71 45 110 72 171l95 218h100l19 -222c5 -59 9 -99 12 -167h2l69 165l97 224h112l-247 -531h-114l-32 370h-2zM453 587h-81l118 166h132z" />
    <glyph glyph-name="wcircumflex" unicode="&#x175;" horiz-adv-x="754" 
d="M214 0h-113l-59 531h123l16 -220c3 -55 7 -107 9 -169h2c29 71 45 110 72 171l95 218h100l19 -222c5 -59 9 -99 12 -167h2l69 165l97 224h112l-247 -531h-114l-32 370h-2zM317 587h-71l156 166h85l97 -166h-72l-83 84z" />
    <glyph glyph-name="wdieresis" unicode="&#x1e85;" horiz-adv-x="754" 
d="M214 0h-113l-59 531h123l16 -220c3 -55 7 -107 9 -169h2c29 71 45 110 72 171l95 218h100l19 -222c5 -59 9 -99 12 -167h2l69 165l97 224h112l-247 -531h-114l-32 370h-2zM566 584h-112l21 121h112zM374 584h-112l21 121h112z" />
    <glyph glyph-name="wgrave" unicode="&#x1e81;" horiz-adv-x="754" 
d="M214 0h-113l-59 531h123l16 -220c3 -55 7 -107 9 -169h2c29 71 45 110 72 171l95 218h100l19 -222c5 -59 9 -99 12 -167h2l69 165l97 224h112l-247 -531h-114l-32 370h-2zM451 587h-81l-129 166h132z" />
    <glyph glyph-name="yacute" unicode="&#xfd;" horiz-adv-x="537" 
d="M44 -206c-59 0 -104 12 -130 23l41 100c17 -8 57 -20 84 -20c39 0 62 20 81 56l24 44l-103 534h127l63 -387h2l200 387h123l-338 -611c-46 -84 -92 -126 -174 -126zM302 587h-81l118 166h132z" />
    <glyph glyph-name="ycircumflex" unicode="&#x177;" horiz-adv-x="537" 
d="M44 -206c-59 0 -104 12 -130 23l41 100c17 -8 57 -20 84 -20c39 0 62 20 81 56l24 44l-103 534h127l63 -387h2l200 387h123l-338 -611c-46 -84 -92 -126 -174 -126zM209 587h-71l156 166h85l97 -166h-72l-83 84z" />
    <glyph glyph-name="ydieresis" unicode="&#xff;" horiz-adv-x="537" 
d="M44 -206c-59 0 -104 12 -130 23l41 100c17 -8 57 -20 84 -20c39 0 62 20 81 56l24 44l-103 534h127l63 -387h2l200 387h123l-338 -611c-46 -84 -92 -126 -174 -126zM457 584h-112l21 121h112zM265 584h-112l21 121h112z" />
    <glyph glyph-name="ygrave" unicode="&#x1ef3;" horiz-adv-x="537" 
d="M44 -206c-59 0 -104 12 -130 23l41 100c17 -8 57 -20 84 -20c39 0 62 20 81 56l24 44l-103 534h127l63 -387h2l200 387h123l-338 -611c-46 -84 -92 -126 -174 -126zM352 587h-81l-129 166h132z" />
    <glyph glyph-name="zacute" unicode="&#x17a;" horiz-adv-x="510" 
d="M289 587h-81l118 166h132zM413 0h-444l12 71l334 362h-248l18 98h405l-13 -74l-335 -362h288z" />
    <glyph glyph-name="zcaron" unicode="&#x17e;" horiz-adv-x="510" 
d="M336 590h-85l-97 166h72l82 -84l113 84h71zM413 0h-444l12 71l334 362h-248l18 98h405l-13 -74l-335 -362h288z" />
    <glyph glyph-name="zdotaccent" unicode="&#x17c;" horiz-adv-x="510" 
d="M413 0h-444l12 71l334 362h-248l18 98h405l-13 -74l-335 -362h288zM361 595h-132l20 111h132z" />
    <glyph glyph-name="schwa" unicode="&#x259;" horiz-adv-x="555" 
d="M278 541c130 0 225 -77 225 -226c0 -256 -188 -326 -285 -326c-159 0 -226 109 -195 287l5 29h355v12c0 104 -67 126 -124 126c-72 0 -116 -24 -155 -69l-76 64c52 61 130 103 250 103zM370 213h-246c-8 -75 17 -124 103 -124c62 0 118 40 143 124z" />
    <glyph glyph-name="at" unicode="@" horiz-adv-x="868" 
d="M386 238c38 0 73 17 106 49l28 177c-27 31 -54 44 -94 44c-74 0 -118 -86 -118 -179c0 -62 25 -91 78 -91zM429 -14c-231 0 -383 159 -383 383s161 385 390 385s388 -155 388 -374c0 -137 -71 -226 -185 -226c-73 0 -113 26 -128 75c-41 -41 -90 -66 -160 -66
c-83 0 -140 53 -140 156c0 159 87 269 199 269c61 0 95 -23 121 -52l7 44h96l-47 -297c-7 -45 14 -73 65 -73c64 0 113 57 113 167c0 189 -134 320 -329 320c-196 0 -328 -136 -328 -328c0 -193 129 -330 324 -330c77 0 138 17 195 52l27 -43c-60 -39 -139 -62 -225 -62z
" />
    <glyph glyph-name="registered" unicode="&#xae;" horiz-adv-x="536" 
d="M190 402v254h94c60 0 95 -26 95 -78c0 -41 -19 -62 -49 -72l55 -104h-54l-51 97h-40v-97h-50zM278 292c-130 0 -230 101 -230 232c0 130 102 232 232 232c129 0 230 -101 230 -231c0 -131 -102 -233 -232 -233zM280 330c107 0 189 84 189 194c0 109 -83 194 -191 194
c-107 0 -189 -84 -189 -193c0 -110 82 -195 191 -195zM240 538h41c31 0 49 10 49 37c0 25 -18 36 -49 36h-41v-73z" />
    <glyph glyph-name="registered.salt_big" horiz-adv-x="865" 
d="M432 -14c-215 0 -381 168 -381 383s168 385 383 385s382 -168 382 -383s-169 -385 -384 -385zM434 44c182 0 319 142 319 325c0 184 -139 327 -321 327c-181 0 -318 -141 -318 -325c0 -183 138 -327 320 -327zM366 168h-79v420h155c99 0 156 -43 156 -128
c0 -67 -34 -102 -84 -118l90 -174h-84l-84 163h-70v-163zM366 517v-126h71c54 0 84 18 84 65c0 43 -30 61 -84 61h-71z" />
    <glyph glyph-name="copyright" unicode="&#xa9;" horiz-adv-x="865" 
d="M434 44c182 0 319 142 319 325c0 184 -139 327 -321 327c-181 0 -318 -141 -318 -325c0 -183 138 -327 320 -327zM432 -14c-215 0 -381 168 -381 383s168 385 383 385s382 -168 382 -383s-169 -385 -384 -385zM430 156c-106 0 -176 82 -176 218c0 133 69 217 178 217
c91 0 143 -52 161 -133l-71 -18c-15 53 -38 83 -89 83c-62 0 -100 -59 -100 -148c0 -94 37 -150 100 -150c50 0 78 30 92 90c55 -15 70 -19 73 -19c-23 -86 -72 -140 -168 -140z" />
    <glyph glyph-name="copyrightsound" unicode="&#x2117;" horiz-adv-x="865" 
d="M432 -14c-215 0 -381 168 -381 383s168 385 383 385s382 -168 382 -383s-169 -385 -384 -385zM434 44c182 0 319 142 319 325c0 184 -139 327 -321 327c-181 0 -318 -141 -318 -325c0 -183 138 -327 320 -327zM378 163h-79v420h155c97 0 156 -40 156 -127
c0 -90 -65 -130 -162 -130h-70v-163zM378 515v-125h73c52 0 81 18 81 63c0 43 -29 62 -82 62h-72z" />
    <glyph glyph-name="trademark" unicode="&#x2122;" horiz-adv-x="905" 
d="M265 317h-86v351h-123v72h331v-72h-122v-351zM530 317h-78v423h116l98 -310l99 310h115v-423h-84v299l-97 -299h-72l-97 298v-298z" />
    <glyph glyph-name="A.sc" horiz-adv-x="597" 
d="M-42 0l324 594h115l113 -594h-120l-21 130h-227l-68 -130h-116zM191 223h162l-39 227h-2z" />
    <glyph glyph-name="B.sc" horiz-adv-x="592" 
d="M8 0l104 592h232c110 0 201 -31 201 -127c0 -91 -55 -149 -130 -156v-1c64 -14 98 -53 98 -124c0 -139 -114 -184 -242 -184h-263zM139 88h122c89 0 135 27 135 99c0 50 -38 70 -114 70h-113zM185 348h110c84 0 130 17 130 86c0 47 -30 69 -99 69h-113z" />
    <glyph glyph-name="C.sc" horiz-adv-x="611" 
d="M267 -11c-150 0 -244 94 -244 251c0 227 144 363 323 363c162 0 218 -90 227 -198l-115 -18c-9 73 -34 120 -116 120c-130 0 -197 -122 -197 -265c0 -96 44 -158 130 -158c74 0 123 44 160 129l103 -38c-51 -118 -135 -186 -271 -186z" />
    <glyph glyph-name="D.sc" horiz-adv-x="620" 
d="M8 0l104 592h176c171 0 286 -79 286 -243c0 -250 -155 -349 -366 -349h-200zM145 94h69c170 0 237 88 237 251c0 98 -52 151 -166 151h-68z" />
    <glyph glyph-name="E.sc" horiz-adv-x="531" 
d="M8 0l104 592h407l-16 -98h-286l-26 -140h207l-16 -96h-207l-29 -162h301l-16 -96h-423z" />
    <glyph glyph-name="F.sc" horiz-adv-x="493" 
d="M8 0l104 592h396l-16 -98h-275l-28 -156h196l-16 -94h-196l-44 -244h-121z" />
    <glyph glyph-name="G.sc" horiz-adv-x="637" 
d="M243 -10c-154 0 -219 110 -219 250c0 219 130 363 319 363c135 0 214 -66 226 -193l-107 -23c-12 85 -51 120 -125 120c-114 0 -192 -97 -192 -263c0 -104 45 -162 134 -162c76 0 137 51 156 129h-122l15 89h232l-53 -300h-94l14 84h-1c-32 -50 -94 -94 -183 -94z" />
    <glyph glyph-name="H.sc" horiz-adv-x="644" 
d="M8 0l104 592h121l-40 -231h257l40 231h122l-104 -592h-122l45 257h-258l-44 -257h-121z" />
    <glyph glyph-name="I.sc" horiz-adv-x="278" 
d="M15 0l104 592h121l-104 -592h-121z" />
    <glyph glyph-name="J.sc" horiz-adv-x="448" 
d="M135 -11c-81 0 -133 24 -172 56l63 83c31 -27 74 -44 108 -44c53 0 84 13 98 91l73 417h121l-76 -432c-20 -115 -81 -171 -215 -171z" />
    <glyph glyph-name="K.sc" horiz-adv-x="599" 
d="M8 0l104 592h120l-46 -258l84 79l190 179h130l-250 -230l171 -362h-126l-132 278l-91 -81l-34 -197h-120z" />
    <glyph glyph-name="L.sc" horiz-adv-x="493" 
d="M404 0h-396l104 592h121l-87 -496h274z" />
    <glyph glyph-name="M.sc" horiz-adv-x="757" 
d="M113 0h-105l104 592h156l70 -455h2l223 455h163l-104 -592h-115l80 452h-1c-15 -37 -31 -72 -53 -117l-170 -335h-106l-51 337c-5 58 -8 82 -12 117h-1z" />
    <glyph glyph-name="N.sc" horiz-adv-x="644" 
d="M8 0l104 592h123l202 -405h1l70 405h110l-104 -592h-110l-210 422h-1l-75 -422h-110z" />
    <glyph glyph-name="O.sc" horiz-adv-x="653" 
d="M273 -11c-142 0 -249 98 -249 259c0 231 163 355 331 355c143 0 250 -97 250 -259c0 -230 -160 -355 -332 -355zM280 87c125 0 204 109 204 256c0 98 -48 161 -134 161c-125 0 -204 -109 -204 -256c0 -98 48 -161 134 -161z" />
    <glyph glyph-name="P.sc" horiz-adv-x="566" 
d="M127 0h-119l104 592h210c125 0 224 -41 224 -160c0 -183 -136 -213 -269 -213h-112zM215 498l-34 -192h100c97 0 147 29 147 113c0 52 -37 79 -118 79h-95z" />
    <glyph glyph-name="Q.sc" horiz-adv-x="653" 
d="M402 -161c-164 0 -205 61 -198 163c-107 25 -180 112 -180 246c0 231 163 355 331 355c143 0 250 -97 250 -259c0 -212 -136 -330 -291 -347c-1 -55 27 -67 121 -67h43l-16 -91h-60zM280 85c125 0 204 111 204 258c0 98 -48 160 -134 160c-125 0 -204 -108 -204 -255
c0 -98 48 -163 134 -163z" />
    <glyph glyph-name="R.sc" horiz-adv-x="590" 
d="M359 0l-93 233h-98l-41 -233h-119l104 592h222c134 0 212 -53 212 -158c0 -100 -46 -169 -165 -192l98 -242h-120zM184 317h99c91 0 142 21 142 105c0 54 -38 76 -111 76h-99z" />
    <glyph glyph-name="S.sc" horiz-adv-x="578" 
d="M246 -13c-126 0 -211 49 -244 150l98 47c22 -74 77 -103 156 -103c78 0 123 20 123 83c0 111 -305 73 -305 256c0 124 100 183 235 183c136 0 200 -58 227 -124l-94 -54c-19 51 -72 84 -141 84c-67 0 -107 -20 -107 -75c0 -117 305 -72 305 -256
c0 -138 -118 -191 -253 -191z" />
    <glyph glyph-name="T.sc" horiz-adv-x="543" 
d="M268 0h-121l87 494h-184l16 98h491l-16 -98h-185z" />
    <glyph glyph-name="U.sc" horiz-adv-x="611" 
d="M249 -10c-186 0 -233 103 -208 243l62 359h121l-64 -367c-16 -87 2 -139 99 -139c95 0 131 51 147 139l64 367h119l-66 -380c-25 -140 -106 -222 -274 -222z" />
    <glyph glyph-name="V.sc" horiz-adv-x="584" 
d="M285 -2h-115l-107 594h120l69 -444h2l230 444h117z" />
    <glyph glyph-name="W.sc" horiz-adv-x="801" 
d="M235 0h-104l-65 592h120l24 -287c4 -47 7 -86 9 -134h2c16 46 33 87 51 133l115 288h114l16 -289c3 -48 5 -84 7 -133h1l53 131l124 291h113l-269 -592h-103l-26 431h-2z" />
    <glyph glyph-name="X.sc" horiz-adv-x="584" 
d="M-43 0l261 318l-136 274h123l99 -199l157 199h119l-234 -286l151 -306h-120l-115 227l-184 -227h-121z" />
    <glyph glyph-name="Y.sc" horiz-adv-x="573" 
d="M161 0l44 253l-150 339h126l104 -246l188 246h124l-270 -339l-44 -253h-122z" />
    <glyph glyph-name="Z.sc" horiz-adv-x="553" 
d="M449 0h-481l14 83l402 411h-306l17 98h458l-14 -85l-397 -411h323z" />
    <glyph glyph-name="ampersand.sc" horiz-adv-x="633" 
d="M198 -11c-153 0 -217 62 -216 150c0 108 84 164 176 199c-9 34 -12 66 -12 96c0 94 54 173 183 173c95 0 133 -52 134 -115c0 -104 -79 -153 -179 -191c8 -15 18 -32 30 -49c26 -38 52 -70 78 -96c36 39 63 88 80 146h96c-26 -78 -61 -146 -107 -198
c31 -15 63 -23 98 -21l-16 -91c-64 -5 -118 8 -168 41c-50 -29 -108 -44 -177 -44zM220 206c-15 22 -27 43 -36 63c-55 -29 -90 -60 -90 -114c1 -50 42 -82 111 -82c35 0 69 7 100 21c-28 30 -56 67 -85 112zM250 442c0 -24 1 -49 9 -78c68 29 107 60 107 117
c0 24 -9 47 -46 47c-46 0 -70 -33 -70 -86z" />
    <glyph glyph-name="AE.sc" horiz-adv-x="900" 
d="M-53 0l464 592h476l-16 -98h-286l-25 -140h206l-16 -96h-206l-30 -162h302l-17 -96h-419l30 171h-201l-132 -171h-130zM274 255h151l44 251h-1z" />
    <glyph glyph-name="OE.sc" horiz-adv-x="947" 
d="M441 0l9 52c-50 -40 -113 -63 -187 -63c-132 0 -239 98 -239 259c0 231 163 355 331 355c82 0 141 -30 177 -86l13 75h390l-16 -98h-286l-26 -142h207l-16 -92h-207l-29 -164h301l-16 -96h-406zM280 86c125 0 204 110 204 257c0 98 -48 161 -134 161
c-125 0 -204 -109 -204 -256c0 -98 48 -162 134 -162z" />
    <glyph glyph-name="Eth.sc" horiz-adv-x="620" 
d="M8 0l47 265h-62l14 76h61l44 251h176c171 0 286 -79 286 -243c0 -250 -155 -349 -366 -349h-200zM145 94h69c170 0 237 88 237 251c0 98 -52 151 -166 151h-68l-28 -155h112l-14 -76h-111z" />
    <glyph glyph-name="Thorn.sc" horiz-adv-x="566" 
d="M8 0l104 592h119l-17 -96h92c125 0 224 -44 224 -158c0 -181 -131 -213 -279 -213h-102l-23 -125h-118zM163 210h101c97 0 147 31 147 112c0 51 -35 82 -116 82h-98z" />
    <glyph glyph-name="Lslash.sc" horiz-adv-x="493" 
d="M8 0l45 257l-64 -16l13 75l65 16l45 260h121l-39 -227l116 29l-13 -75l-117 -29l-34 -196h274l-16 -94h-396z" />
    <glyph glyph-name="Oslash.sc" horiz-adv-x="653" 
d="M57 -40l-49 42l69 77c-34 43 -53 100 -53 169c0 231 163 355 331 355c57 0 109 -16 150 -45l67 75l49 -42l-69 -78c33 -43 53 -100 53 -169c0 -230 -160 -355 -332 -355c-57 0 -109 16 -150 45zM280 81c125 0 206 110 206 262c0 32 -5 61 -14 85l-282 -315
c23 -21 52 -32 90 -32zM143 248c0 -32 5 -60 14 -84l281 314c-22 20 -51 31 -88 31c-125 0 -207 -108 -207 -261z" />
    <glyph glyph-name="Aacute.sc" horiz-adv-x="597" 
d="M380 642h-81l118 166h132zM-42 0l324 594h115l113 -594h-120l-21 130h-227l-68 -130h-116zM191 223h162l-39 227h-2z" />
    <glyph glyph-name="Abreve.sc" horiz-adv-x="597" 
d="M-42 0l324 594h115l113 -594h-120l-21 130h-227l-68 -130h-116zM191 223h162l-39 227h-2zM363 637c-117 0 -155 75 -149 177h68c1 -75 31 -95 85 -95c42 0 87 19 105 95h69c-16 -104 -82 -177 -178 -177z" />
    <glyph glyph-name="Acircumflex.sc" horiz-adv-x="597" 
d="M249 642h-71l156 166h85l97 -166h-72l-83 84zM-42 0l324 594h115l113 -594h-120l-21 130h-227l-68 -130h-116zM191 223h162l-39 227h-2z" />
    <glyph glyph-name="Adieresis.sc" horiz-adv-x="597" 
d="M497 639h-112l21 121h112zM305 639h-112l21 121h112zM-42 0l324 594h115l113 -594h-120l-21 130h-227l-68 -130h-116zM191 223h162l-39 227h-2z" />
    <glyph glyph-name="Agrave.sc" horiz-adv-x="597" 
d="M-42 0l324 594h115l113 -594h-120l-21 130h-227l-68 -130h-116zM191 223h162l-39 227h-2zM387 642h-81l-129 166h132z" />
    <glyph glyph-name="Amacron.sc" horiz-adv-x="597" 
d="M-42 0l324 594h115l113 -594h-120l-21 130h-227l-68 -130h-116zM191 223h162l-39 227h-2zM500 639h-307l16 91h307z" />
    <glyph glyph-name="Aogonek.sc" horiz-adv-x="597" 
d="M-42 0l324 594h115l113 -594h-52c-47 -31 -77 -66 -77 -99c0 -19 11 -34 46 -34c27 0 55 7 82 18l18 -39c-39 -22 -80 -33 -128 -33c-75 0 -108 30 -108 71c0 49 44 86 98 119l-20 127h-227l-68 -130h-116zM191 223h162l-39 227h-2z" />
    <glyph glyph-name="Aring.sc" horiz-adv-x="597" 
d="M-42 0l309 567c-16 17 -24 39 -24 65c0 70 56 112 113 112s90 -41 90 -90c0 -40 -17 -70 -43 -90l107 -564h-120l-24 143h-217l-75 -143h-116zM312 450l-120 -227h160l-38 227h-2zM338 591c28 0 54 22 54 60c0 23 -15 42 -42 42c-28 0 -53 -22 -53 -58
c0 -25 14 -44 41 -44z" />
    <glyph glyph-name="Atilde.sc" horiz-adv-x="597" 
d="M-42 0l324 594h115l113 -594h-120l-21 130h-227l-68 -130h-116zM191 223h162l-39 227h-2zM428 635c-63 0 -99 56 -138 56c-28 0 -44 -15 -50 -54h-71c11 98 55 139 121 139c64 0 101 -56 138 -56c27 0 44 15 51 54h71c-13 -97 -58 -139 -122 -139z" />
    <glyph glyph-name="Cacute.sc" horiz-adv-x="611" 
d="M349 642h-81l118 166h132zM267 -11c-150 0 -244 94 -244 251c0 227 144 363 323 363c162 0 218 -90 227 -198l-115 -18c-9 73 -34 120 -116 120c-130 0 -197 -122 -197 -265c0 -96 44 -158 130 -158c74 0 123 44 160 129l103 -38c-51 -118 -135 -186 -271 -186z" />
    <glyph glyph-name="Ccaron.sc" horiz-adv-x="611" 
d="M396 645h-85l-97 166h72l82 -84l113 84h71zM267 -11c-150 0 -244 94 -244 251c0 227 144 363 323 363c162 0 218 -90 227 -198l-115 -18c-9 73 -34 120 -116 120c-130 0 -197 -122 -197 -265c0 -96 44 -158 130 -158c74 0 123 44 160 129l103 -38
c-51 -118 -135 -186 -271 -186z" />
    <glyph glyph-name="Ccedilla.sc" horiz-adv-x="611" 
d="M229 -199c-69 0 -109 14 -140 37l32 40c26 -20 56 -30 95 -30c37 0 60 13 60 43c0 16 -12 27 -32 27c-14 0 -30 -6 -45 -18l-32 17l38 78c-113 22 -182 111 -182 245c0 227 144 363 323 363c162 0 218 -90 227 -198l-115 -18c-9 73 -34 120 -116 120
c-130 0 -197 -122 -197 -265c0 -96 44 -158 130 -158c74 0 123 44 160 129l103 -38c-51 -118 -135 -186 -271 -186h-8l-17 -40c13 9 31 15 53 15c38 0 66 -25 66 -63c0 -76 -73 -100 -132 -100z" />
    <glyph glyph-name="Ccircumflex.sc" horiz-adv-x="611" 
d="M270 642h-71l156 166h85l97 -166h-72l-83 84zM267 -11c-150 0 -244 94 -244 251c0 227 144 363 323 363c162 0 218 -90 227 -198l-115 -18c-9 73 -34 120 -116 120c-130 0 -197 -122 -197 -265c0 -96 44 -158 130 -158c74 0 123 44 160 129l103 -38
c-51 -118 -135 -186 -271 -186z" />
    <glyph glyph-name="Cdotaccent.sc" horiz-adv-x="611" 
d="M267 -11c-150 0 -244 94 -244 251c0 227 144 363 323 363c162 0 218 -90 227 -198l-115 -18c-9 73 -34 120 -116 120c-130 0 -197 -122 -197 -265c0 -96 44 -158 130 -158c74 0 123 44 160 129l103 -38c-51 -118 -135 -186 -271 -186zM424 651h-132l20 111h132z" />
    <glyph glyph-name="Dcaron.sc" horiz-adv-x="620" 
d="M8 0l104 592h176c171 0 286 -79 286 -243c0 -250 -155 -349 -366 -349h-200zM145 94h69c170 0 237 88 237 251c0 98 -52 151 -166 151h-68zM401 645h-85l-97 166h72l82 -84l113 84h71z" />
    <glyph glyph-name="Dcroat.sc" horiz-adv-x="620" 
d="M8 0l47 265h-62l14 76h61l44 251h176c171 0 286 -79 286 -243c0 -250 -155 -349 -366 -349h-200zM145 94h69c170 0 237 88 237 251c0 98 -52 151 -166 151h-68l-28 -155h112l-14 -76h-111z" />
    <glyph glyph-name="Eacute.sc" horiz-adv-x="531" 
d="M314 642h-81l118 166h132zM8 0l104 592h407l-16 -98h-286l-26 -140h207l-16 -96h-207l-29 -162h301l-16 -96h-423z" />
    <glyph glyph-name="Ebreve.sc" horiz-adv-x="531" 
d="M8 0l104 592h407l-16 -98h-286l-26 -140h207l-16 -96h-207l-29 -162h301l-16 -96h-423zM324 638c-117 0 -155 75 -149 177h68c1 -75 31 -95 85 -95c42 0 87 19 105 95h69c-16 -104 -82 -177 -178 -177z" />
    <glyph glyph-name="Ecaron.sc" horiz-adv-x="531" 
d="M366 645h-85l-97 166h72l82 -84l113 84h71zM8 0l104 592h407l-16 -98h-286l-26 -140h207l-16 -96h-207l-29 -162h301l-16 -96h-423z" />
    <glyph glyph-name="Ecircumflex.sc" horiz-adv-x="531" 
d="M226 642h-71l156 166h85l97 -166h-72l-83 84zM8 0l104 592h407l-16 -98h-286l-26 -140h207l-16 -96h-207l-29 -162h301l-16 -96h-423z" />
    <glyph glyph-name="Edieresis.sc" horiz-adv-x="531" 
d="M474 639h-112l21 121h112zM282 639h-112l21 121h112zM8 0l104 592h407l-16 -98h-286l-26 -140h207l-16 -96h-207l-29 -162h301l-16 -96h-423z" />
    <glyph glyph-name="Edotaccent.sc" horiz-adv-x="531" 
d="M386 650h-132l20 111h132zM8 0l104 592h407l-16 -98h-286l-26 -140h207l-16 -96h-207l-29 -162h301l-16 -96h-423z" />
    <glyph glyph-name="Egrave.sc" horiz-adv-x="531" 
d="M379 642h-81l-129 166h132zM8 0l104 592h407l-16 -98h-286l-26 -140h207l-16 -96h-207l-29 -162h301l-16 -96h-423z" />
    <glyph glyph-name="Emacron.sc" horiz-adv-x="531" 
d="M477 639h-307l16 91h307zM8 0l104 592h407l-16 -98h-286l-26 -140h207l-16 -96h-207l-29 -162h301l-16 -96h-423z" />
    <glyph glyph-name="Eogonek.sc" horiz-adv-x="531" 
d="M8 0l104 592h407l-16 -98h-286l-26 -140h207l-16 -96h-207l-29 -162h301l-16 -96h-56c-47 -31 -77 -66 -77 -99c0 -19 11 -34 46 -34c27 0 55 7 82 18l18 -39c-39 -22 -80 -33 -128 -33c-75 0 -108 30 -108 71c0 47 41 83 93 116h-293z" />
    <glyph glyph-name="Gbreve.sc" horiz-adv-x="637" 
d="M243 -10c-154 0 -219 110 -219 250c0 219 130 363 319 363c135 0 214 -66 226 -193l-107 -23c-12 85 -51 120 -125 120c-114 0 -192 -97 -192 -263c0 -104 45 -162 134 -162c76 0 137 51 156 129h-122l15 89h232l-53 -300h-94l14 84h-1c-32 -50 -94 -94 -183 -94z
M368 637c-117 0 -155 75 -149 177h68c1 -75 31 -95 85 -95c42 0 87 19 105 95h69c-16 -104 -82 -177 -178 -177z" />
    <glyph glyph-name="Gcircumflex.sc" horiz-adv-x="637" 
d="M252 643h-71l156 166h85l97 -166h-72l-83 84zM243 -10c-154 0 -219 110 -219 250c0 219 130 363 319 363c135 0 214 -66 226 -193l-107 -23c-12 85 -51 120 -125 120c-114 0 -192 -97 -192 -263c0 -104 45 -162 134 -162c76 0 137 51 156 129h-122l15 89h232l-53 -300
h-94l14 84h-1c-32 -50 -94 -94 -183 -94z" />
    <glyph glyph-name="Gcommaaccent.sc" horiz-adv-x="637" 
d="M165 -271l50 106h-48l21 120h123l-18 -105l-76 -121h-52zM243 -10c-154 0 -219 110 -219 250c0 219 130 363 319 363c135 0 214 -66 226 -193l-107 -23c-12 85 -51 120 -125 120c-114 0 -192 -97 -192 -263c0 -104 45 -162 134 -162c76 0 137 51 156 129h-122l15 89h232
l-53 -300h-94l14 84h-1c-32 -50 -94 -94 -183 -94z" />
    <glyph glyph-name="Gdotaccent.sc" horiz-adv-x="637" 
d="M243 -10c-154 0 -219 110 -219 250c0 219 130 363 319 363c135 0 214 -66 226 -193l-107 -23c-12 85 -51 120 -125 120c-114 0 -192 -97 -192 -263c0 -104 45 -162 134 -162c76 0 137 51 156 129h-122l15 89h232l-53 -300h-94l14 84h-1c-32 -50 -94 -94 -183 -94z
M424 651h-132l20 111h132z" />
    <glyph glyph-name="Hbar.sc" horiz-adv-x="644" 
d="M21 419l14 82h61l16 91h121l-16 -91h257l16 91h122l-16 -91h61l-14 -82h-62l-73 -419h-122l45 257h-258l-44 -257h-121l73 419h-60zM193 361h257l10 58h-257z" />
    <glyph glyph-name="Hcircumflex.sc" horiz-adv-x="644" 
d="M272 643h-71l156 166h85l97 -166h-72l-83 84zM8 0l104 592h121l-40 -231h257l40 231h122l-104 -592h-122l45 257h-258l-44 -257h-121z" />
    <glyph glyph-name="Iacute.sc" horiz-adv-x="278" 
d="M218 642h-81l118 166h132zM15 0l104 592h121l-104 -592h-121z" />
    <glyph glyph-name="Ibreve.sc" horiz-adv-x="278" 
d="M15 0l104 592h121l-104 -592h-121zM205 638c-117 0 -155 75 -149 177h68c1 -75 31 -95 85 -95c42 0 87 19 105 95h69c-16 -104 -82 -177 -178 -177z" />
    <glyph glyph-name="Icircumflex.sc" horiz-adv-x="278" 
d="M90 642h-71l156 166h85l97 -166h-72l-83 84zM15 0l104 592h121l-104 -592h-121z" />
    <glyph glyph-name="Idieresis.sc" horiz-adv-x="278" 
d="M339 639h-112l21 121h112zM147 639h-112l21 121h112zM15 0l104 592h121l-104 -592h-121z" />
    <glyph glyph-name="Idotaccent.sc" horiz-adv-x="278" 
d="M15 0l104 592h121l-104 -592h-121zM256 650h-132l20 111h132z" />
    <glyph glyph-name="Igrave.sc" horiz-adv-x="278" 
d="M15 0l104 592h121l-104 -592h-121zM233 642h-81l-129 166h132z" />
    <glyph glyph-name="IJ.sc" horiz-adv-x="696" 
d="M15 0l104 592h121l-104 -592h-121zM383 -11c-81 0 -133 24 -172 56l63 83c31 -27 74 -44 108 -44c53 0 84 13 98 91l73 417h121l-76 -432c-20 -115 -81 -171 -215 -171z" />
    <glyph glyph-name="Imacron.sc" horiz-adv-x="278" 
d="M15 0l104 592h121l-104 -592h-121zM342 639h-307l16 91h307z" />
    <glyph glyph-name="Iogonek.sc" horiz-adv-x="278" 
d="M26 -187c-76 0 -109 30 -109 71c0 49 44 86 98 119l104 589h121l-104 -592h-51c-47 -31 -77 -66 -77 -99c0 -19 11 -34 46 -34c27 0 55 7 82 18l18 -39c-39 -22 -80 -33 -128 -33z" />
    <glyph glyph-name="Itilde.sc" horiz-adv-x="278" 
d="M15 0l104 592h121l-104 -592h-121zM269 636c-63 0 -99 56 -138 56c-28 0 -44 -15 -50 -54h-71c11 98 55 139 121 139c64 0 101 -56 138 -56c27 0 44 15 51 54h71c-13 -97 -58 -139 -122 -139z" />
    <glyph glyph-name="Jcircumflex.sc" horiz-adv-x="448" 
d="M271 643h-71l156 166h85l97 -166h-72l-83 84zM135 -11c-81 0 -133 24 -172 56l63 83c31 -27 74 -44 108 -44c53 0 84 13 98 91l73 417h121l-76 -432c-20 -115 -81 -171 -215 -171z" />
    <glyph glyph-name="Kcommaaccent.sc" horiz-adv-x="599" 
d="M142 -271l51 106h-49l22 120h123l-18 -105l-76 -121h-53zM8 0l104 592h120l-46 -258l84 79l190 179h130l-250 -230l171 -362h-126l-132 278l-91 -81l-34 -197h-120z" />
    <glyph glyph-name="Lacute.sc" horiz-adv-x="493" 
d="M404 0h-396l104 592h121l-87 -496h274zM225 642h-81l118 166h132z" />
    <glyph glyph-name="Lcaron.sc" horiz-adv-x="493" 
d="M282 374l49 102h-47l21 116h119l-18 -101l-74 -117h-50zM404 0h-396l104 592h121l-87 -496h274z" />
    <glyph glyph-name="Lcommaaccent.sc" horiz-adv-x="493" 
d="M404 0h-396l104 592h121l-87 -496h274zM94 -271l51 106h-49l22 120h123l-18 -105l-76 -121h-53z" />
    <glyph glyph-name="Ldot.sc" horiz-adv-x="523" 
d="M444 267h-122l19 111h122zM404 0h-396l104 592h121l-87 -496h274z" />
    <glyph glyph-name="Nacute.sc" horiz-adv-x="644" 
d="M366 642h-81l118 166h132zM8 0l104 592h123l202 -405h1l70 405h110l-104 -592h-110l-210 422h-1l-75 -422h-110z" />
    <glyph glyph-name="Ncaron.sc" horiz-adv-x="644" 
d="M412 645h-85l-97 166h72l82 -84l113 84h71zM8 0l104 592h123l202 -405h1l70 405h110l-104 -592h-110l-210 422h-1l-75 -422h-110z" />
    <glyph glyph-name="Ncommaaccent.sc" horiz-adv-x="644" 
d="M165 -271l51 106h-49l22 120h123l-18 -105l-76 -121h-53zM8 0l104 592h123l202 -405h1l70 405h110l-104 -592h-110l-210 422h-1l-75 -422h-110z" />
    <glyph glyph-name="Ntilde.sc" horiz-adv-x="644" 
d="M8 0l104 592h123l202 -405h1l70 405h110l-104 -592h-110l-210 422h-1l-75 -422h-110zM451 635c-63 0 -99 56 -138 56c-28 0 -44 -15 -50 -54h-71c11 98 55 139 121 139c64 0 101 -56 138 -56c27 0 44 15 51 54h71c-13 -97 -58 -139 -122 -139z" />
    <glyph glyph-name="Eng.sc" horiz-adv-x="644" 
d="M8 0l104 592h123l201 -405h1l71 405h110l-106 -602c-24 -137 -81 -193 -208 -193c-81 0 -132 24 -171 55l61 81c31 -27 75 -44 109 -44c51 0 83 15 101 110l-210 423h-1l-75 -422h-110z" />
    <glyph glyph-name="Oacute.sc" horiz-adv-x="653" 
d="M273 -11c-142 0 -249 98 -249 259c0 231 163 355 331 355c143 0 250 -97 250 -259c0 -230 -160 -355 -332 -355zM280 87c125 0 204 109 204 256c0 98 -48 161 -134 161c-125 0 -204 -109 -204 -256c0 -98 48 -161 134 -161zM370 642h-81l118 166h132z" />
    <glyph glyph-name="Obreve.sc" horiz-adv-x="653" 
d="M273 -11c-142 0 -249 98 -249 259c0 231 163 355 331 355c143 0 250 -97 250 -259c0 -230 -160 -355 -332 -355zM280 87c125 0 204 109 204 256c0 98 -48 161 -134 161c-125 0 -204 -109 -204 -256c0 -98 48 -161 134 -161zM391 638c-117 0 -155 75 -149 177h68
c1 -75 31 -95 85 -95c42 0 87 19 105 95h69c-16 -104 -82 -177 -178 -177z" />
    <glyph glyph-name="Ocircumflex.sc" horiz-adv-x="653" 
d="M277 642h-71l156 166h85l97 -166h-72l-83 84zM273 -11c-142 0 -249 98 -249 259c0 231 163 355 331 355c143 0 250 -97 250 -259c0 -230 -160 -355 -332 -355zM280 87c125 0 204 109 204 256c0 98 -48 161 -134 161c-125 0 -204 -109 -204 -256c0 -98 48 -161 134 -161z
" />
    <glyph glyph-name="Odieresis.sc" horiz-adv-x="653" 
d="M525 639h-112l21 121h112zM333 639h-112l21 121h112zM273 -11c-142 0 -249 98 -249 259c0 231 163 355 331 355c143 0 250 -97 250 -259c0 -230 -160 -355 -332 -355zM280 87c125 0 204 109 204 256c0 98 -48 161 -134 161c-125 0 -204 -109 -204 -256
c0 -98 48 -161 134 -161z" />
    <glyph glyph-name="Ograve.sc" horiz-adv-x="653" 
d="M273 -11c-142 0 -249 98 -249 259c0 231 163 355 331 355c143 0 250 -97 250 -259c0 -230 -160 -355 -332 -355zM280 87c125 0 204 109 204 256c0 98 -48 161 -134 161c-125 0 -204 -109 -204 -256c0 -98 48 -161 134 -161zM430 642h-81l-129 166h132z" />
    <glyph glyph-name="Ohungarumlaut.sc" horiz-adv-x="653" 
d="M273 -11c-142 0 -249 98 -249 259c0 231 163 355 331 355c143 0 250 -97 250 -259c0 -230 -160 -355 -332 -355zM280 87c125 0 204 109 204 256c0 98 -48 161 -134 161c-125 0 -204 -109 -204 -256c0 -98 48 -161 134 -161zM473 642h-82l129 166h134zM294 642h-82
l124 166h134z" />
    <glyph glyph-name="Omacron.sc" horiz-adv-x="653" 
d="M273 -11c-142 0 -249 98 -249 259c0 231 163 355 331 355c143 0 250 -97 250 -259c0 -230 -160 -355 -332 -355zM280 87c125 0 204 109 204 256c0 98 -48 161 -134 161c-125 0 -204 -109 -204 -256c0 -98 48 -161 134 -161zM528 639h-307l16 91h307z" />
    <glyph glyph-name="Otilde.sc" horiz-adv-x="653" 
d="M273 -11c-142 0 -249 98 -249 259c0 231 163 355 331 355c143 0 250 -97 250 -259c0 -230 -160 -355 -332 -355zM280 87c125 0 204 109 204 256c0 98 -48 161 -134 161c-125 0 -204 -109 -204 -256c0 -98 48 -161 134 -161zM456 635c-63 0 -99 56 -138 56
c-28 0 -44 -15 -50 -54h-71c11 98 55 139 121 139c64 0 101 -56 138 -56c27 0 44 15 51 54h71c-13 -97 -58 -139 -122 -139z" />
    <glyph glyph-name="Racute.sc" horiz-adv-x="590" 
d="M359 0l-93 233h-98l-41 -233h-119l104 592h222c134 0 212 -53 212 -158c0 -100 -46 -169 -165 -192l98 -242h-120zM184 317h99c91 0 142 21 142 105c0 54 -38 76 -111 76h-99zM339 642h-81l118 166h132z" />
    <glyph glyph-name="Rcaron.sc" horiz-adv-x="590" 
d="M359 0l-93 233h-98l-41 -233h-119l104 592h222c134 0 212 -53 212 -158c0 -100 -46 -169 -165 -192l98 -242h-120zM184 317h99c91 0 142 21 142 105c0 54 -38 76 -111 76h-99zM386 645h-85l-97 166h72l82 -84l113 84h71z" />
    <glyph glyph-name="Rcommaaccent.sc" horiz-adv-x="590" 
d="M359 0l-93 233h-98l-41 -233h-119l104 592h222c134 0 212 -53 212 -158c0 -100 -46 -169 -165 -192l98 -242h-120zM184 317h99c91 0 142 21 142 105c0 54 -38 76 -111 76h-99zM138 -271l51 106h-49l22 120h123l-18 -105l-76 -121h-53z" />
    <glyph glyph-name="Sacute.sc" horiz-adv-x="578" 
d="M333 642h-81l118 166h132zM246 -13c-126 0 -211 49 -244 150l98 47c22 -74 77 -103 156 -103c78 0 123 20 123 83c0 111 -305 73 -305 256c0 124 100 183 235 183c136 0 200 -58 227 -124l-94 -54c-19 51 -72 84 -141 84c-67 0 -107 -20 -107 -75
c0 -117 305 -72 305 -256c0 -138 -118 -191 -253 -191z" />
    <glyph glyph-name="Scaron.sc" horiz-adv-x="578" 
d="M379 645h-85l-97 166h72l82 -84l113 84h71zM246 -13c-126 0 -211 49 -244 150l98 47c22 -74 77 -103 156 -103c78 0 123 20 123 83c0 111 -305 73 -305 256c0 124 100 183 235 183c136 0 200 -58 227 -124l-94 -54c-19 51 -72 84 -141 84c-67 0 -107 -20 -107 -75
c0 -117 305 -72 305 -256c0 -138 -118 -191 -253 -191z" />
    <glyph glyph-name="Scedilla.sc" horiz-adv-x="578" 
d="M213 -199c-69 0 -109 14 -140 37l32 40c26 -20 56 -30 95 -30c37 0 60 13 60 43c0 16 -12 27 -32 27c-14 0 -30 -6 -45 -18l-32 17l36 74c-94 13 -158 61 -185 146l98 47c22 -74 77 -103 156 -103c78 0 123 20 123 83c0 111 -305 73 -305 256c0 124 100 183 235 183
c136 0 200 -58 227 -124l-94 -54c-19 51 -72 84 -141 84c-67 0 -107 -20 -107 -75c0 -117 305 -72 305 -256c0 -138 -118 -191 -253 -191h-4l-16 -38c13 9 31 15 53 15c38 0 66 -25 66 -63c0 -76 -73 -100 -132 -100z" />
    <glyph glyph-name="Scircumflex.sc" horiz-adv-x="578" 
d="M229 643h-71l156 166h85l97 -166h-72l-83 84zM246 -13c-126 0 -211 49 -244 150l98 47c22 -74 77 -103 156 -103c78 0 123 20 123 83c0 111 -305 73 -305 256c0 124 100 183 235 183c136 0 200 -58 227 -124l-94 -54c-19 51 -72 84 -141 84c-67 0 -107 -20 -107 -75
c0 -117 305 -72 305 -256c0 -138 -118 -191 -253 -191z" />
    <glyph glyph-name="Scommaaccent.sc" horiz-adv-x="578" 
d="M132 -271l51 106h-49l22 120h123l-18 -105l-76 -121h-53zM246 -13c-126 0 -211 49 -244 150l98 47c22 -74 77 -103 156 -103c78 0 123 20 123 83c0 111 -305 73 -305 256c0 124 100 183 235 183c136 0 200 -58 227 -124l-94 -54c-19 51 -72 84 -141 84
c-67 0 -107 -20 -107 -75c0 -117 305 -72 305 -256c0 -138 -118 -191 -253 -191z" />
    <glyph glyph-name="Tbar.sc" horiz-adv-x="543" 
d="M2 227l15 81h184l33 186h-184l16 98h491l-16 -98h-185l-33 -186h185l-15 -81h-185l-40 -227h-121l40 227h-185z" />
    <glyph glyph-name="Tcaron.sc" horiz-adv-x="543" 
d="M268 0h-121l87 494h-184l16 98h491l-16 -98h-185zM362 645h-85l-97 166h72l82 -84l113 84h71z" />
    <glyph glyph-name="Tcommaaccent.sc" horiz-adv-x="543" 
d="M268 0h-121l87 494h-184l16 98h491l-16 -98h-185zM114 -271l51 106h-49l22 120h123l-18 -105l-76 -121h-53z" />
    <glyph glyph-name="Uacute.sc" horiz-adv-x="611" 
d="M349 642h-81l118 166h132zM249 -10c-186 0 -233 103 -208 243l62 359h121l-64 -367c-16 -87 2 -139 99 -139c95 0 131 51 147 139l64 367h119l-66 -380c-25 -140 -106 -222 -274 -222z" />
    <glyph glyph-name="Ubreve.sc" horiz-adv-x="611" 
d="M249 -10c-186 0 -233 103 -208 243l62 359h121l-64 -367c-16 -87 2 -139 99 -139c95 0 131 51 147 139l64 367h119l-66 -380c-25 -140 -106 -222 -274 -222zM368 638c-117 0 -155 75 -149 177h68c1 -75 31 -95 85 -95c42 0 87 19 105 95h69c-16 -104 -82 -177 -178 -177z
" />
    <glyph glyph-name="Ucircumflex.sc" horiz-adv-x="611" 
d="M256 642h-71l156 166h85l97 -166h-72l-83 84zM249 -10c-186 0 -233 103 -208 243l62 359h121l-64 -367c-16 -87 2 -139 99 -139c95 0 131 51 147 139l64 367h119l-66 -380c-25 -140 -106 -222 -274 -222z" />
    <glyph glyph-name="Udieresis.sc" horiz-adv-x="611" 
d="M504 639h-112l21 121h112zM312 639h-112l21 121h112zM249 -10c-186 0 -233 103 -208 243l62 359h121l-64 -367c-16 -87 2 -139 99 -139c95 0 131 51 147 139l64 367h119l-66 -380c-25 -140 -106 -222 -274 -222z" />
    <glyph glyph-name="Ugrave.sc" horiz-adv-x="611" 
d="M409 642h-81l-129 166h132zM249 -10c-186 0 -233 103 -208 243l62 359h121l-64 -367c-16 -87 2 -139 99 -139c95 0 131 51 147 139l64 367h119l-66 -380c-25 -140 -106 -222 -274 -222z" />
    <glyph glyph-name="Uhungarumlaut.sc" horiz-adv-x="611" 
d="M457 642h-82l129 166h134zM278 642h-82l124 166h134zM249 -10c-186 0 -233 103 -208 243l62 359h121l-64 -367c-16 -87 2 -139 99 -139c95 0 131 51 147 139l64 367h119l-66 -380c-25 -140 -106 -222 -274 -222z" />
    <glyph glyph-name="Umacron.sc" horiz-adv-x="611" 
d="M507 639h-307l16 91h307zM249 -10c-186 0 -233 103 -208 243l62 359h121l-64 -367c-16 -87 2 -139 99 -139c95 0 131 51 147 139l64 367h119l-66 -380c-25 -140 -106 -222 -274 -222z" />
    <glyph glyph-name="Uogonek.sc" horiz-adv-x="611" 
d="M237 -187c-75 0 -108 30 -108 71c0 43 34 77 80 108c-153 13 -191 111 -168 241l62 359h121l-64 -367c-16 -87 2 -139 99 -139c95 0 131 51 147 139l64 367h119l-66 -380c-23 -130 -95 -210 -239 -220c-40 -30 -65 -61 -65 -91c0 -19 11 -34 46 -34c27 0 55 7 82 18
l18 -39c-39 -22 -80 -33 -128 -33z" />
    <glyph glyph-name="Uring.sc" horiz-adv-x="611" 
d="M364 685c28 0 54 22 54 59c0 24 -15 43 -42 43c-28 0 -53 -23 -53 -59c0 -24 14 -43 41 -43zM359 634c-57 0 -90 42 -90 92c0 69 56 111 113 111s90 -40 90 -89c0 -71 -56 -114 -113 -114zM249 -10c-186 0 -233 103 -208 243l62 359h121l-64 -367c-16 -87 2 -139 99 -139
c95 0 131 51 147 139l64 367h119l-66 -380c-25 -140 -106 -222 -274 -222z" />
    <glyph glyph-name="Utilde.sc" horiz-adv-x="611" 
d="M249 -10c-186 0 -233 103 -208 243l62 359h121l-64 -367c-16 -87 2 -139 99 -139c95 0 131 51 147 139l64 367h119l-66 -380c-25 -140 -106 -222 -274 -222zM434 636c-63 0 -99 56 -138 56c-28 0 -44 -15 -50 -54h-71c11 98 55 139 121 139c64 0 101 -56 138 -56
c27 0 44 15 51 54h71c-13 -97 -58 -139 -122 -139z" />
    <glyph glyph-name="Wacute.sc" horiz-adv-x="801" 
d="M235 0h-104l-65 592h120l24 -287c4 -47 7 -86 9 -134h2c16 46 33 87 51 133l115 288h114l16 -289c3 -48 5 -84 7 -133h1l53 131l124 291h113l-269 -592h-103l-26 431h-2zM488 643h-81l118 166h132z" />
    <glyph glyph-name="Wcircumflex.sc" horiz-adv-x="801" 
d="M235 0h-104l-65 592h120l24 -287c4 -47 7 -86 9 -134h2c16 46 33 87 51 133l115 288h114l16 -289c3 -48 5 -84 7 -133h1l53 131l124 291h113l-269 -592h-103l-26 431h-2zM351 643h-71l156 166h85l97 -166h-72l-83 84z" />
    <glyph glyph-name="Wdieresis.sc" horiz-adv-x="801" 
d="M235 0h-104l-65 592h120l24 -287c4 -47 7 -86 9 -134h2c16 46 33 87 51 133l115 288h114l16 -289c3 -48 5 -84 7 -133h1l53 131l124 291h113l-269 -592h-103l-26 431h-2zM602 640h-112l21 121h112zM410 640h-112l21 121h112z" />
    <glyph glyph-name="Wgrave.sc" horiz-adv-x="801" 
d="M235 0h-104l-65 592h120l24 -287c4 -47 7 -86 9 -134h2c16 46 33 87 51 133l115 288h114l16 -289c3 -48 5 -84 7 -133h1l53 131l124 291h113l-269 -592h-103l-26 431h-2zM484 643h-81l-129 166h132z" />
    <glyph glyph-name="Yacute.sc" horiz-adv-x="573" 
d="M330 642h-81l118 166h132zM161 0l44 253l-150 339h126l104 -246l188 246h124l-270 -339l-44 -253h-122z" />
    <glyph glyph-name="Ycircumflex.sc" horiz-adv-x="573" 
d="M234 643h-71l156 166h85l97 -166h-72l-83 84zM161 0l44 253l-150 339h126l104 -246l188 246h124l-270 -339l-44 -253h-122z" />
    <glyph glyph-name="Ydieresis.sc" horiz-adv-x="573" 
d="M485 639h-112l21 121h112zM293 639h-112l21 121h112zM161 0l44 253l-150 339h126l104 -246l188 246h124l-270 -339l-44 -253h-122z" />
    <glyph glyph-name="Ygrave.sc" horiz-adv-x="573" 
d="M161 0l44 253l-150 339h126l104 -246l188 246h124l-270 -339l-44 -253h-122zM377 643h-81l-129 166h132z" />
    <glyph glyph-name="Zacute.sc" horiz-adv-x="553" 
d="M320 642h-81l118 166h132zM449 0h-481l14 83l402 411h-306l17 98h458l-14 -85l-397 -411h323z" />
    <glyph glyph-name="Zcaron.sc" horiz-adv-x="553" 
d="M367 645h-85l-97 166h72l82 -84l113 84h71zM449 0h-481l14 83l402 411h-306l17 98h458l-14 -85l-397 -411h323z" />
    <glyph glyph-name="Zdotaccent.sc" horiz-adv-x="553" 
d="M449 0h-481l14 83l402 411h-306l17 98h458l-14 -85l-397 -411h323zM392 650h-132l20 111h132z" />
    <glyph glyph-name="exclamdown.sc" horiz-adv-x="294" 
d="M12 0l101 414h86l-44 -414h-143zM105 485l18 107h128l-18 -107h-128z" />
    <glyph glyph-name="exclam.sc" horiz-adv-x="294" 
d="M19 0l19 107h128l-19 -107h-128zM72 178l43 414h144l-101 -414h-86z" />
    <glyph glyph-name="questiondown.sc" horiz-adv-x="490" 
d="M166 -15c-120 0 -176 61 -176 139c0 98 58 132 136 165c69 29 84 54 91 127h98c0 -17 -2 -35 -5 -51c-13 -72 -51 -104 -118 -132c-58 -24 -83 -41 -83 -92c0 -37 22 -60 83 -60c58 0 112 21 160 62l52 -76c-59 -50 -135 -82 -238 -82zM215 485l19 107h128l-19 -107h-128
z" />
    <glyph glyph-name="question.sc" horiz-adv-x="490" 
d="M143 176c1 17 3 35 5 51c13 72 51 104 119 132c58 24 83 41 83 92c0 37 -23 60 -84 60c-58 0 -111 -20 -159 -62l-53 76c59 50 130 81 239 81c119 0 175 -60 175 -138c0 -98 -58 -132 -136 -165c-69 -29 -84 -54 -90 -127h-99zM96 0l19 107h129l-19 -107h-129z" />
    <glyph glyph-name="slash.sc" horiz-adv-x="512" 
d="M81 0h-123l449 592h122z" />
    <glyph glyph-name="backslash.sc" horiz-adv-x="512" 
d="M182 592l240 -592h-115l-240 592h115z" />
    <glyph glyph-name="plus" unicode="+" horiz-adv-x="642" 
d="M367 82h-101v210h-204v99h204v210h101v-210h204v-99h-204v-210z" />
    <glyph glyph-name="minus" unicode="&#x2212;" horiz-adv-x="642" 
d="M571 292h-509v99h509v-99z" />
    <glyph glyph-name="multiply" unicode="&#xd7;" horiz-adv-x="642" 
d="M317 249l-164 -164l-72 72l164 163l-164 163l72 72l164 -163l163 163l72 -72l-163 -162l164 -163l-72 -72z" />
    <glyph glyph-name="divide" unicode="&#xf7;" horiz-adv-x="642" 
d="M372 476h-114v105h114v-105zM571 292h-509v99h509v-99zM372 101h-114v105h114v-105z" />
    <glyph glyph-name="equal" unicode="=" horiz-adv-x="642" 
d="M566 395h-505v91h505v-91zM566 167h-505v91h505v-91z" />
    <glyph glyph-name="less" unicode="&#x3c;" horiz-adv-x="642" 
d="M578 58l-529 230v72l529 230v-104l-395 -162l395 -162v-104z" />
    <glyph glyph-name="greater" unicode="&#x3e;" horiz-adv-x="642" 
d="M582 288l-529 -230v104l395 162l-395 162v104l529 -230v-72z" />
    <glyph glyph-name="dollar" unicode="$" horiz-adv-x="658" 
d="M288 -93h-79l16 91c-103 18 -174 77 -218 169l99 47c20 -45 64 -102 139 -120l43 242c-93 37 -188 81 -188 193c0 168 151 220 249 220h8l12 70h79l-14 -77c92 -17 151 -66 183 -154l-102 -38c-21 52 -53 80 -101 92l-39 -220c96 -38 200 -85 200 -211
c0 -175 -163 -219 -273 -220zM458 201c0 52 -45 82 -103 107l-39 -220c96 4 142 39 142 113zM217 547c0 -47 39 -74 91 -98l35 201h-5c-79 0 -121 -43 -121 -103z" />
    <glyph glyph-name="cent" unicode="&#xa2;" horiz-adv-x="541" 
d="M237 -11c-26 0 -51 4 -73 10l-60 -128h-68l71 153c-57 37 -92 102 -92 194c0 240 161 323 282 323c17 0 32 -1 47 -3l47 100h68l-54 -116c61 -26 88 -79 102 -147l-106 -20c-8 38 -23 62 -46 75l-155 -339c14 -5 29 -7 46 -7c48 0 89 23 128 99l94 -39
c-39 -81 -107 -155 -231 -155zM289 444c-80 0 -157 -78 -157 -230c0 -38 9 -70 26 -92l148 321c-5 1 -11 1 -17 1z" />
    <glyph glyph-name="Euro" unicode="&#x20ac;" horiz-adv-x="719" 
d="M381 -14c-144 0 -246 81 -259 257h-123l15 83h108c1 24 4 47 7 70h-103l15 82h106c51 174 170 276 311 276c174 0 226 -97 241 -219l-114 -17c-9 83 -35 128 -132 128c-86 0 -148 -67 -182 -168h191l-15 -82h-196c-4 -23 -6 -46 -8 -70h192l-15 -83h-178
c6 -110 57 -151 146 -151c66 0 112 43 156 145l101 -44c-46 -107 -126 -207 -264 -207z" />
    <glyph glyph-name="sterling" unicode="&#xa3;" horiz-adv-x="647" 
d="M100 -14c-81 0 -130 43 -130 106c0 85 65 127 139 127c49 0 87 -20 121 -44c4 18 6 37 6 60c0 35 -7 68 -17 102h-136l14 82h95c-13 41 -25 82 -25 124c0 134 99 211 223 211c168 0 205 -99 205 -202l-113 -10c2 60 -17 109 -93 109c-57 0 -102 -31 -102 -112
c0 -40 14 -78 28 -120h165l-14 -82h-128c6 -25 9 -52 9 -80c0 -54 -13 -103 -36 -144c25 -16 51 -27 81 -27c49 0 89 19 95 110h106c-13 -122 -63 -210 -190 -210c-65 0 -112 25 -150 55c-42 -35 -95 -55 -153 -55zM108 144c-30 0 -54 -13 -54 -48c0 -24 17 -42 52 -42
c28 0 61 13 86 42c-28 27 -54 48 -84 48z" />
    <glyph glyph-name="yen" unicode="&#xa5;" horiz-adv-x="646" 
d="M320 0h-125l17 97h-179l15 84h179l12 70h-179l15 82h177l-168 407h128l119 -315l229 315h132l-311 -407h179l-15 -82h-181l-12 -70h181l-15 -84h-181z" />
    <glyph glyph-name="florin" unicode="&#x192;" horiz-adv-x="385" 
d="M-54 -202c-23 0 -63 3 -72 4l16 87c8 -2 28 -3 41 -3c51 0 83 22 93 79l76 432h-92l16 89h92l16 99c16 91 62 158 200 158c24 0 64 -3 73 -5l-17 -89c-8 2 -27 3 -41 3c-44 0 -83 -12 -92 -69l-16 -97h116l-16 -89h-116l-80 -452c-14 -83 -58 -147 -197 -147z" />
    <glyph glyph-name="numbersign" unicode="#" horiz-adv-x="740" 
d="M206 0h-111l42 199h-113v93h132l33 156h-122v93h141l42 199h111l-41 -199h144l42 199h111l-42 -199h123v-93h-142l-33 -156h132v-93h-151l-42 -199h-111l42 199h-145zM300 448l-33 -156h145l33 156h-145z" />
    <glyph glyph-name="section" unicode="&#xa7;" horiz-adv-x="556" 
d="M199 -200c-163 0 -195 90 -207 175l99 15c7 -61 29 -102 105 -102c60 0 88 31 88 75c0 112 -247 155 -247 315c0 88 67 147 137 178c-32 32 -54 70 -54 118c0 106 86 180 204 180c158 0 201 -82 212 -173l-98 -15c-6 57 -35 99 -111 99c-60 0 -92 -33 -92 -76
c0 -108 251 -152 251 -312c0 -89 -68 -149 -139 -181c30 -32 52 -69 52 -116c0 -106 -82 -180 -200 -180zM144 304c0 -62 71 -103 139 -153c63 28 96 57 96 99c0 62 -72 103 -140 152c-62 -28 -95 -57 -95 -98z" />
    <glyph glyph-name="paragraph" unicode="&#xb6;" horiz-adv-x="625" 
d="M272 -200h-88l92 523c-130 8 -210 75 -210 182c0 142 101 235 254 235h293l-165 -940h-88l149 845h-88z" />
    <glyph glyph-name="percent" unicode="%" horiz-adv-x="1037" 
d="M290 0h-110l567 740h110zM756 77c67 0 107 111 107 208c0 54 -19 85 -65 85c-68 0 -108 -110 -108 -207c0 -53 20 -86 66 -86zM750 -10c-111 0 -163 77 -163 183c0 185 107 285 217 285s162 -76 162 -184c0 -179 -103 -284 -216 -284zM240 371c67 0 108 110 108 208
c0 53 -19 85 -66 85c-67 0 -108 -110 -108 -207c0 -54 21 -86 66 -86zM235 284c-111 0 -164 77 -164 183c0 185 108 285 217 285c111 0 163 -77 163 -185c0 -178 -104 -283 -216 -283z" />
    <glyph glyph-name="perthousand" unicode="&#x2030;" horiz-adv-x="1466" 
d="M290 0h-110l567 740h110zM1184 72c67 0 108 116 108 213c0 54 -18 90 -64 90c-68 0 -109 -115 -109 -212c0 -53 19 -91 65 -91zM1179 -10c-111 0 -163 77 -163 183c0 185 107 285 217 285s162 -76 162 -184c0 -179 -103 -284 -216 -284zM755 72c67 0 108 116 108 213
c0 54 -18 90 -64 90c-68 0 -109 -115 -109 -212c0 -53 19 -91 65 -91zM750 -10c-111 0 -163 77 -163 183c0 185 107 285 217 285s162 -76 162 -184c0 -179 -103 -284 -216 -284zM239 366c67 0 109 115 109 213c0 53 -18 90 -65 90c-67 0 -109 -115 -109 -212
c0 -54 20 -91 65 -91zM235 284c-111 0 -164 77 -164 183c0 185 108 285 217 285c111 0 163 -77 163 -185c0 -178 -104 -283 -216 -283z" />
    <glyph glyph-name="degree" unicode="&#xb0;" horiz-adv-x="405" 
d="M233 513c46 0 93 36 93 102c0 43 -27 75 -72 75c-46 0 -92 -36 -92 -102c0 -43 27 -75 71 -75zM232 450c-89 0 -142 60 -142 135c0 106 88 168 166 168c89 0 142 -59 142 -134c0 -106 -88 -169 -166 -169z" />
    <glyph glyph-name="prime" unicode="&#x2032;" horiz-adv-x="251" 
d="M142 478h-75l52 196l23 66h109z" />
    <glyph glyph-name="primedbl" unicode="&#x2033;" horiz-adv-x="437" 
d="M331 478h-75l51 196l23 66h109zM145 478h-75l51 196l23 66h109z" />
    <glyph glyph-name="ordfeminine" unicode="&#xaa;" horiz-adv-x="429" 
d="M201 434c34 0 69 19 100 43l14 78c-125 -9 -161 -36 -163 -79c-2 -24 13 -42 49 -42zM161 364c-67 0 -107 43 -101 100c8 86 83 138 265 151l2 11c7 34 -5 55 -56 55c-42 0 -83 -14 -124 -43l-37 56c51 36 108 56 177 56c113 0 140 -58 125 -145l-25 -141
c-7 -42 -10 -67 -4 -92h-91c-2 16 -3 30 0 49c-42 -38 -89 -57 -131 -57z" />
    <glyph glyph-name="ordmasculine" unicode="&#xba;" horiz-adv-x="446" 
d="M243 433c60 0 109 60 109 157c0 51 -22 91 -80 91c-60 0 -109 -60 -109 -156c0 -51 21 -92 80 -92zM241 364c-96 0 -168 55 -168 161c0 172 124 226 201 226c96 0 169 -54 169 -160c0 -168 -124 -227 -202 -227z" />
    <glyph glyph-name="zero.tab_salt_slash" 
d="M282 -14c-174 0 -254 123 -254 296c0 273 144 472 344 472c172 0 252 -122 252 -295c0 -274 -143 -473 -342 -473zM286 96c143 0 214 183 214 370c0 14 -1 27 -2 39l-327 -340c21 -46 59 -69 115 -69zM152 276c0 -14 0 -26 1 -38l326 340c-21 43 -59 65 -113 65
c-140 0 -214 -179 -214 -367z" />
    <glyph glyph-name="zero.tab" 
d="M273 -14c-179 0 -256 152 -236 358c20 245 153 410 345 410c177 0 254 -152 233 -357c-20 -245 -152 -411 -342 -411zM279 93c121 0 198 125 217 310c19 155 -26 242 -123 242c-123 0 -198 -123 -217 -309c-19 -155 26 -243 123 -243z" />
    <glyph glyph-name="one.tab" 
d="M61 0l18 109h156l89 504c-39 -19 -117 -34 -160 -34l21 113c57 2 128 17 166 48h117l-111 -631h140l-18 -109h-418z" />
    <glyph glyph-name="two.tab" 
d="M-2 0l3 16c56 370 478 320 478 538c0 61 -36 88 -101 88c-69 0 -132 -25 -189 -101l-83 70c75 99 173 143 287 143c138 0 212 -77 212 -184c0 -283 -366 -257 -451 -460h371l-19 -110h-508z" />
    <glyph glyph-name="three.tab" 
d="M262 -14c-136 0 -217 52 -265 138l98 67c38 -68 91 -94 165 -94c101 0 164 43 164 134c0 74 -58 107 -165 107h-46l17 102h50c140 0 188 39 188 122c1 49 -30 80 -110 80c-61 0 -123 -16 -180 -64l-60 84c70 64 161 92 262 92c145 0 216 -77 216 -166
c0 -105 -61 -178 -168 -197c90 -17 124 -98 124 -159c0 -156 -122 -246 -290 -246z" />
    <glyph glyph-name="four.tab" 
d="M322 0l28 152h-343l17 98l406 490h143l-85 -480h108l-18 -108h-108l-27 -152h-121zM149 260h219l58 332h-2z" />
    <glyph glyph-name="five.tab" 
d="M264 -14c-130 0 -210 51 -256 122l91 78c36 -53 83 -89 171 -89c112 0 176 75 176 178c0 76 -41 120 -122 120c-56 0 -110 -24 -157 -76l-76 28l97 393h419l-26 -107h-315l-49 -189c35 31 89 55 156 55c132 0 199 -96 199 -216c0 -179 -127 -297 -308 -297z" />
    <glyph glyph-name="six.tab" 
d="M288 -14c-147 0 -241 107 -241 288c0 291 170 480 368 480c105 0 165 -29 200 -60l-70 -95c-35 30 -77 46 -141 46c-124 0 -194 -117 -222 -248c59 48 131 74 206 74c119 0 197 -75 197 -195c0 -174 -127 -290 -297 -290zM349 367c-63 0 -128 -23 -181 -75
c-1 -11 -1 -23 -1 -34c0 -127 56 -166 132 -166c100 0 164 67 164 170c0 62 -30 105 -114 105z" />
    <glyph glyph-name="seven.tab" 
d="M86 0l405 627h-364l20 113h492l-18 -105l-408 -635h-127z" />
    <glyph glyph-name="eight.tab" 
d="M278 -9c-173 0 -262 81 -262 194c0 109 88 174 207 211c-66 44 -109 93 -108 165c0 109 100 193 262 193c164 0 235 -90 234 -179c0 -96 -66 -148 -178 -189c85 -49 145 -102 145 -187c0 -142 -119 -208 -300 -208zM286 80c90 0 167 38 167 118c0 62 -58 99 -140 146
c-115 -42 -171 -77 -171 -154c-1 -60 50 -110 144 -110zM351 431c95 38 137 68 137 135c0 45 -28 92 -118 92c-87 0 -134 -40 -134 -100c-1 -54 46 -87 115 -127z" />
    <glyph glyph-name="nine.tab" 
d="M237 -14c-105 0 -165 29 -200 61l72 93c35 -30 77 -47 141 -47c124 0 194 116 221 250c-59 -48 -132 -74 -207 -74c-119 0 -197 75 -197 195c0 174 123 290 292 290c158 0 246 -107 246 -287c0 -292 -164 -481 -368 -481zM303 370c62 0 127 22 181 73c0 13 1 27 1 40
c0 126 -56 165 -132 165c-100 0 -164 -70 -164 -173c0 -61 30 -105 114 -105z" />
    <glyph glyph-name="plus.tab" 
d="M275 82v210h-204v99h204v210h101v-210h204v-99h-204v-210h-101z" />
    <glyph glyph-name="minus.tab" 
d="M71 292v99h509v-99h-509z" />
    <glyph glyph-name="multiply.tab" 
d="M161 85l-72 72l163 163l-163 163l72 72l163 -163l163 163l72 -72l-162 -162l164 -163l-72 -72l-164 163z" />
    <glyph glyph-name="divide.tab" 
d="M267 101v105h114v-105h-114zM71 292v99h509v-99h-509zM267 476v105h114v-105h-114z" />
    <glyph glyph-name="equal.tab" 
d="M72 167v91h505v-91h-505zM72 395v91h505v-91h-505z" />
    <glyph glyph-name="less.tab" 
d="M590 58l-529 230v72l529 230v-104l-395 -162l395 -162v-104z" />
    <glyph glyph-name="greater.tab" 
d="M64 58v104l395 162l-395 162v104l529 -230v-72z" />
    <glyph glyph-name="dollar.tab" 
d="M215 -93l15 88c-126 13 -187 82 -219 158l96 46c27 -55 60 -103 141 -115l45 253c-111 39 -194 89 -194 191c0 135 103 215 263 221l13 70h71l-13 -74c101 -16 159 -76 186 -137l-95 -52c-21 45 -53 83 -109 96l-41 -232c114 -41 205 -95 205 -201
c0 -141 -98 -219 -278 -225l-15 -87h-71zM460 202c1 52 -33 83 -105 112l-41 -232c87 5 146 38 146 120zM218 543c0 -46 31 -74 93 -100l38 213c-64 -4 -131 -28 -131 -113z" />
    <glyph glyph-name="cent.tab" 
d="M91 -129l71 150c-75 47 -101 139 -92 232c18 207 172 288 288 288c14 0 29 -1 43 -3l45 100h68l-54 -115c54 -22 95 -65 110 -143l-101 -27c-6 37 -23 67 -53 84l-162 -354c11 -4 25 -6 40 -6c52 0 105 26 149 101l86 -45c-53 -86 -130 -144 -245 -144c-25 0 -47 3 -67 8
l-58 -126h-68zM185 245c-4 -48 2 -95 25 -127l154 333c-4 0 -8 1 -11 1c-82 0 -160 -66 -168 -207z" />
    <glyph glyph-name="Euro.tab" 
d="M9 402l15 80h95c49 157 155 272 315 272c158 0 208 -93 219 -217l-113 -23c-9 89 -28 136 -120 136c-81 0 -142 -69 -177 -168h181l-15 -80h-188c-5 -23 -8 -48 -11 -72h187l-15 -82h-175c2 -103 40 -158 129 -158c75 0 120 49 162 147l105 -39
c-62 -134 -148 -212 -282 -212c-128 0 -226 80 -232 262h-108l15 82h95c2 24 5 48 9 72h-91z" />
    <glyph glyph-name="sterling.tab" 
d="M85 337l14 82h91c-13 39 -23 77 -23 117c0 133 94 218 240 218c157 0 194 -98 191 -201l-109 -13c3 64 -17 114 -95 114c-63 0 -106 -42 -106 -114c0 -38 12 -77 26 -121h171l-14 -82h-136c6 -28 9 -57 9 -89c0 -56 -13 -102 -35 -141c25 -18 51 -31 82 -31
c45 0 75 23 91 120h103c-18 -126 -65 -210 -179 -210c-69 0 -115 25 -151 56c-43 -37 -98 -56 -152 -56c-72 0 -125 38 -124 107c0 87 62 126 135 126c46 0 82 -20 114 -45c5 21 8 43 8 64c0 32 -8 66 -18 99h-133zM112 54c36 0 64 19 85 47c-25 27 -49 48 -79 48
c-38 0 -58 -20 -58 -54c1 -24 13 -41 52 -41z" />
    <glyph glyph-name="yen.tab" 
d="M198 0l18 97h-179l13 84h179l14 70h-179l14 82h176l-167 407h128l121 -306l227 306h132l-311 -407h179l-14 -82h-181l-14 -70h181l-13 -84h-181l-18 -97h-125z" />
    <glyph glyph-name="florin.tab" 
d="M106 -202c-22 0 -63 3 -72 4l17 87c8 -2 27 -3 41 -3c50 0 82 22 92 79l76 432h-92l16 89h92l16 99c15 91 62 158 200 158c24 0 64 -3 73 -5l-17 -89c-8 2 -27 3 -41 3c-44 0 -83 -12 -92 -69l-16 -97h116l-16 -89h-116l-80 -452c-14 -83 -58 -147 -197 -147z" />
    <glyph glyph-name="numbersign.tab" 
d="M89 0l36 199h-88v93h104l30 156h-96v93h111l37 199h99l-39 -199h135l38 199h97l-37 -199h96v-93h-111l-30 -156h104v-93h-119l-37 -199h-98l36 199h-133l-38 -199h-97zM239 292h134l29 156h-133z" />
    <glyph glyph-name="percent.tab" horiz-adv-x="980" 
d="M217 283c-93 0 -145 71 -145 179c0 167 86 287 222 287c92 0 145 -67 145 -176c0 -163 -80 -290 -222 -290zM233 373c70 0 108 110 108 202c0 54 -19 84 -62 84c-72 0 -108 -109 -108 -198c0 -57 19 -88 62 -88zM688 -9c-93 0 -145 71 -145 179c0 167 86 287 222 287
c92 0 145 -67 145 -176c0 -163 -80 -290 -222 -290zM704 81c70 0 108 110 108 202c0 54 -19 84 -62 84c-72 0 -108 -109 -108 -198c0 -57 19 -88 62 -88zM180 0l539 740h83l-539 -740h-83z" />
    <glyph glyph-name="prime.tab" horiz-adv-x="325" 
d="M175 478h-75l51 196l23 66h109z" />
    <glyph glyph-name="primedbl.tab" 
d="M158 478l43 196l21 66h109l-98 -262h-75zM344 478l43 196l21 66h109l-98 -262h-75z" />
    <glyph glyph-name="period.tab" horiz-adv-x="325" 
d="M30 0l23 130h137l-23 -130h-137z" />
    <glyph glyph-name="comma.tab" horiz-adv-x="325" 
d="M28 -112l54 112h-52l23 130h137l-20 -113l-85 -129h-57z" />
    <glyph glyph-name="colon.tab" horiz-adv-x="325" 
d="M30 0l23 130h137l-23 -130h-137zM100 401l24 130h137l-24 -130h-137z" />
    <glyph glyph-name="semicolon.tab" horiz-adv-x="325" 
d="M26 -112l55 112h-51l23 130h137l-20 -111l-87 -131h-57zM100 401l24 130h137l-24 -130h-137z" />
    <glyph glyph-name="parenleft.tab" horiz-adv-x="325" 
d="M236 -149l-70 -52c-113 117 -177 250 -177 401c0 244 131 414 348 562l46 -64c-155 -123 -264 -306 -264 -511c0 -129 45 -247 117 -336z" />
    <glyph glyph-name="parenright.tab" horiz-adv-x="325" 
d="M-43 -202l-50 61c157 123 268 308 268 514c0 128 -43 243 -114 332l67 56c114 -117 177 -249 177 -400c0 -243 -132 -415 -348 -563z" />
    <glyph glyph-name="endash.tab" unicode="&#x2012;" 
d="M576 260h-540l18 105h540z" />
    <glyph glyph-name="asterisk.tab" 
d="M468 342l-76 -28l-47 166l-100 -141l-62 53l121 123l-172 18l14 77l168 -42l-72 157l76 28l46 -166l101 141l62 -54l-122 -122l172 -18l-13 -77l-168 41z" />
    <glyph glyph-name="periodcentered.tab" horiz-adv-x="325" 
d="M216 264h-142l23 130h142z" />
    <glyph glyph-name="space.tab" unicode="&#x2007;" horiz-adv-x="325" 
 />
    <glyph glyph-name="space.tab_en" 
 />
    <glyph glyph-name="space.tab_em" horiz-adv-x="1300" 
 />
    <glyph glyph-name="space.tab_thin" horiz-adv-x="163" 
 />
    <glyph glyph-name="zero.sc_salt_slash" horiz-adv-x="552" 
d="M219 -13c-137 0 -203 101 -203 241c0 208 111 376 293 376c138 0 203 -100 203 -239c0 -216 -114 -378 -293 -378zM131 219c0 -11 0 -21 1 -30l247 276c-16 29 -44 44 -82 44c-111 0 -166 -141 -166 -290zM230 81c108 0 167 134 167 293c0 8 -1 16 -1 23l-245 -274
c16 -28 42 -42 79 -42z" />
    <glyph glyph-name="zero.sc" horiz-adv-x="552" 
d="M219 -13c-137 0 -203 101 -203 241c0 208 111 376 293 376c138 0 203 -100 203 -239c0 -216 -114 -378 -293 -378zM230 81c108 0 167 134 167 293c0 89 -32 136 -100 136c-111 0 -166 -142 -166 -291c0 -91 33 -138 99 -138z" />
    <glyph glyph-name="one.sc" horiz-adv-x="400" 
d="M312 0h-339l16 97h126l68 385c-35 -17 -90 -30 -129 -30l18 99c51 1 99 14 134 41h100l-88 -495h111z" />
    <glyph glyph-name="two.sc" horiz-adv-x="495" 
d="M-34 0l2 15c50 306 382 245 382 428c0 41 -22 64 -74 64c-49 0 -99 -17 -144 -82l-77 55c62 84 149 125 242 125c109 0 167 -61 167 -144c0 -234 -313 -221 -352 -365h292l-17 -96h-421z" />
    <glyph glyph-name="three.sc" horiz-adv-x="506" 
d="M192 -14c-115 0 -179 46 -220 116l86 60c31 -55 74 -81 133 -81c82 0 125 32 125 106c0 55 -36 79 -132 79h-28l14 88h31c118 0 150 25 150 92c0 35 -21 63 -84 63c-49 0 -94 -17 -141 -58l-56 73c59 52 141 81 216 81c123 0 182 -61 182 -138c0 -83 -44 -142 -135 -156
c69 -17 102 -63 102 -129c0 -125 -97 -196 -243 -196z" />
    <glyph glyph-name="four.sc" horiz-adv-x="528" 
d="M240 0l22 121h-284l14 83l336 388h127l-67 -379h101l-16 -92h-101l-21 -121h-111zM116 213h162l42 243h-1z" />
    <glyph glyph-name="five.sc" horiz-adv-x="491" 
d="M188 -14c-110 0 -175 44 -217 102l80 71c31 -45 73 -75 137 -75c95 0 139 49 139 130c0 58 -30 94 -90 94c-48 0 -93 -21 -130 -63l-71 24l79 323h354l-26 -98h-256l-36 -143c30 27 74 43 127 43c106 0 165 -69 165 -166c0 -150 -101 -242 -255 -242z" />
    <glyph glyph-name="six.sc" horiz-adv-x="521" 
d="M224 -13c-134 0 -204 87 -204 230c0 239 122 387 296 387c94 0 141 -28 172 -54l-62 -76c-30 25 -62 38 -118 38c-93 0 -151 -79 -171 -200c37 39 107 69 166 69c103 0 162 -61 162 -159c0 -142 -93 -235 -241 -235zM270 293c-47 0 -95 -19 -141 -59v-25
c0 -98 40 -134 104 -134c76 0 121 49 121 133c0 50 -20 85 -84 85z" />
    <glyph glyph-name="seven.sc" horiz-adv-x="450" 
d="M132 0h-117l319 495h-286l17 97h404l-16 -91z" />
    <glyph glyph-name="eight.sc" horiz-adv-x="518" 
d="M214 -13c-155 0 -226 76 -225 156c0 95 64 141 165 175c-53 35 -84 73 -83 128c0 98 92 157 219 157c136 0 192 -74 192 -149c0 -73 -52 -119 -136 -149c67 -38 112 -80 111 -148c0 -113 -108 -170 -243 -170zM213 68c67 0 129 30 129 92c0 46 -41 74 -104 110
c-95 -35 -133 -58 -133 -118c0 -48 38 -84 108 -84zM263 347c86 32 106 60 106 103c0 34 -19 72 -82 72c-73 0 -106 -35 -106 -82c0 -39 31 -64 82 -93z" />
    <glyph glyph-name="nine.sc" horiz-adv-x="522" 
d="M183 -13c-94 0 -141 28 -172 54l62 77c30 -25 62 -38 118 -38c92 0 150 77 170 196c-37 -39 -106 -68 -165 -68c-103 0 -162 64 -162 162c0 142 93 234 241 234c134 0 204 -86 204 -229c0 -239 -122 -388 -296 -388zM229 296c46 0 95 17 140 57c1 9 1 18 1 28
c0 98 -40 134 -104 134c-76 0 -121 -49 -121 -133c0 -50 20 -86 84 -86z" />
    <glyph glyph-name="plus.sc" horiz-adv-x="642" 
d="M360 42h-101v210h-204v99h204v210h101v-210h204v-99h-204v-210z" />
    <glyph glyph-name="minus.sc" horiz-adv-x="642" 
d="M564 252h-509v99h509v-99z" />
    <glyph glyph-name="multiply.sc" horiz-adv-x="642" 
d="M314 231l-164 -164l-72 72l164 163l-164 163l72 72l164 -163l163 163l72 -72l-163 -162l164 -163l-72 -72z" />
    <glyph glyph-name="divide.sc" horiz-adv-x="642" 
d="M365 437h-114v105h114v-105zM564 253h-509v99h509v-99zM365 62h-114v105h114v-105z" />
    <glyph glyph-name="equal.sc" horiz-adv-x="642" 
d="M562 370h-505v91h505v-91zM562 142h-505v91h505v-91z" />
    <glyph glyph-name="less.sc" horiz-adv-x="642" 
d="M574 36l-529 230v72l529 230v-104l-395 -162l395 -162v-104z" />
    <glyph glyph-name="greater.sc" horiz-adv-x="642" 
d="M578 266l-529 -230v104l395 162l-395 162v104l529 -230v-72z" />
    <glyph glyph-name="dollar.sc" horiz-adv-x="563" 
d="M165 -74l12 71c-112 17 -153 81 -175 132l90 42c18 -39 43 -80 103 -93l33 190c-75 27 -153 62 -153 156c0 111 79 171 209 175l10 58h75l-11 -63c94 -16 131 -69 152 -112l-88 -47c-18 36 -33 68 -81 80l-32 -178c79 -28 166 -61 166 -157c0 -106 -80 -184 -223 -187
l-11 -67h-76zM371 161c0 44 -29 64 -78 83l-30 -168c67 4 108 26 108 85zM179 437c0 -37 25 -57 65 -75l28 157c-69 -5 -93 -33 -93 -82z" />
    <glyph glyph-name="Euro.sc" horiz-adv-x="609" 
d="M296 -12c-141 0 -202 86 -206 213h-97l11 62h88c1 19 4 38 8 58h-85l10 62h90c47 144 147 222 265 222c137 0 183 -77 194 -177l-98 -24c-10 72 -29 109 -102 109c-65 0 -118 -40 -148 -130h148l-11 -62h-152c-3 -19 -7 -39 -8 -58h149l-10 -62h-140
c3 -72 30 -122 105 -122c54 0 100 34 138 118l88 -35c-56 -116 -133 -174 -237 -174z" />
    <glyph glyph-name="sterling.sc" horiz-adv-x="558" 
d="M60 273l11 61h74c-12 31 -21 63 -21 97c0 125 120 172 202 172c146 0 178 -85 176 -171l-104 -11c2 49 -13 95 -75 95c-55 0 -87 -30 -87 -85c-1 -33 10 -64 23 -97h145l-11 -61h-113c6 -22 10 -46 10 -71c0 -42 -12 -80 -32 -112c20 -13 42 -21 69 -21c44 0 68 21 82 93
h93c-22 -99 -56 -175 -167 -175c-60 0 -100 19 -130 44c-37 -28 -83 -44 -131 -44c-61 0 -109 29 -109 90c0 70 59 108 121 108c42 0 72 -16 99 -37c2 12 4 26 4 40c0 28 -9 56 -19 85h-110zM83 49c28 0 53 10 72 31c-22 23 -42 42 -69 42s-46 -14 -46 -39
c0 -22 16 -34 43 -34z" />
    <glyph glyph-name="yen.sc" horiz-adv-x="559" 
d="M158 0l14 85h-148l12 64h148l10 55h-148l11 63h147l-142 325h118l96 -236l180 236h122l-256 -325h149l-11 -63h-150l-10 -55h150l-12 -63h-150l-14 -86h-116z" />
    <glyph glyph-name="florin.sc" horiz-adv-x="360" 
d="M-70 -162l14 78c9 -2 25 -4 35 -4c43 0 65 17 73 61l59 331h-73l14 80h74l15 83c11 73 50 127 157 127c33 0 60 -4 71 -8l-13 -76c-10 2 -25 3 -35 3c-36 0 -65 -9 -73 -53l-14 -76h95l-15 -80h-94l-64 -355c-12 -69 -44 -119 -158 -119c-22 0 -56 4 -68 8z" />
    <glyph glyph-name="numbersign.sc" horiz-adv-x="643" 
d="M198 0h-105l33 153h-91v89h110l23 109h-97v89h117l32 152h106l-33 -152h107l33 152h106l-33 -152h102v-89h-121l-23 -109h108v-89h-127l-33 -153h-106l32 153h-106zM274 351l-23 -109h107l23 109h-107z" />
    <glyph glyph-name="percent.sc" horiz-adv-x="892" 
d="M169 225c-85 0 -130 64 -130 152c0 131 81 230 188 230c82 0 129 -64 129 -153c0 -128 -79 -229 -187 -229zM180 302c57 0 86 82 86 154c0 46 -17 73 -50 73c-59 0 -87 -84 -87 -155c0 -46 17 -72 51 -72zM152 0l458 592h102l-458 -592h-102zM643 -11
c-85 0 -130 65 -130 153c0 131 81 230 188 230c82 0 129 -64 129 -153c0 -128 -79 -230 -187 -230zM654 67c57 0 86 82 86 154c0 46 -17 73 -50 73c-59 0 -87 -84 -87 -155c0 -46 17 -72 51 -72z" />
    <glyph glyph-name="perthousand.sc" horiz-adv-x="1257" 
d="M169 225c-85 0 -130 64 -130 152c0 131 81 230 188 230c82 0 129 -64 129 -153c0 -128 -79 -229 -187 -229zM180 302c57 0 86 82 86 154c0 46 -17 73 -50 73c-59 0 -87 -84 -87 -155c0 -46 17 -72 51 -72zM152 0l458 592h102l-458 -592h-102zM643 -11
c-85 0 -130 65 -130 153c0 131 81 230 188 230c82 0 129 -64 129 -153c0 -128 -79 -230 -187 -230zM654 67c57 0 86 82 86 154c0 46 -17 73 -50 73c-59 0 -87 -84 -87 -155c0 -46 17 -72 51 -72zM1008 -11c-85 0 -130 65 -130 153c0 131 81 230 188 230
c82 0 129 -64 129 -153c0 -128 -79 -230 -187 -230zM1019 67c57 0 86 82 86 154c0 46 -17 73 -50 73c-59 0 -87 -84 -87 -155c0 -46 17 -72 51 -72z" />
    <glyph glyph-name="ordfeminine.sc" horiz-adv-x="461" 
d="M22 226l202 368h92l74 -368h-89l-15 81h-133l-44 -81h-87zM184 368h93l-16 89l-6 40h-2l-21 -40z" />
    <glyph glyph-name="ordmasculine.sc" horiz-adv-x="446" 
d="M208 217c-89 0 -161 56 -161 162c0 155 111 225 209 225c89 0 160 -56 160 -163c0 -153 -110 -224 -208 -224zM216 284c66 0 110 75 110 156c0 53 -21 96 -78 96c-69 0 -111 -77 -111 -158c0 -51 20 -94 79 -94z" />
    <glyph glyph-name="zero.sups" unicode="&#x2070;" horiz-adv-x="507" 
d="M251 261c-119 0 -175 76 -175 187c0 164 91 301 233 301c117 0 172 -80 172 -192c0 -166 -92 -296 -230 -296zM255 341c87 0 125 113 125 221c0 66 -24 105 -77 105c-87 0 -127 -114 -127 -222c0 -66 26 -104 79 -104z" />
    <glyph glyph-name="one.sups" unicode="&#xb9;" horiz-adv-x="371" 
d="M53 269l14 81h86l54 305c-26 -11 -59 -19 -88 -19l13 74c40 1 70 10 93 30h97l-68 -390h75l-14 -81h-262z" />
    <glyph glyph-name="two.sups" unicode="&#xb2;" horiz-adv-x="465" 
d="M44 270l4 24c41 238 294 196 294 320c0 28 -19 51 -55 51c-35 0 -73 -12 -113 -63l-64 53c52 68 119 95 190 95c97 0 142 -52 142 -121c0 -182 -242 -166 -273 -276h227l-14 -83h-338z" />
    <glyph glyph-name="three.sups" unicode="&#xb3;" horiz-adv-x="465" 
d="M225 262c-89 0 -149 38 -178 101l72 47c27 -51 64 -65 104 -65c59 0 91 28 91 75c1 39 -27 62 -93 62h-39l13 72h42c70 0 103 18 103 64c0 27 -16 48 -59 48c-39 0 -76 -13 -114 -44l-45 62c57 50 119 66 180 66c97 0 141 -51 141 -113c0 -58 -30 -99 -94 -120
c49 -16 69 -53 69 -95c0 -106 -88 -160 -193 -160z" />
    <glyph glyph-name="four.sups" unicode="&#x2074;" horiz-adv-x="473" 
d="M246 269l19 104h-214l11 63l262 304h104l-51 -288h75l-13 -79h-75l-19 -104h-99zM161 447h122l31 182z" />
    <glyph glyph-name="five.sups" unicode="&#x2075;" horiz-adv-x="451" 
d="M215 261c-89 0 -142 36 -174 81l59 60c24 -35 64 -63 114 -63c67 0 106 38 106 103c0 44 -27 70 -71 70c-34 0 -60 -14 -90 -45l-67 23l61 250h286l-19 -80h-203l-28 -110c21 19 53 33 98 33c79 0 131 -49 131 -130c0 -127 -88 -194 -203 -192z" />
    <glyph glyph-name="six.sups" unicode="&#x2076;" horiz-adv-x="476" 
d="M237 261c-104 0 -162 66 -162 180c0 187 100 308 239 308c71 0 121 -21 149 -46l-51 -69c-27 21 -62 34 -104 34c-70 0 -113 -61 -130 -146c36 32 82 51 135 51c82 0 131 -48 131 -126c0 -114 -82 -186 -207 -186zM279 499c-42 0 -78 -15 -108 -42v-18
c0 -74 35 -102 79 -102c54 0 98 33 98 97c0 39 -21 65 -69 65z" />
    <glyph glyph-name="seven.sups" unicode="&#x2077;" horiz-adv-x="416" 
d="M70 269l248 388h-221l14 83h327l-13 -75l-251 -396h-104z" />
    <glyph glyph-name="eight.sups" unicode="&#x2078;" horiz-adv-x="468" 
d="M227 261c-119 0 -178 56 -178 123c0 70 45 108 126 140c-38 27 -63 57 -62 98c0 76 68 127 179 127c112 0 157 -59 157 -115c0 -59 -34 -92 -106 -123c51 -29 86 -62 86 -112c0 -94 -83 -138 -202 -138zM231 328c56 0 99 22 99 69c1 37 -36 61 -89 91
c-63 -28 -95 -54 -95 -98c0 -35 28 -62 85 -62zM275 544c55 24 79 45 79 80c0 26 -18 54 -70 54c-45 0 -77 -24 -77 -61c0 -29 26 -50 68 -73z" />
    <glyph glyph-name="nine.sups" unicode="&#x2079;" horiz-adv-x="476" 
d="M211 261c-71 0 -121 20 -149 45l51 67c27 -21 62 -33 104 -33c70 0 114 61 130 147c-37 -32 -83 -51 -135 -51c-82 0 -131 48 -131 126c0 114 82 187 207 187c104 0 162 -66 162 -181c0 -186 -100 -307 -239 -307zM246 508c41 0 78 15 107 42c0 6 1 12 1 18
c0 74 -35 103 -79 103c-54 0 -98 -34 -98 -98c0 -38 21 -65 69 -65z" />
    <glyph glyph-name="zero.sinf" unicode="&#x2080;" horiz-adv-x="507" 
d="M170 -208c-119 0 -175 76 -175 187c0 164 91 301 233 301c117 0 172 -80 172 -192c0 -166 -92 -296 -230 -296zM174 -128c87 0 125 113 125 221c0 66 -24 105 -77 105c-87 0 -127 -114 -127 -222c0 -66 26 -104 79 -104z" />
    <glyph glyph-name="one.sinf" unicode="&#x2081;" horiz-adv-x="371" 
d="M-28 -200l14 81h86l54 305c-26 -11 -59 -19 -88 -19l13 74c40 1 70 10 93 30h97l-68 -390h75l-14 -81h-262z" />
    <glyph glyph-name="two.sinf" unicode="&#x2082;" horiz-adv-x="465" 
d="M-37 -199l4 24c41 238 294 196 294 320c0 28 -19 51 -55 51c-35 0 -73 -12 -113 -63l-64 53c52 68 119 95 190 95c97 0 142 -52 142 -121c0 -182 -242 -166 -273 -276h227l-14 -83h-338z" />
    <glyph glyph-name="three.sinf" unicode="&#x2083;" horiz-adv-x="465" 
d="M144 -207c-89 0 -149 38 -178 101l72 47c27 -51 64 -65 104 -65c59 0 91 28 91 75c1 39 -27 62 -93 62h-39l13 72h42c70 0 103 18 103 64c0 27 -16 48 -59 48c-39 0 -76 -13 -114 -44l-45 62c57 50 119 66 180 66c97 0 141 -51 141 -113c0 -58 -30 -99 -94 -120
c49 -16 69 -53 69 -95c0 -106 -88 -160 -193 -160z" />
    <glyph glyph-name="four.sinf" unicode="&#x2084;" horiz-adv-x="473" 
d="M165 -200l19 104h-214l11 63l262 304h104l-51 -288h75l-13 -79h-75l-19 -104h-99zM80 -22h122l31 182z" />
    <glyph glyph-name="five.sinf" unicode="&#x2085;" horiz-adv-x="451" 
d="M134 -208c-89 0 -142 36 -174 81l59 60c24 -35 64 -63 114 -63c67 0 106 38 106 103c0 44 -27 70 -71 70c-34 0 -60 -14 -90 -45l-67 23l61 250h286l-19 -80h-203l-28 -110c21 19 53 33 98 33c79 0 131 -49 131 -130c0 -127 -88 -194 -203 -192z" />
    <glyph glyph-name="six.sinf" unicode="&#x2086;" horiz-adv-x="476" 
d="M156 -208c-104 0 -162 66 -162 180c0 187 100 308 239 308c71 0 121 -21 149 -46l-51 -69c-27 21 -62 34 -104 34c-70 0 -113 -61 -130 -146c36 32 83 51 135 51c82 0 131 -48 131 -126c0 -114 -82 -186 -207 -186zM198 30c-42 0 -78 -15 -108 -42v-18
c0 -74 35 -102 79 -102c54 0 98 33 98 97c0 39 -21 65 -69 65z" />
    <glyph glyph-name="seven.sinf" unicode="&#x2087;" horiz-adv-x="416" 
d="M-11 -200l248 388h-221l14 83h327l-13 -75l-251 -396h-104z" />
    <glyph glyph-name="eight.sinf" unicode="&#x2088;" horiz-adv-x="468" 
d="M146 -208c-119 0 -178 56 -178 123c0 70 45 108 126 140c-38 27 -63 57 -62 98c0 76 68 127 179 127c112 0 157 -59 157 -115c0 -59 -34 -92 -106 -123c51 -29 86 -62 86 -112c0 -94 -83 -138 -202 -138zM150 -141c56 0 99 22 99 69c1 37 -36 61 -89 91
c-63 -28 -95 -54 -95 -98c0 -35 28 -62 85 -62zM194 75c55 24 79 45 79 80c0 26 -18 54 -70 54c-45 0 -77 -24 -77 -61c0 -29 26 -50 68 -73z" />
    <glyph glyph-name="nine.sinf" unicode="&#x2089;" horiz-adv-x="476" 
d="M130 -208c-71 0 -121 20 -149 45l51 67c27 -21 62 -33 104 -33c70 0 114 62 130 147c-37 -31 -83 -51 -135 -51c-82 0 -131 48 -131 126c0 114 82 187 207 187c104 0 162 -66 162 -181c0 -186 -100 -307 -239 -307zM165 39c41 0 78 15 107 42c0 6 1 12 1 18
c0 74 -35 103 -79 103c-54 0 -98 -34 -98 -98c0 -38 21 -65 69 -65z" />
    <glyph glyph-name="zero.numr" horiz-adv-x="467" 
d="M230 256c-119 0 -175 76 -175 187c0 164 91 301 233 301c117 0 172 -80 172 -192c0 -166 -92 -296 -230 -296zM234 336c87 0 125 113 125 221c0 66 -24 105 -77 105c-87 0 -127 -114 -127 -222c0 -66 26 -104 79 -104z" />
    <glyph glyph-name="one.numr" horiz-adv-x="331" 
d="M32 264l14 81h86l54 305c-26 -11 -59 -19 -88 -19l13 74c40 1 70 10 93 30h97l-68 -390h75l-14 -81h-262z" />
    <glyph glyph-name="two.numr" horiz-adv-x="425" 
d="M23 265l4 24c41 238 294 196 294 320c0 28 -19 51 -55 51c-35 0 -73 -12 -113 -63l-64 53c52 68 119 95 190 95c97 0 142 -52 142 -121c0 -182 -242 -166 -273 -276h227l-14 -83h-338z" />
    <glyph glyph-name="three.numr" horiz-adv-x="425" 
d="M204 257c-89 0 -149 38 -178 101l72 47c27 -51 64 -65 104 -65c59 0 91 28 91 75c1 39 -27 62 -93 62h-39l13 72h42c70 0 103 18 103 64c0 27 -16 48 -59 48c-39 0 -76 -13 -114 -44l-45 62c57 50 119 66 180 66c97 0 141 -51 141 -113c0 -58 -30 -99 -94 -120
c49 -16 69 -53 69 -95c0 -106 -88 -160 -193 -160z" />
    <glyph glyph-name="four.numr" horiz-adv-x="433" 
d="M225 264l19 104h-214l11 63l262 304h104l-51 -288h75l-13 -79h-75l-19 -104h-99zM140 442h122l31 182z" />
    <glyph glyph-name="five.numr" horiz-adv-x="411" 
d="M194 256c-89 0 -142 36 -174 81l59 60c24 -35 64 -63 114 -63c67 0 106 38 106 103c0 44 -27 70 -71 70c-34 0 -60 -14 -90 -45l-67 23l61 250h286l-19 -80h-203l-28 -110c21 19 53 33 98 33c79 0 131 -49 131 -130c0 -127 -88 -194 -203 -192z" />
    <glyph glyph-name="six.numr" horiz-adv-x="436" 
d="M216 256c-104 0 -162 66 -162 180c0 187 100 308 239 308c71 0 121 -21 149 -46l-51 -69c-27 21 -62 34 -104 34c-70 0 -113 -61 -130 -146c36 32 82 51 135 51c82 0 131 -48 131 -126c0 -114 -82 -186 -207 -186zM258 494c-42 0 -78 -15 -108 -42v-18
c0 -74 35 -102 79 -102c54 0 98 33 98 97c0 39 -21 65 -69 65z" />
    <glyph glyph-name="seven.numr" horiz-adv-x="376" 
d="M49 264l248 388h-221l14 83h327l-13 -75l-251 -396h-104z" />
    <glyph glyph-name="eight.numr" horiz-adv-x="428" 
d="M206 256c-119 0 -178 56 -178 123c0 70 45 108 126 140c-38 27 -63 57 -62 98c0 76 68 127 179 127c112 0 157 -59 157 -115c0 -59 -34 -92 -106 -123c51 -29 86 -62 86 -112c0 -94 -83 -138 -202 -138zM210 323c56 0 99 22 99 69c1 37 -36 61 -89 91
c-63 -28 -95 -54 -95 -98c0 -35 28 -62 85 -62zM254 539c55 24 79 45 79 80c0 26 -18 54 -70 54c-45 0 -77 -24 -77 -61c0 -29 26 -50 68 -73z" />
    <glyph glyph-name="nine.numr" horiz-adv-x="436" 
d="M190 256c-71 0 -121 20 -149 45l51 67c27 -21 62 -33 104 -33c70 0 114 61 130 147c-37 -32 -83 -51 -135 -51c-82 0 -131 48 -131 126c0 114 82 187 207 187c104 0 162 -66 162 -181c0 -186 -100 -307 -239 -307zM225 503c41 0 78 15 107 42c0 6 1 12 1 18
c0 74 -35 103 -79 103c-54 0 -98 -34 -98 -98c0 -38 21 -65 69 -65z" />
    <glyph glyph-name="zero.dnom" horiz-adv-x="467" 
d="M185 -7c-119 0 -175 76 -175 187c0 164 91 301 233 301c117 0 172 -80 172 -192c0 -166 -92 -296 -230 -296zM189 73c87 0 125 113 125 221c0 66 -24 105 -77 105c-87 0 -127 -114 -127 -222c0 -66 26 -104 79 -104z" />
    <glyph glyph-name="one.dnom" horiz-adv-x="331" 
d="M-13 1l14 81h86l54 305c-26 -11 -59 -19 -88 -19l13 74c40 1 70 10 93 30h97l-68 -390h75l-14 -81h-262z" />
    <glyph glyph-name="two.dnom" horiz-adv-x="425" 
d="M-22 2l4 24c41 238 294 196 294 320c0 28 -19 51 -55 51c-35 0 -73 -12 -113 -63l-64 53c52 68 119 95 190 95c97 0 142 -52 142 -121c0 -182 -242 -166 -273 -276h227l-14 -83h-338z" />
    <glyph glyph-name="three.dnom" horiz-adv-x="425" 
d="M159 -6c-89 0 -149 38 -178 101l72 47c27 -51 64 -65 104 -65c59 0 91 28 91 75c1 39 -27 62 -93 62h-39l13 72h42c70 0 103 18 103 64c0 27 -16 48 -59 48c-39 0 -76 -13 -114 -44l-45 62c57 50 119 66 180 66c97 0 141 -51 141 -113c0 -58 -30 -99 -94 -120
c49 -16 69 -53 69 -95c0 -106 -88 -160 -193 -160z" />
    <glyph glyph-name="four.dnom" horiz-adv-x="433" 
d="M180 1l19 104h-214l11 63l262 304h104l-51 -288h75l-13 -79h-75l-19 -104h-99zM95 179h122l31 182z" />
    <glyph glyph-name="five.dnom" horiz-adv-x="411" 
d="M149 -7c-89 0 -142 36 -174 81l59 60c24 -35 64 -63 114 -63c67 0 106 38 106 103c0 44 -27 70 -71 70c-34 0 -60 -14 -90 -45l-67 23l61 250h286l-19 -80h-203l-28 -110c21 19 53 33 98 33c79 0 131 -49 131 -130c0 -127 -88 -194 -203 -192z" />
    <glyph glyph-name="six.dnom" horiz-adv-x="436" 
d="M171 -7c-104 0 -162 66 -162 180c0 187 100 308 239 308c71 0 121 -21 149 -46l-51 -69c-27 21 -62 34 -104 34c-70 0 -113 -61 -130 -146c36 32 82 51 135 51c82 0 131 -48 131 -126c0 -114 -82 -186 -207 -186zM213 231c-42 0 -78 -15 -108 -42v-18
c0 -74 35 -102 79 -102c54 0 98 33 98 97c0 39 -21 65 -69 65z" />
    <glyph glyph-name="seven.dnom" horiz-adv-x="376" 
d="M4 1l248 388h-221l14 83h327l-13 -75l-251 -396h-104z" />
    <glyph glyph-name="eight.dnom" horiz-adv-x="428" 
d="M161 -7c-119 0 -178 56 -178 123c0 70 45 108 126 140c-38 27 -63 57 -62 98c0 76 68 127 179 127c112 0 157 -59 157 -115c0 -59 -34 -92 -106 -123c51 -29 86 -62 86 -112c0 -94 -83 -138 -202 -138zM165 60c56 0 99 22 99 69c1 37 -36 61 -89 91
c-63 -28 -95 -54 -95 -98c0 -35 28 -62 85 -62zM209 276c55 24 79 45 79 80c0 26 -18 54 -70 54c-45 0 -77 -24 -77 -61c0 -29 26 -50 68 -73z" />
    <glyph glyph-name="nine.dnom" horiz-adv-x="436" 
d="M145 -7c-71 0 -121 20 -149 45l51 67c27 -21 62 -33 104 -33c70 0 114 61 130 147c-37 -32 -83 -51 -135 -51c-82 0 -131 48 -131 126c0 114 82 187 207 187c104 0 162 -66 162 -181c0 -186 -100 -307 -239 -307zM180 240c41 0 78 15 107 42c0 6 1 12 1 18
c0 74 -35 103 -79 103c-54 0 -98 -34 -98 -98c0 -38 21 -65 69 -65z" />
    <glyph glyph-name="onehalf" unicode="&#xbd;" horiz-adv-x="1058" 
d="M32 263l14 82h86l54 304c-26 -11 -59 -19 -88 -19l13 75c40 1 70 10 93 30h97l-68 -390h75l-14 -82h-262zM285 0h-110l566 740h110zM611 2l4 23c41 239 294 197 294 321c0 28 -19 50 -56 50c-34 0 -73 -11 -113 -62l-63 52c51 69 119 96 190 96c96 0 141 -52 141 -122
c0 -181 -242 -166 -272 -275h227l-15 -83h-337z" />
    <glyph glyph-name="onequarter" unicode="&#xbc;" horiz-adv-x="1006" 
d="M32 263l14 82h86l54 304c-26 -11 -59 -19 -88 -19l13 75c40 1 70 10 93 30h97l-68 -390h75l-14 -82h-262zM285 0h-110l566 740h110zM753 1l18 103h-213l11 64l262 304h103l-50 -288h75l-14 -80h-75l-18 -103h-99zM668 179h121l32 181z" />
    <glyph glyph-name="threequarters" unicode="&#xbe;" horiz-adv-x="1060" 
d="M204 256c-89 0 -149 38 -178 102l72 47c27 -51 64 -65 104 -65c59 0 91 27 91 74c1 39 -27 62 -93 62h-39l13 72h42c70 0 103 19 103 65c0 26 -16 47 -59 47c-39 0 -76 -12 -114 -43l-45 61c57 51 119 67 180 67c97 0 141 -51 141 -114c0 -57 -30 -99 -94 -119
c49 -16 69 -53 69 -96c0 -105 -88 -160 -193 -160zM339 0h-110l566 740h110zM807 1l18 103h-213l11 64l262 304h103l-50 -288h75l-14 -80h-75l-18 -103h-99zM722 179h121l32 181z" />
    <glyph glyph-name="space.frac" horiz-adv-x="150" 
 />
    <glyph glyph-name="fraction" unicode="&#x2044;" horiz-adv-x="512" 
d="M28 0h-110l566 740h110z" />
    <glyph glyph-name="lessequal" unicode="&#x2264;" horiz-adv-x="642" 
d="M586 143l-529 185v72l529 190v-104l-380 -122l380 -117v-104zM57 29v93h529v-93h-529z" />
    <glyph glyph-name="greaterequal" unicode="&#x2265;" horiz-adv-x="642" 
d="M60 143v104l380 117l-380 122v104l529 -190v-72zM60 29v93h529v-93h-529z" />
    <glyph glyph-name="notequal" unicode="&#x2260;" horiz-adv-x="642" 
d="M135 -1l70 168h-137v91h170l60 137h-230v91h264l78 188h106l-78 -188h135v-91h-168l-61 -137h229v-91h-262l-70 -168h-106z" />
    <glyph glyph-name="asciicircum" unicode="^" horiz-adv-x="642" 
d="M57 331l230 409h72l230 -409h-104l-162 284l-162 -284h-104z" />
    <glyph glyph-name="asciitilde" unicode="~" horiz-adv-x="642" 
d="M456 262c-78 2 -221 66 -270 68c-26 2 -44 -8 -48 -45l-75 11c11 96 58 134 123 132c81 -2 221 -67 270 -69c26 -1 45 9 49 47l74 -9c-11 -97 -58 -137 -123 -135z" />
    <glyph glyph-name="plusminus" unicode="&#xb1;" horiz-adv-x="642" 
d="M67 29v93h205v186h-205v97h205v211h99v-211h205v-97h-205v-186h205v-93h-509z" />
    <glyph glyph-name="infinity" unicode="&#x221e;" horiz-adv-x="784" 
d="M211 171c-117 0 -181 65 -181 188c0 122 64 189 181 189c76 0 134 -40 181 -109c46 69 104 109 181 109c117 0 181 -67 181 -189c0 -123 -64 -188 -181 -188c-77 0 -135 42 -181 112c-47 -70 -105 -112 -181 -112zM217 260c61 0 96 47 128 99c-32 52 -67 101 -128 101
c-59 0 -92 -36 -92 -101c0 -64 33 -99 92 -99zM567 260c59 0 92 35 92 99c0 65 -33 101 -92 101c-61 0 -96 -48 -128 -100c32 -52 67 -100 128 -100z" />
    <glyph glyph-name="mu" unicode="&#xb5;" horiz-adv-x="596" 
d="M92 -200h-123l129 731h123l-62 -351c-11 -58 9 -87 71 -87c46 0 92 25 137 65l66 373h123l-94 -531h-123l13 75c-36 -37 -91 -80 -162 -80c-26 0 -47 9 -59 23z" />
    <glyph glyph-name="mu" unicode="&#x3bc;" horiz-adv-x="596" 
d="M92 -200h-123l129 731h123l-62 -351c-11 -58 9 -87 71 -87c46 0 92 25 137 65l66 373h123l-94 -531h-123l13 75c-36 -37 -91 -80 -162 -80c-26 0 -47 9 -59 23z" />
    <glyph glyph-name="radical" unicode="&#x221a;" horiz-adv-x="557" 
d="M255 -2h-124l-92 533h124l56 -392h2l301 601h122z" />
    <glyph glyph-name="approxequal" unicode="&#x2248;" horiz-adv-x="642" 
d="M441 120c-78 2 -202 76 -250 78c-27 1 -45 -8 -49 -46l-74 12c11 96 58 134 122 132c82 -2 202 -77 250 -79c26 -1 45 9 49 46l75 -9c-11 -96 -58 -136 -123 -134zM449 343c-78 2 -201 76 -249 78c-26 1 -44 -8 -49 -46l-74 12c10 96 57 134 122 132
c82 -3 202 -77 250 -79c27 -1 45 9 49 46l75 -9c-11 -96 -59 -137 -124 -134z" />
    <glyph glyph-name="lozenge" unicode="&#x25ca;" 
d="M276 0l-231 370l231 370h94l235 -370l-231 -370h-98zM325 119l159 251l-159 251l-159 -251z" />
    <glyph glyph-name="acute" unicode="&#xb4;" horiz-adv-x="495" 
d="M282 587h-81l118 166h132z" />
    <glyph glyph-name="breve" unicode="&#x2d8;" horiz-adv-x="495" 
d="M303 582c-117 0 -155 75 -149 177h68c1 -75 31 -95 85 -95c42 0 87 19 105 95h69c-16 -104 -82 -177 -178 -177z" />
    <glyph glyph-name="caron" unicode="&#x2c7;" horiz-adv-x="530" 
d="M346 590h-85l-97 166h72l82 -84l113 84h71z" />
    <glyph glyph-name="cedilla" unicode="&#xb8;" horiz-adv-x="495" 
d="M172 -199c-69 0 -109 14 -140 37l32 40c26 -20 56 -30 95 -30c37 0 60 13 60 43c0 16 -12 27 -32 27c-14 0 -30 -6 -45 -18l-32 17l41 83h56l-22 -51c13 9 31 15 53 15c38 0 66 -25 66 -63c0 -76 -73 -100 -132 -100z" />
    <glyph glyph-name="circumflex" unicode="&#x2c6;" horiz-adv-x="530" 
d="M206 587h-71l156 166h85l97 -166h-72l-83 84z" />
    <glyph glyph-name="commaaccent" unicode="&#x326;" horiz-adv-x="276" 
d="M-19 -271l51 106h-49l22 120h123l-18 -105l-76 -121h-53z" />
    <glyph glyph-name="commaaccent.scrap" horiz-adv-x="276" 
d="M116 584l18 105l76 121h52l-51 -106h49l-21 -120h-123z" />
    <glyph glyph-name="dieresis" unicode="&#xa8;" horiz-adv-x="515" 
d="M447 584h-112l21 121h112zM255 584h-112l21 121h112z" />
    <glyph glyph-name="dotaccent" unicode="&#x2d9;" horiz-adv-x="495" 
d="M354 595h-132l20 111h132z" />
    <glyph glyph-name="grave" unicode="`" horiz-adv-x="500" 
d="M344 587h-81l-129 166h132z" />
    <glyph glyph-name="hungarumlaut" unicode="&#x2dd;" horiz-adv-x="513" 
d="M363 587h-82l129 166h134zM184 587h-82l124 166h134z" />
    <glyph glyph-name="macron" unicode="&#xaf;" horiz-adv-x="495" 
d="M440 584h-307l16 91h307z" />
    <glyph glyph-name="ogonek" unicode="&#x2db;" horiz-adv-x="495" 
d="M180 -187c-75 0 -108 30 -108 71c0 51 48 89 106 124h74c-54 -34 -90 -71 -90 -107c0 -19 11 -34 46 -34c27 0 55 7 82 18l18 -39c-39 -22 -80 -33 -128 -33z" />
    <glyph glyph-name="ring" unicode="&#x2da;" horiz-adv-x="535" 
d="M317 630c28 0 54 22 54 59c0 24 -15 43 -42 43c-28 0 -53 -23 -53 -59c0 -24 14 -43 41 -43zM312 579c-57 0 -90 42 -90 92c0 69 56 111 113 111s90 -40 90 -89c0 -71 -56 -114 -113 -114z" />
    <glyph glyph-name="tilde" unicode="&#x2dc;" horiz-adv-x="510" 
d="M375 580c-63 0 -99 56 -138 56c-28 0 -44 -15 -50 -54h-71c11 98 55 139 121 139c64 0 101 -56 138 -56c27 0 44 15 51 54h71c-13 -97 -58 -139 -122 -139z" />
    <glyph glyph-name="apple" unicode="&#xf8ff;" horiz-adv-x="760" 
d="M157 128l2 23l-22 -2v94l29 -2l6 83l-164 -20v130l164 -20l-7 85l-28 -2v94l21 -2l-1 21h94l-2 -28l84 -6l-20 164h130l-20 -164l84 6l-2 28h94l-2 -21l22 2v-94l-29 2l-6 -85l164 20v-130l-164 20l6 -83l29 2v-94l-22 2l2 -23h-94l2 30l-84 6l20 -164h-130l20 164
l-84 -6l2 -30h-94zM237 414h96v97l-90 -6zM512 505l-89 6v-97h96zM237 324l6 -89l90 -6v95h-96zM519 324h-96v-95l90 6z" />
    <glyph glyph-name="u2022.check" unicode="&#x2713;" horiz-adv-x="557" 
d="M255 -2h-124l-92 533h124l56 -392h2l301 601h122z" />
    <glyph glyph-name="NUL" horiz-adv-x="0" 
 />
    <glyph glyph-name="i.trk" horiz-adv-x="272" 
d="M243 624h-125l19 106h125zM132 0h-123l94 531h123z" />
    <glyph glyph-name="space.thin_fra" horiz-adv-x="120" 
 />
    <glyph glyph-name="fi" horiz-adv-x="608" 
d="M171 0h-123l76 433h-90l18 98h90l11 65c14 89 63 147 166 147c30 0 70 -5 79 -7l-17 -93c-9 2 -24 4 -41 4c-38 0 -58 -9 -66 -64l-9 -52h96l-18 -98h-96zM468 0h-123l94 531h123zM579 624h-125l18 106h125z" />
    <glyph glyph-name="fl" horiz-adv-x="608" 
d="M171 0h-123l76 433h-90l18 98h90l11 65c14 89 63 147 166 147c30 0 70 -5 79 -7l-17 -93c-9 2 -24 4 -41 4c-38 0 -58 -9 -66 -64l-9 -52h96l-18 -98h-96zM468 0h-123l130 740h123z" />
    <glyph glyph-name="fi.sc" horiz-adv-x="771" 
d="M8 0l104 592h396l-16 -98h-275l-28 -156h196l-16 -94h-196l-44 -244h-121zM508 0l104 592h121l-104 -592h-121z" />
    <glyph glyph-name="fl.sc" horiz-adv-x="986" 
d="M8 0l104 592h396l-16 -98h-275l-28 -156h196l-16 -94h-196l-44 -244h-121zM897 0h-396l104 592h121l-87 -496h274z" />
    <glyph glyph-name="germandbls.sc" horiz-adv-x="1156" 
d="M246 -13c-126 0 -211 49 -244 150l98 47c22 -74 77 -103 156 -103c78 0 123 20 123 83c0 111 -305 73 -305 256c0 124 100 183 235 183c136 0 200 -58 227 -124l-94 -54c-19 51 -72 84 -141 84c-67 0 -107 -20 -107 -75c0 -117 305 -72 305 -256
c0 -138 -118 -191 -253 -191zM824 -13c-126 0 -211 49 -244 150l98 47c22 -74 77 -103 156 -103c78 0 123 20 123 83c0 111 -305 73 -305 256c0 124 100 183 235 183c136 0 200 -58 227 -124l-94 -54c-19 51 -72 84 -141 84c-67 0 -107 -20 -107 -75
c0 -117 305 -72 305 -256c0 -138 -118 -191 -253 -191z" />
    <glyph glyph-name="onesuperior" horiz-adv-x="371" 
d="M53 269l14 81h86l54 305c-26 -11 -59 -19 -88 -19l13 74c40 1 70 10 93 30h97l-68 -390h75l-14 -81h-262z" />
    <glyph glyph-name="twosuperior" horiz-adv-x="465" 
d="M44 270l4 24c41 238 294 196 294 320c0 28 -19 51 -55 51c-35 0 -73 -12 -113 -63l-64 53c52 68 119 95 190 95c97 0 142 -52 142 -121c0 -182 -242 -166 -273 -276h227l-14 -83h-338z" />
    <glyph glyph-name="threesuperior" horiz-adv-x="465" 
d="M225 262c-89 0 -149 38 -178 101l72 47c27 -51 64 -65 104 -65c59 0 91 28 91 75c1 39 -27 62 -93 62h-39l13 72h42c70 0 103 18 103 64c0 27 -16 48 -59 48c-39 0 -76 -13 -114 -44l-45 62c57 50 119 66 180 66c97 0 141 -51 141 -113c0 -58 -30 -99 -94 -120
c49 -16 69 -53 69 -95c0 -106 -88 -160 -193 -160z" />
    <glyph glyph-name="slash.tab" 
d="M-18 0l561 740h127l-560 -740h-128z" />
    <glyph glyph-name="fraction.sc" horiz-adv-x="425" 
d="M28 0h-108l453 592h108z" />
    </font>
</defs>
</svg>
